<?xml version="1.0" standalone="no"?>
<!DOCTYPE svg PUBLIC "-//W3C//DTD SVG 1.1//EN" "http://www.w3.org/Graphics/SVG/1.1/DTD/svg11.dtd" >
<svg xmlns="http://www.w3.org/2000/svg" xmlns:xlink="http://www.w3.org/1999/xlink" version="1.1">
<metadata>
Created by FontForge 20190801 at Mon Jul 14 13:11:29 2014
 By www-data
Copyright (c)2014 Commercial Type.
</metadata>
<defs>
<font id="MarrSansMedium" horiz-adv-x="652" >
  <font-face 
    font-family="MarrSansMedium"
    font-weight="500"
    font-stretch="normal"
    units-per-em="1000"
    panose-1="0 0 0 0 0 0 0 0 0 0"
    ascent="773"
    descent="-227"
    x-height="525"
    cap-height="716"
    bbox="-194 -273 1142 1092"
    underline-thickness="69"
    underline-position="-56"
    unicode-range="U+000D-FB02"
  />
<missing-glyph horiz-adv-x="473" 
d="M56 55v91l294 636h42zM56 255v92l201 435h42zM56 655v127h58zM56 455v92l109 235h42zM81 0l336 727v-91l-294 -636h-42zM173 0l244 527v-91l-201 -436h-43zM266 0l151 328v-92l-109 -236h-42zM358 0l59 128v-128h-59z" />
    <glyph glyph-name="f_f" unicode="ff" horiz-adv-x="662" 
d="M415 0v442h-183v-442h-119v442h-83v83h83v78q0 75 30.5 110.5t83.5 49.5q37 9 133 9v-88q-69 0 -90 -8t-29.5 -28.5t-8.5 -60.5v-62h183v88q0 75 30.5 110.5t83.5 49.5q37 9 138 9v-88q-74 0 -95 -8t-29.5 -28.5t-8.5 -60.5v-72h109v-83h-109v-442h-119z" />
    <glyph glyph-name="f_i" unicode="fi" horiz-adv-x="606" 
d="M413 604v113h119v-113h-119zM413 0v525h119v-525h-119zM113 0v442h-83v83h83v88q0 74 30 110t84 50q40 9 114 9v-88q-53 0 -71 -8q-21 -9 -29.5 -29t-8.5 -60v-72h109v-83h-109v-442h-119z" />
    <glyph glyph-name="f_l" unicode="fl" horiz-adv-x="606" 
d="M413 0v782h119v-782h-119zM113 0v442h-83v83h83v88q0 74 30 110t84 50q40 9 114 9v-88q-53 0 -71 -8q-21 -9 -29.5 -29t-8.5 -60v-72h109v-83h-109v-442h-119z" />
    <glyph glyph-name=".notdef" horiz-adv-x="473" 
d="M56 55v91l294 636h42zM56 255v92l201 435h42zM56 655v127h58zM56 455v92l109 235h42zM81 0l336 727v-91l-294 -636h-42zM173 0l244 527v-91l-201 -436h-43zM266 0l151 328v-92l-109 -236h-42zM358 0l59 128v-128h-59z" />
    <glyph glyph-name=".null" horiz-adv-x="0" 
 />
    <glyph glyph-name="nonmarkingreturn" horiz-adv-x="333" 
 />
    <glyph glyph-name="NULL" horiz-adv-x="0" 
 />
    <glyph glyph-name="NULL" horiz-adv-x="0" 
 />
    <glyph glyph-name="CR" unicode="&#xd;" horiz-adv-x="201" 
 />
    <glyph glyph-name="space" unicode=" " horiz-adv-x="201" 
 />
    <glyph glyph-name="exclam" unicode="!" horiz-adv-x="297" 
d="M110 227l-24 298v191h125v-191l-25 -298h-76zM84 0v164h129v-164h-129z" />
    <glyph glyph-name="quotedbl" unicode="&#x22;" horiz-adv-x="415" 
d="M329 453h-62l-26 180v83h114v-83zM148 453h-62l-26 180v83h114v-83z" />
    <glyph glyph-name="numbersign" unicode="#" horiz-adv-x="599" 
d="M374 442h-119l-26 -138h119zM89 1l40 211h-92v92h110l26 138h-96v91h113l35 182h82l-35 -182h119l35 182h82l-35 -182h89v-91h-106l-26 -138h108v-92h-126l-40 -211h-82l40 211h-119l-40 -211h-82z" />
    <glyph glyph-name="dollar" unicode="$" horiz-adv-x="623" 
d="M172 551q0 -40 27.5 -64.5t81.5 -44.5v202q-109 -10 -109 -93zM465 175q0 40 -29.5 66t-93.5 51v-219q123 8 123 102zM342 -119h-71v106q-99 14 -158.5 81.5t-69.5 171.5l95 16q12 -148 133 -179v239q-108 35 -159 81.5t-51 132.5q0 83 56.5 139t163.5 62v104h70v-106
q88 -12 141 -69.5t61 -150.5l-93 -20q-4 60 -32 98.5t-77 51.5v-219q115 -37 172.5 -85.5t57.5 -128.5q0 -99 -62.5 -157.5t-176.5 -63.5v-104z" />
    <glyph glyph-name="percent" unicode="%" horiz-adv-x="792" 
d="M225 1h-94l445 734h95zM23 541q0 85 46 139.5t118 54.5t118 -54.5t46 -139.5q0 -84 -46 -138.5t-118 -54.5t-118 54.5t-46 138.5zM119 541q0 -125 68 -125q67 0 67 125q0 126 -67 126q-68 0 -68 -126zM605 -15q-72 0 -118 54.5t-46 138.5q0 85 46 139.5t118 54.5
t118 -54.5t46 -139.5q0 -84 -46 -138.5t-118 -54.5zM605 53q66 0 66 125q0 126 -66 126q-69 0 -69 -126q0 -125 69 -125z" />
    <glyph glyph-name="ampersand" unicode="&#x26;" horiz-adv-x="698" 
d="M622 -16q-97 0 -171 78q-84 -78 -197 -78q-93 0 -154 51t-61 141q0 143 162 229q-59 93 -59 170q0 76 48 116.5t119 40.5q74 0 118 -39.5t44 -109.5q0 -57 -37 -104.5t-97 -79.5q84 -128 131 -188q39 85 45 207h92q-11 -163 -82 -278q56 -69 110 -69q10 0 34 3l9 -84
q-26 -6 -54 -6zM250 580q0 -44 49 -122q78 45 78 120q0 72 -64 72q-63 0 -63 -70zM274 64q76 0 128 59q-62 80 -164 227q-86 -61 -86 -166q0 -57 32.5 -88.5t89.5 -31.5z" />
    <glyph glyph-name="quotesingle" unicode="'" horiz-adv-x="234" 
d="M148 453h-62l-26 180v83h114v-83z" />
    <glyph glyph-name="parenleft" unicode="(" horiz-adv-x="357" 
d="M332 -92l-48 -49q-100 74 -164 196.5t-64 277.5q0 157 64 278t164 195l48 -48q-80 -82 -118.5 -182.5t-38.5 -242.5t38.5 -242.5t118.5 -182.5z" />
    <glyph glyph-name="parenright" unicode=")" horiz-adv-x="357" 
d="M61 -141l-48 49q80 82 118.5 182.5t38.5 242.5t-38.5 242.5t-118.5 182.5l48 48q100 -74 164 -195t64 -278q0 -155 -64 -277.5t-164 -196.5z" />
    <glyph glyph-name="asterisk" unicode="*" horiz-adv-x="470" 
d="M148 387l-76 54l104 124l-139 34l27 87l135 -56l-9 152h91l-9 -152l134 56l28 -87l-140 -34l104 -124l-75 -54l-88 134z" />
    <glyph glyph-name="plus" unicode="+" horiz-adv-x="547" 
d="M223 102v174h-168v92h168v174h101v-174h168v-92h-168v-174h-101z" />
    <glyph glyph-name="comma" unicode="," horiz-adv-x="296" 
d="M84 -176v106l73 59v28h-73v157h129v-244z" />
    <glyph glyph-name="hyphen" unicode="-" horiz-adv-x="311" 
d="M49 226v91h213v-91h-213z" />
    <glyph glyph-name="period" unicode="." horiz-adv-x="295" 
d="M83 0v174h129v-174h-129z" />
    <glyph glyph-name="slash" unicode="/" horiz-adv-x="384" 
d="M11 -124l251 913h96l-251 -913h-96z" />
    <glyph glyph-name="zero" unicode="0" horiz-adv-x="678" 
d="M339 -16q-74 0 -130.5 31.5t-89 85.5t-48.5 119t-16 138t16 138t48.5 119t89 85.5t130.5 31.5t130.5 -31.5t89 -85.5t48.5 -119t16 -138t-16 -138t-48.5 -119t-89 -85.5t-130.5 -31.5zM339 67q156 0 156 291t-156 291t-156 -291t156 -291z" />
    <glyph glyph-name="one" unicode="1" horiz-adv-x="412" 
d="M298 0h-119v560h-137v74l50 4q42 2 67 19t38 59h101v-716z" />
    <glyph glyph-name="two" unicode="2" horiz-adv-x="619" 
d="M60 0v80q164 100 239 169q66 62 99.5 121.5t33.5 130.5q0 68 -33 108t-95 40q-65 0 -102.5 -47t-37.5 -126q0 -67 23 -133l-110 13q-26 61 -26 125q0 115 67 183t187 68q116 0 185.5 -64t69.5 -167q0 -129 -119 -246q-75 -72 -217 -158v-7h354v-90h-518z" />
    <glyph glyph-name="three" unicode="3" horiz-adv-x="616" 
d="M306 -16q-105 0 -179.5 53t-74.5 156q0 23 6 52l117 28q-9 -33 -9 -66q0 -62 36.5 -101t103.5 -39q65 0 98.5 34t33.5 95q0 67 -35 104t-119 37h-94v81h93q133 0 133 120q0 52 -30.5 81.5t-82.5 29.5q-64 0 -100.5 -41.5t-25.5 -122.5l-110 12q-11 116 58.5 175.5
t182.5 59.5q107 0 170.5 -51.5t63.5 -133.5q0 -66 -41.5 -108.5t-106.5 -52.5v-8q77 -10 124.5 -57t47.5 -128q0 -93 -69.5 -151t-190.5 -58z" />
    <glyph glyph-name="four" unicode="4" horiz-adv-x="600" 
d="M360 0v160h-334v74l323 489h129v-479h105v-84h-105v-160h-118zM139 244h221v335h-4l-217 -329v-6z" />
    <glyph glyph-name="five" unicode="5" horiz-adv-x="614" 
d="M304 -16q-113 0 -184 64.5t-62 173.5l114 31q-12 -78 24.5 -132t105.5 -54t103.5 50t34.5 140q0 83 -33.5 128t-94.5 45q-51 0 -87 -33.5t-50 -84.5l-100 28l44 376h391v-91h-311l-22 -182q54 70 161 70q104 0 167 -70.5t63 -185.5q0 -125 -72 -199t-192 -74z" />
    <glyph glyph-name="six" unicode="6" horiz-adv-x="636" 
d="M584 242q0 -116 -73 -187t-188 -71q-138 0 -209 108q-59 91 -59 242q0 182 70 290t215 108q95 0 156.5 -51t61.5 -150l-106 -16q2 70 -31.5 102t-87.5 32q-57 0 -93.5 -39.5t-50 -93.5t-15.5 -123q63 89 183 89q102 0 164.5 -64.5t62.5 -175.5zM323 66q60 0 97 45t37 125
q0 76 -33.5 120.5t-96.5 44.5q-60 0 -99 -43t-39 -121q0 -69 32 -116q36 -55 102 -55z" />
    <glyph glyph-name="seven" unicode="7" horiz-adv-x="526" 
d="M77 0l290 619v3h-342v94h465v-86l-283 -630h-130z" />
    <glyph glyph-name="eight" unicode="8" horiz-adv-x="648" 
d="M324 -16q-133 0 -203 59t-70 143q0 132 155 177v3q-64 21 -101.5 66t-37.5 108q0 80 69 136t188 56t188 -56t69 -136q0 -62 -39.5 -108.5t-99.5 -65.5v-3q155 -45 155 -177q0 -84 -70 -143t-203 -59zM324 407q62 0 97 34t35 89q0 119 -132 119t-132 -119q0 -55 35 -89
t97 -34zM324 67q68 0 106.5 34.5t38.5 94.5t-38 94t-107 34t-107 -34t-38 -94t38 -94.5t107 -34.5z" />
    <glyph glyph-name="nine" unicode="9" horiz-adv-x="636" 
d="M312 315q59 0 97 43.5t38 123.5q0 69 -31 115q-37 53 -103 53q-62 0 -98 -45t-36 -125q0 -75 34.5 -120t98.5 -45zM298 -16q-98 0 -160.5 50t-64.5 148l106 16q-2 -69 34 -100t92 -31q147 0 157 254q-64 -87 -181 -87q-101 0 -165 65.5t-64 174.5q0 117 72.5 187.5
t189.5 70.5q125 0 196 -90t71 -260q0 -118 -28 -205t-93 -140t-162 -53z" />
    <glyph glyph-name="colon" unicode=":" horiz-adv-x="295" 
d="M83 347v174h129v-174h-129zM83 0v174h129v-174h-129z" />
    <glyph glyph-name="semicolon" unicode=";" horiz-adv-x="296" 
d="M83 347v174h129v-174h-129zM84 -176v106l73 59v28h-73v157h129v-244z" />
    <glyph glyph-name="less" unicode="&#x3c;" horiz-adv-x="507" 
d="M441 119l-383 169v108l383 169v-104l-267 -111v-17l267 -111v-103z" />
    <glyph glyph-name="equal" unicode="=" horiz-adv-x="531" 
d="M55 369v93h420v-93h-420zM55 178v93h420v-93h-420z" />
    <glyph glyph-name="greater" unicode="&#x3e;" horiz-adv-x="507" 
d="M433 288l-383 -169v103l267 111v17l-267 111v104l383 -169v-108z" />
    <glyph glyph-name="question" unicode="?" horiz-adv-x="509" 
d="M162 227l-8 179h69q61 0 94.5 31.5t33.5 93.5q0 56 -27.5 88t-82.5 32q-56 0 -85 -33t-27 -88l-111 26q6 77 63 126.5t160 49.5q110 0 171 -57.5t61 -143.5q0 -90 -57.5 -142.5t-145.5 -61.5l-6 -100h-102zM278 0h-129v164h129v-164z" />
    <glyph glyph-name="at" unicode="@" horiz-adv-x="812" 
d="M404 -115q-165 0 -262.5 95.5t-97.5 249.5q0 163 110.5 278.5t285.5 115.5q145 0 236.5 -85t91.5 -217q0 -116 -62 -187t-136 -71q-44 0 -72.5 24t-32.5 70q-16 -39 -47.5 -66t-75.5 -27q-56 0 -89.5 41.5t-33.5 109.5q0 91 50.5 163.5t132.5 72.5q47 0 71.5 -27
t28.5 -69v2l36 84h62l-46 -238q-8 -37 1.5 -56t31.5 -19q42 0 77.5 55.5t35.5 138.5q0 106 -71 173.5t-187 67.5q-145 0 -236 -98.5t-91 -235.5q0 -132 82 -207.5t209 -75.5q118 0 216 55l26 -54q-105 -63 -244 -63zM372 129q46 0 75 58.5t29 122.5q0 81 -51 81
q-32 0 -56.5 -30t-36.5 -70.5t-12 -79.5q0 -82 52 -82z" />
    <glyph glyph-name="A" unicode="A" horiz-adv-x="665" 
d="M325 549l-100 -304h205l-98 304h-7zM509 0l-48 150h-267l-49 -150h-120l252 720h116l247 -720h-131z" />
    <glyph glyph-name="B" unicode="B" horiz-adv-x="685" 
d="M90 0v716h289q117 0 170.5 -45.5t53.5 -136.5q0 -127 -107 -160v-3q62 -15 99 -57.5t37 -109.5q0 -204 -235 -204h-307zM216 408h141q63 0 89 29.5t26 89.5q0 53 -25 76.5t-87 23.5h-144v-219zM216 90h161q70 0 95 27.5t25 88.5q0 112 -130 112h-151v-228z" />
    <glyph glyph-name="C" unicode="C" horiz-adv-x="706" 
d="M373 -16q-79 0 -141 30.5t-99.5 83.5t-56.5 119t-19 141q0 101 32.5 183.5t106.5 136.5t179 54q124 0 195 -68t94 -187l-116 -29q-13 94 -54 141.5t-117 47.5q-89 0 -137 -74t-48 -205t48 -205t137 -74q142 0 173 190l115 -31q-58 -254 -292 -254z" />
    <glyph glyph-name="D" unicode="D" horiz-adv-x="737" 
d="M90 0v716h249q169 0 255 -93.5t86 -264.5t-86 -264.5t-255 -93.5h-249zM216 92h119q108 0 159 60.5t51 205.5q0 266 -210 266h-119v-532z" />
    <glyph glyph-name="E" unicode="E" horiz-adv-x="615" 
d="M90 0v716h452v-92h-326v-218h254v-93h-254v-221h360v-92h-486z" />
    <glyph glyph-name="F" unicode="F" horiz-adv-x="593" 
d="M90 0v716h472v-92h-345v-218h246v-93h-246v-313h-127z" />
    <glyph glyph-name="G" unicode="G" horiz-adv-x="752" 
d="M377 -16q-79 0 -141.5 30.5t-100.5 83.5t-58 119t-20 141q0 101 35.5 184t111.5 136.5t181 53.5q123 0 189 -52.5t94 -154.5l-109 -29q-16 74 -56 107.5t-115 33.5q-90 0 -143 -75t-53 -204t52.5 -204t138.5 -75q81 0 130 44.5t49 119.5v35h-148v90h260v-368h-70l-13 117
h-4q-22 -64 -76 -98.5t-134 -34.5z" />
    <glyph glyph-name="H" unicode="H" horiz-adv-x="736" 
d="M90 0v716h126v-303h304v303h126v-716h-126v318h-304v-318h-126z" />
    <glyph glyph-name="I" unicode="I" horiz-adv-x="306" 
d="M90 0v716h126v-716h-126z" />
    <glyph glyph-name="J" unicode="J" horiz-adv-x="384" 
d="M33 0v95q68 0 97 10q24 8 33 29.5t9 69.5v512h127v-546q0 -132 -114 -160q-37 -10 -152 -10z" />
    <glyph glyph-name="K" unicode="K" horiz-adv-x="678" 
d="M498 0l-226 332l-56 -59v-273h-126v716h126v-315l289 315h127l-276 -294l288 -422h-146z" />
    <glyph glyph-name="L" unicode="L" horiz-adv-x="600" 
d="M90 0v716h127v-617h356v-99h-483z" />
    <glyph glyph-name="M" unicode="M" horiz-adv-x="859" 
d="M90 0v716h166l176 -512h4l170 512h163v-716h-115v566h-6l-186 -566h-79l-190 566h-4v-566h-99z" />
    <glyph glyph-name="N" unicode="N" horiz-adv-x="729" 
d="M90 0v716h124l311 -514h3v514h111v-716h-109l-326 533h-3v-533h-111z" />
    <glyph glyph-name="O" unicode="O" horiz-adv-x="769" 
d="M385 -16q-81 0 -145.5 31.5t-103.5 85t-59 119.5t-20 138t20 138t59 119.5t103.5 85t145.5 31.5q65 0 120 -21t92.5 -56.5t64 -83.5t38.5 -102t12 -111t-12 -111t-38.5 -102t-64 -83.5t-92.5 -56.5t-120 -21zM385 79q192 0 192 279q0 133 -47.5 206t-144.5 73
q-96 0 -144.5 -75t-48.5 -204q0 -130 48.5 -204.5t144.5 -74.5z" />
    <glyph glyph-name="P" unicode="P" horiz-adv-x="660" 
d="M90 0v716h283q247 0 247 -210q0 -103 -62.5 -156.5t-184.5 -53.5h-157v-296h-126zM216 387h150q67 0 94.5 28t27.5 90q0 63 -27.5 91t-94.5 28h-150v-237z" />
    <glyph glyph-name="Q" unicode="Q" horiz-adv-x="769" 
d="M607 -131q-64 0 -99.5 32t-52.5 91q-29 -7 -70 -7q-81 0 -145.5 31.5t-103.5 84.5t-59 118.5t-20 138.5q0 72 20 138t59 119.5t103.5 85t145.5 31.5q65 0 120 -21t92.5 -56.5t64 -83.5t38.5 -102t12 -111q0 -104 -41.5 -193t-119.5 -136q12 -45 30.5 -68.5t48.5 -23.5
q34 0 49.5 28t21.5 85l63 -7q-7 -82 -41.5 -128t-115.5 -46zM375 267q113 0 152 -133q50 68 50 222q0 135 -47.5 209t-144.5 74q-96 0 -144.5 -76t-48.5 -205q0 -137 50 -210q0 48 37 83.5t96 35.5zM387 69q23 0 48 5q-15 67 -34.5 95.5t-51.5 28.5q-29 0 -45 -18.5
t-16 -46.5q0 -29 19 -44q25 -20 80 -20z" />
    <glyph glyph-name="R" unicode="R" horiz-adv-x="691" 
d="M216 394h160q64 0 90.5 28.5t26.5 86.5q0 59 -26 87t-91 28h-160v-230zM216 0h-126v716h289q247 0 247 -205q0 -147 -151 -180l1 -6q24 -7 50 -56t41 -97q24 -76 35.5 -102t32.5 -52v-18h-148q-16 34 -34 103q-19 80 -38 144q-10 33 -26 45t-51 12h-122v-304z" />
    <glyph glyph-name="S" unicode="S" horiz-adv-x="639" 
d="M326 -16q-119 0 -191 69.5t-84 186.5l97 16q7 -89 53.5 -136.5t122.5 -47.5q142 0 142 97q0 52 -30 74t-132 60q-7 3 -10 4q-59 22 -94.5 39t-68 42.5t-47 59t-14.5 79.5q0 91 64 148t180 57q108 0 173.5 -59t74.5 -164l-96 -20q-5 75 -43.5 116t-108.5 41q-66 0 -96 -26
t-30 -69q0 -46 31 -67.5t113 -49.5q8 -3 12 -4q50 -17 82 -29.5t66 -31.5t52.5 -40.5t31 -52.5t12.5 -70q0 -104 -67.5 -163t-194.5 -59z" />
    <glyph glyph-name="T" unicode="T" horiz-adv-x="593" 
d="M232 0v622h-218v94h565v-94h-218v-622h-129z" />
    <glyph glyph-name="U" unicode="U" horiz-adv-x="699" 
d="M348 -15q-131 0 -200.5 63.5t-69.5 179.5v488h127v-472q0 -81 35.5 -121.5t116.5 -40.5q82 0 118 40.5t36 121.5v472h110v-486q0 -115 -70 -180t-203 -65z" />
    <glyph glyph-name="V" unicode="V" horiz-adv-x="659" 
d="M270 -4l-243 720h135l171 -537h8l172 537h120l-247 -720h-116z" />
    <glyph glyph-name="W" unicode="W" horiz-adv-x="978" 
d="M222 -4l-189 720h128l131 -543h7l147 543h101l143 -543h7l135 543h114l-190 -720h-118l-143 524h-5l-148 -524h-120z" />
    <glyph glyph-name="X" unicode="X" horiz-adv-x="663" 
d="M492 0l-174 268l-166 -268h-126l232 360l-231 356h144l166 -255l159 255h124l-224 -346l240 -370h-144z" />
    <glyph glyph-name="Y" unicode="Y" horiz-adv-x="615" 
d="M369 0h-127v306l-222 410h136l159 -304h6l160 304h114l-226 -410v-306z" />
    <glyph glyph-name="Z" unicode="Z" horiz-adv-x="609" 
d="M572 0h-537v85l386 540h-359v91h510v-85l-385 -539h385v-92z" />
    <glyph glyph-name="bracketleft" unicode="[" horiz-adv-x="340" 
d="M80 -124v913h217v-75h-110v-762h110v-76h-217z" />
    <glyph glyph-name="backslash" unicode="\" horiz-adv-x="384" 
d="M277 -124l-251 913h95l251 -913h-95z" />
    <glyph glyph-name="bracketright" unicode="]" horiz-adv-x="340" 
d="M248 789v-913h-217v76h110v762h-110v75h217z" />
    <glyph glyph-name="asciicircum" unicode="^" horiz-adv-x="508" 
d="M52 419l133 297h132l139 -297h-109l-88 209h-17l-88 -209h-102z" />
    <glyph glyph-name="underscore" unicode="_" horiz-adv-x="468" 
d="M15 -144v90h438v-90h-438z" />
    <glyph glyph-name="grave" unicode="`" horiz-adv-x="412" 
d="M209 590l-87 145h114l54 -145h-81z" />
    <glyph glyph-name="a" unicode="a" horiz-adv-x="563" 
d="M199 -10q-68 0 -107.5 37.5t-39.5 98.5q0 34 12 60t36.5 44t44 28t53.5 23q24 10 75.5 28t70.5 26v37q0 88 -78 88q-45 0 -68 -26t-32 -81l-96 13q11 86 64 127.5t138 41.5q191 0 191 -162v-249q0 -39 25 -53q16 -11 55 -11v-57q-24 -13 -69 -13q-107 0 -116 98h-8
q-42 -98 -151 -98zM241 64q47 0 75 30t28 78v96q-3 -1 -38 -14.5t-62 -25.5q-36 -15 -56 -34.5t-20 -56.5q0 -73 73 -73z" />
    <glyph glyph-name="b" unicode="b" horiz-adv-x="613" 
d="M345 -10q-105 0 -150 112h-7l-34 -108h-81v788h118v-368h8q22 60 65.5 90.5t96.5 30.5q97 0 149.5 -70.5t52.5 -201.5q0 -124 -56 -198.5t-162 -74.5zM319 68q56 0 87.5 49t31.5 146q0 103 -29.5 146t-86.5 43q-50 0 -88 -48.5t-38 -139.5q0 -95 33.5 -145.5t89.5 -50.5z
" />
    <glyph glyph-name="c" unicode="c" horiz-adv-x="548" 
d="M288 -10q-115 0 -177.5 74t-62.5 199q0 123 67.5 198t177.5 75q176 0 212 -166l-87 -33q-14 59 -40.5 90.5t-81.5 31.5q-59 0 -90.5 -51.5t-31.5 -144.5q0 -196 124 -196q96 0 120 130l88 -34q-45 -173 -218 -173z" />
    <glyph glyph-name="d" unicode="d" horiz-adv-x="613" 
d="M294 65q122 0 122 199q0 95 -32 145t-85 50q-58 0 -91 -49t-33 -146q0 -98 31.5 -148.5t87.5 -50.5zM266 -10q-103 0 -159.5 75t-56.5 198q0 128 61 200t160 72q49 0 88 -25t56 -72h8v344h117v-788h-81l-35 101h-7q-21 -49 -59.5 -77t-91.5 -28z" />
    <glyph glyph-name="e" unicode="e" horiz-adv-x="565" 
d="M290 459q-103 0 -114 -147h222q-2 76 -27.5 111.5t-80.5 35.5zM435 195l84 -32q-45 -173 -219 -173q-119 0 -185.5 74t-66.5 199q0 111 65 191.5t176 80.5q114 0 174 -77.5t60 -207.5h-349q5 -183 133 -183q56 0 85 34.5t43 93.5z" />
    <glyph glyph-name="f" unicode="f" horiz-adv-x="360" 
d="M113 0v442h-83v83h83v88q0 75 30.5 110.5t83.5 49.5q37 9 138 9v-88q-74 0 -95 -8t-29.5 -28.5t-8.5 -60.5v-72h109v-83h-109v-442h-119z" />
    <glyph glyph-name="g" unicode="g" horiz-adv-x="590" 
d="M273 173q101 0 101 144t-101 144q-102 0 -102 -144t102 -144zM278 -273q-243 0 -269 145l100 12q26 -90 169 -90q174 0 174 83q0 30 -18.5 43.5t-60.5 13.5h-187q-132 0 -132 107q0 72 83 100v3q-78 63 -78 173q0 97 59.5 157.5t154.5 60.5q125 0 182 -105h4
q0 57 25.5 81t56.5 24t51 -15l-6 -84q-21 9 -37 9q-36 0 -49.5 -29.5t-13.5 -91.5q0 -102 -58 -163.5t-155 -61.5q-50 0 -93 20q-34 -16 -34 -49q0 -41 51 -41h207q157 0 157 -132q0 -80 -70 -125t-213 -45z" />
    <glyph glyph-name="h" unicode="h" horiz-adv-x="583" 
d="M73 0v782h119v-382h2q24 69 71 102t105 33q142 0 142 -152v-383h-119v356q0 51 -16.5 72t-55.5 21q-55 0 -92 -53.5t-37 -131.5v-264h-119z" />
    <glyph glyph-name="i" unicode="i" horiz-adv-x="266" 
d="M73 604v113h119v-113h-119zM73 0v525h119v-525h-119z" />
    <glyph glyph-name="j" unicode="j" horiz-adv-x="266" 
d="M73 604v113h119v-113h-119zM-60 -227v86q64 0 90 9q23 9 33 29t10 65v563h119v-584q0 -72 -30.5 -110t-92.5 -50q-40 -8 -129 -8z" />
    <glyph glyph-name="k" unicode="k" horiz-adv-x="545" 
d="M192 173v-173h-119v782h119v-488h3l193 231h116l-189 -214l209 -311h-136l-150 225z" />
    <glyph glyph-name="l" unicode="l" horiz-adv-x="266" 
d="M73 0v782h119v-782h-119z" />
    <glyph glyph-name="m" unicode="m" horiz-adv-x="879" 
d="M192 271v-271h-119v525h105l10 -133h3q48 143 176 143q76 0 104.5 -36t28.5 -106h1q24 73 69.5 107.5t104.5 34.5q76 0 104.5 -38.5t28.5 -109.5v-387h-119v362q0 47 -13 67t-48 20q-51 0 -89.5 -52t-38.5 -128v-269h-119v362q0 47 -13 67t-48 20q-51 0 -89.5 -51
t-38.5 -127z" />
    <glyph glyph-name="n" unicode="n" horiz-adv-x="583" 
d="M73 0v525h105l10 -128h2q25 71 73.5 104.5t107.5 33.5q141 0 141 -152v-383h-119v356q0 51 -16.5 72t-55.5 21q-56 0 -92.5 -50.5t-36.5 -127.5v-271h-119z" />
    <glyph glyph-name="o" unicode="o" horiz-adv-x="580" 
d="M532 263q0 -115 -62.5 -194t-179.5 -79t-179.5 79t-62.5 194t62.5 193.5t179.5 78.5t179.5 -78.5t62.5 -193.5zM174 263q0 -101 28 -149t88 -48t88 48.5t28 148.5t-28 148t-88 48t-88 -48t-28 -148z" />
    <glyph glyph-name="p" unicode="p" horiz-adv-x="613" 
d="M321 73q117 0 117 189q0 195 -119 195q-56 0 -89.5 -50.5t-33.5 -145.5q0 -96 37.5 -142t87.5 -46zM73 -227v752h101l11 -123h5q45 133 164 133q101 0 155 -74.5t54 -198.5q0 -128 -59.5 -200t-158.5 -72q-100 0 -146 92h-8v-309h-118z" />
    <glyph glyph-name="q" unicode="q" horiz-adv-x="613" 
d="M421 -227v338h-8q-21 -60 -63.5 -90.5t-94.5 -30.5q-97 0 -151 70.5t-54 201.5q0 125 55.5 199t162.5 74q54 0 94.5 -30t60.5 -85h5l41 105h71v-752h-119zM291 73q50 0 87.5 48t37.5 140q0 96 -33 146t-89 50q-119 0 -119 -195q0 -102 30 -145.5t86 -43.5z" />
    <glyph glyph-name="r" unicode="r" horiz-adv-x="385" 
d="M73 0v525h106l10 -142h2q39 152 130 152q23 0 39 -10v-112q-20 6 -39 6q-56 0 -92.5 -47t-36.5 -130v-242h-119z" />
    <glyph glyph-name="s" unicode="s" horiz-adv-x="488" 
d="M248 -10q-92 0 -142.5 42.5t-59.5 114.5l84 26q10 -113 114 -113q40 0 64.5 16.5t24.5 48.5t-22 47.5t-100 42.5q-75 26 -113.5 61.5t-38.5 106.5q0 68 48.5 110t128.5 42q162 0 181 -158l-88 -17q-6 57 -28 80.5t-64 23.5q-36 0 -56.5 -16.5t-20.5 -46.5q0 -17 4.5 -28
t22.5 -22t31 -16.5t53 -21.5q8 -3 32.5 -13t32.5 -13.5t27.5 -13t27 -16.5t20 -19t17.5 -24.5t9 -30t4 -37.5q0 -74 -51 -115t-142 -41z" />
    <glyph glyph-name="t" unicode="t" horiz-adv-x="405" 
d="M370 0h-86q-69 0 -100 12q-43 16 -56.5 45.5t-13.5 104.5v280h-97v83h97v200h119v-200h126v-83h-126v-274q0 -39 5 -55.5t24 -24.5q17 -7 50 -7h58v-81z" />
    <glyph glyph-name="u" unicode="u" horiz-adv-x="579" 
d="M218 -10q-77 0 -113 42t-36 110v383h119v-356q0 -50 19.5 -71.5t59.5 -21.5q52 0 86 53.5t34 138.5v257h119v-525h-98l-17 123h-3q-47 -133 -170 -133z" />
    <glyph glyph-name="v" unicode="v" horiz-adv-x="517" 
d="M203 -4l-187 529h129l119 -377h4l129 377h103l-195 -529h-102z" />
    <glyph glyph-name="w" unicode="w" horiz-adv-x="830" 
d="M179 -4l-156 529h120l104 -379h3l118 379h107l106 -378h6l114 378h107l-164 -529h-114l-112 404h-5l-123 -404h-111z" />
    <glyph glyph-name="x" unicode="x" horiz-adv-x="508" 
d="M356 0l-113 182l-113 -182h-106l167 256l-170 269h131l111 -181l112 181h106l-165 -255l172 -270h-132z" />
    <glyph glyph-name="y" unicode="y" horiz-adv-x="504" 
d="M34 -227v84q55 0 88 11q38 14 59 75l19 55l-185 527h128l114 -379h3l124 379h105l-209 -592q-23 -65 -45.5 -97t-69.5 -49q-37 -14 -131 -14z" />
    <glyph glyph-name="z" unicode="z" horiz-adv-x="481" 
d="M32 0v77l277 365h-262v83h394v-74l-277 -365h286v-86h-418z" />
    <glyph glyph-name="braceleft" unicode="{" horiz-adv-x="355" 
d="M311 -125h-48q-85 0 -128 40t-43 109q0 42 24.5 109t24.5 95q0 60 -60 66l-31 2v71l31 3q60 5 60 66q0 27 -24.5 93.5t-24.5 109.5q0 71 42.5 111t129.5 40h47v-72h-27q-36 0 -58 -23t-22 -71q0 -30 18 -86t18 -85q0 -101 -99 -122q99 -18 99 -121q0 -29 -18 -85t-18 -86
q0 -92 80 -92h27v-72z" />
    <glyph glyph-name="bar" unicode="|" horiz-adv-x="269" 
d="M180 -124h-91v913h91v-913z" />
    <glyph glyph-name="braceright" unicode="}" horiz-adv-x="355" 
d="M80 -125h-48v72h27q80 0 80 92q0 30 -18 86t-18 85q0 103 99 121q-99 21 -99 122q0 29 18 85t18 86q0 48 -22 71t-58 23h-27v72h47q87 0 129.5 -40t42.5 -111q0 -43 -24.5 -109.5t-24.5 -93.5q0 -61 60 -66l31 -3v-71l-31 -2q-60 -6 -60 -66q0 -28 24.5 -95t24.5 -109
q0 -69 -43 -109t-128 -40z" />
    <glyph glyph-name="asciitilde" unicode="~" horiz-adv-x="472" 
d="M151 281q-38 0 -54 -49l-54 32q3 51 34 84t82 33q32 0 84.5 -24t74.5 -24q39 0 51 50l55 -33q-3 -51 -35 -83.5t-84 -32.5q-34 0 -83.5 23.5t-70.5 23.5z" />
    <glyph glyph-name="uni00A0" unicode="&#xa0;" horiz-adv-x="201" 
 />
    <glyph glyph-name="exclamdown" unicode="&#xa1;" horiz-adv-x="297" 
d="M175 291l24 -298v-191h-125v191l25 298h76zM201 518v-164h-129v164h129z" />
    <glyph glyph-name="cent" unicode="&#xa2;" horiz-adv-x="561" 
d="M167 260q0 -165 96 -192v383q-96 -30 -96 -191zM425 194l84 -33q-38 -150 -174 -171v-109h-72v107q-104 8 -161 81t-57 191q0 114 59 187.5t159 83.5v100h72v-101q138 -17 174 -163l-85 -33q-19 96 -89 116v-381q68 22 90 125z" />
    <glyph glyph-name="sterling" unicode="&#xa3;" horiz-adv-x="711" 
d="M521 -16q-32 0 -68.5 13.5t-61 28.5t-62.5 41q-59 -83 -161 -83q-61 0 -104 30t-43 87q0 54 40 87t106 33q62 0 131 -32v8q0 43 -29 103h-173v72h134q-42 80 -42 149q0 95 66 153t171 58q45 0 85 -13.5t73.5 -42t48.5 -79.5t5 -119l-106 -16q12 91 -16.5 138.5
t-87.5 47.5q-54 0 -81.5 -36t-27.5 -94q0 -13 2 -27.5t3.5 -23.5t6.5 -26t6.5 -22t9 -24.5t8.5 -22.5h170v-72h-148q6 -29 6 -62q0 -44 -12 -85q98 -53 144 -53q83 0 71 106h68q23 -112 -19.5 -167t-112.5 -55zM171 45q64 0 103 61q-70 47 -117 47q-30 0 -46 -15t-16 -37
q0 -25 22 -40.5t54 -15.5z" />
    <glyph glyph-name="yen" unicode="&#xa5;" horiz-adv-x="581" 
d="M511 138h-162v-138h-121v138h-162v72h162v74h-162v72h135l-178 360h129l140 -307h7l142 307h117l-181 -360h134v-72h-162v-74h162v-72z" />
    <glyph glyph-name="brokenbar" unicode="&#xa6;" horiz-adv-x="269" 
d="M180 393h-91v396h91v-396zM180 -124h-91v409h91v-409z" />
    <glyph glyph-name="section" unicode="&#xa7;" horiz-adv-x="528" 
d="M267 -150q-91 0 -148.5 46.5t-66.5 117.5l84 26q6 -58 41.5 -89t86.5 -31q88 0 88 65q0 36 -25 60t-102 64q-52 27 -75 40.5t-50.5 36.5t-37.5 49.5t-10 62.5q0 53 27 90.5t77 52.5q-66 54 -66 142q0 70 46.5 113t127.5 43q88 0 138.5 -43.5t56.5 -114.5l-87 -17
q-11 104 -106 104q-38 0 -59 -17.5t-21 -49.5q0 -37 24 -60.5t95 -61.5q8 -4 33 -17.5t33 -18t28 -16.5t27.5 -18.5t21.5 -18.5t19.5 -22t13 -23.5t10 -28.5t2.5 -32q0 -110 -104 -142q69 -52 69 -133q0 -75 -50.5 -117t-140.5 -42zM319 196q30 0 51 16t21 49q0 35 -28.5 58
t-106.5 62h-1q-18 8 -36 8q-32 0 -51 -18t-19 -48q0 -8 1.5 -15t3 -12.5t6.5 -12t8.5 -10.5t12 -10.5t13.5 -10t17.5 -10.5t19 -11t22.5 -12.5t25 -13.5l5 -3q16 -6 36 -6z" />
    <glyph glyph-name="dieresis" unicode="&#xa8;" horiz-adv-x="412" 
d="M70 606v106h103v-106h-103zM239 606v106h103v-106h-103z" />
    <glyph glyph-name="copyright" unicode="&#xa9;" horiz-adv-x="838" 
d="M420 -17q-157 0 -261.5 99.5t-104.5 275.5t104.5 275.5t261.5 99.5q156 0 260 -99.5t104 -275.5q0 -118 -50.5 -204.5t-132 -128.5t-181.5 -42zM420 36q133 0 219 85t86 237t-86 237t-219 85q-134 0 -220.5 -85t-86.5 -237q0 -153 86 -237.5t221 -84.5zM419 156
q-79 0 -128 57t-49 147t50 146.5t131 56.5q67 0 105.5 -36t51.5 -95l-68 -25q-7 40 -28 65.5t-58 25.5q-43 0 -68 -36.5t-25 -101.5q0 -138 93 -138q36 0 57.5 27t28.5 67l68 -24q-14 -59 -53 -97.5t-108 -38.5z" />
    <glyph glyph-name="ordfeminine" unicode="&#xaa;" horiz-adv-x="442" 
d="M138 306q-50 0 -80 27t-30 76q0 28 9.5 49t30 36t37 23.5t45.5 19.5l106 40v21q0 35 -13.5 51.5t-43.5 16.5q-69 0 -74 -80l-87 10q18 136 165 136q155 0 155 -148v-165q0 -35 16 -45q11 -8 46 -8v-49q-24 -11 -58 -11q-80 0 -92 84h-6q-15 -37 -48 -60.5t-78 -23.5z
M183 375q31 0 52 20.5t21 58.5v71q-10 -4 -69 -29q-56 -24 -56 -71q0 -23 14 -36.5t38 -13.5z" />
    <glyph glyph-name="guillemotleft" unicode="&#xab;" horiz-adv-x="476" 
d="M355 66l-131 187l131 188h97l-113 -188l113 -187h-97zM164 66l-131 187l131 188h97l-113 -188l113 -187h-97z" />
    <glyph glyph-name="registered" unicode="&#xae;" horiz-adv-x="499" 
d="M249 318q-87 0 -146.5 56.5t-59.5 153.5t59.5 153.5t146.5 56.5t146.5 -56.5t59.5 -153.5t-59.5 -153.5t-146.5 -56.5zM249 357q69 0 115.5 45.5t46.5 125.5q0 79 -46.5 125t-115.5 46t-114.5 -46t-45.5 -125q0 -80 45.5 -125.5t114.5 -45.5zM218 538h37q31 0 31 32
q0 29 -31 29h-37v-61zM295 519v-2q21 -6 31 -40q12 -32 20 -42v-8h-58q-4 8 -10 29t-10 30q-5 16 -23 16h-27v-75h-52v209h90q85 0 85 -63q0 -42 -46 -54z" />
    <glyph glyph-name="overscore" unicode="&#xaf;" horiz-adv-x="412" 
d="M81 607v82h250v-82h-250z" />
    <glyph glyph-name="degree" unicode="&#xb0;" horiz-adv-x="414" 
d="M207 405q-70 0 -117 46.5t-47 117.5t46.5 118t117.5 47t117.5 -47t46.5 -118t-47 -117.5t-117 -46.5zM207 474q39 0 59 27.5t20 67.5q0 42 -19.5 69t-59.5 27t-60.5 -27.5t-20.5 -68.5q0 -40 21 -67.5t60 -27.5z" />
    <glyph glyph-name="plusminus" unicode="&#xb1;" horiz-adv-x="547" 
d="M59 0v91h430v-91h-430zM223 131v174h-168v92h168v174h101v-174h168v-92h-168v-174h-101z" />
    <glyph glyph-name="acute" unicode="&#xb4;" horiz-adv-x="412" 
d="M204 590h-82l53 145h115z" />
    <glyph glyph-name="paragraph" unicode="&#xb6;" horiz-adv-x="664" 
d="M337 -129v368h-23q-120 0 -192 61.5t-72 177.5t72.5 177t191.5 61h268v-845h-84v767h-77v-767h-84z" />
    <glyph glyph-name="middot" unicode="&#xb7;" horiz-adv-x="295" 
d="M83 283v174h129v-174h-129z" />
    <glyph glyph-name="cedilla" unicode="&#xb8;" horiz-adv-x="412" 
d="M212 -242q-70 0 -118 42l28 47q36 -34 80 -34t44 41q0 35 -35 35q-26 0 -39 -24l-53 18l51 129l58 -12l-25 -64q17 6 36 6q39 0 65.5 -23.5t26.5 -62.5q0 -46 -35.5 -72t-83.5 -26z" />
    <glyph glyph-name="ordmasculine" unicode="&#xba;" horiz-adv-x="462" 
d="M431 519q0 -89 -52 -151t-148 -62q-97 0 -148.5 62t-51.5 151t51.5 151t148.5 62q96 0 148 -62t52 -151zM138 519q0 -148 93 -148t93 148q0 145 -93 145t-93 -145z" />
    <glyph glyph-name="guillemotright" unicode="&#xbb;" horiz-adv-x="476" 
d="M240 253l-131 -187h-97l113 187l-113 188h97zM431 253l-131 -187h-97l113 187l-113 188h97z" />
    <glyph glyph-name="onequarter" unicode="&#xbc;" horiz-adv-x="790" 
d="M215 332h-83v286h-77v52l37 3q26 3 39 13.5t22 35.5h62v-390zM608 1v76h-188v51l174 261h96v-255h56v-57h-56v-76h-82zM608 134v171h-5l-110 -166v-5h115zM107 0l457 715h69l-457 -715h-69z" />
    <glyph glyph-name="onehalf" unicode="&#xbd;" horiz-adv-x="827" 
d="M215 332h-83v286h-77v52l37 3q26 3 39 13.5t22 35.5h62v-390zM475 1v54q111 58 157 102.5t46 106.5q0 35 -16.5 54t-46.5 19q-45 0 -62.5 -41.5t5.5 -107.5l-79 8q-28 81 11.5 140t127.5 59q67 0 107 -35.5t40 -95.5q0 -122 -171 -198v-7h176v-58h-295zM107 0l457 715h69
l-457 -715h-69z" />
    <glyph glyph-name="threequarters" unicode="&#xbe;" horiz-adv-x="870" 
d="M202 323q-69 0 -111.5 35t-36.5 101l76 15q-4 -38 15 -65.5t57 -27.5q29 0 46 16.5t17 46.5q0 63 -78 63h-48v54h48q65 0 65 54q0 25 -16 39t-41 14q-32 0 -48 -20.5t-13 -54.5l-77 9q-4 62 38 93t106 31q58 0 97.5 -28t39.5 -74q0 -68 -80 -85v-6q40 -7 67 -31.5
t27 -64.5q0 -52 -40 -83t-110 -31zM688 1v76h-188v51l174 261h96v-255h56v-57h-56v-76h-82zM688 134v171h-5l-110 -166v-5h115zM187 0l457 715h69l-457 -715h-69z" />
    <glyph glyph-name="questiondown" unicode="&#xbf;" horiz-adv-x="509" 
d="M335 291l8 -179h-69q-61 0 -94.5 -31.5t-33.5 -93.5q0 -56 27.5 -88t82.5 -32q56 0 85 33t27 88l111 -26q-6 -77 -63 -126.5t-160 -49.5q-110 0 -171 57.5t-61 143.5q0 90 57.5 142.5t145.5 61.5l6 100h102zM219 518h129v-164h-129v164z" />
    <glyph glyph-name="Agrave" unicode="&#xc0;" horiz-adv-x="665" 
d="M325 549l-100 -304h205l-98 304h-7zM509 0l-48 150h-267l-49 -150h-120l252 720h116l247 -720h-131zM394 779h-93l-105 128h136z" />
    <glyph glyph-name="Aacute" unicode="&#xc1;" horiz-adv-x="665" 
d="M325 549l-100 -304h205l-98 304h-7zM509 0l-48 150h-267l-49 -150h-120l252 720h116l247 -720h-131zM380 779h-92l62 128h135z" />
    <glyph glyph-name="Acircumflex" unicode="&#xc2;" horiz-adv-x="665" 
d="M325 549l-100 -304h205l-98 304h-7zM509 0l-48 150h-267l-49 -150h-120l252 720h116l247 -720h-131zM392 779l-59 61l-60 -61h-102l115 122h98l115 -122h-107z" />
    <glyph glyph-name="Atilde" unicode="&#xc3;" horiz-adv-x="665" 
d="M325 549l-100 -304h205l-98 304h-7zM509 0l-48 150h-267l-49 -150h-120l252 720h116l247 -720h-131zM220 777l-50 9q-4 52 20.5 86t68.5 34q30 0 78 -20.5t65 -20.5q35 0 40 45l51 -10q2 -53 -21.5 -86.5t-68.5 -33.5q-30 0 -78 20.5t-64 20.5q-34 0 -41 -44z" />
    <glyph glyph-name="Adieresis" unicode="&#xc4;" horiz-adv-x="665" 
d="M325 549l-100 -304h205l-98 304h-7zM509 0l-48 150h-267l-49 -150h-120l252 720h116l247 -720h-131zM180 793v108h112v-108h-112zM374 793v108h112v-108h-112z" />
    <glyph glyph-name="Aring" unicode="&#xc5;" horiz-adv-x="665" 
d="M325 549l-100 -304h205l-98 304h-7zM509 0l-48 150h-267l-49 -150h-120l252 720h116l247 -720h-131zM438 853q0 -45 -29 -72t-76 -27q-46 0 -75 27t-29 72q0 44 29 72t75 28q47 0 76 -28t29 -72zM289 853q0 -22 12 -34t32 -12t32.5 12t12.5 34t-12.5 34.5t-32.5 12.5
q-19 0 -31.5 -12t-12.5 -35z" />
    <glyph glyph-name="AE" unicode="&#xc6;" horiz-adv-x="966" 
d="M464 610l-201 -365h203v365h-2zM466 0v150h-255l-83 -150h-125l402 716h488v-92h-301v-218h229v-93h-229v-221h335v-92h-461z" />
    <glyph glyph-name="Ccedilla" unicode="&#xc7;" horiz-adv-x="706" 
d="M373 -242q-70 0 -118 42l28 47q36 -34 80 -34t44 41q0 35 -35 35q-26 0 -39 -24l-53 18l41 105q-49 6 -90 27q-86 45 -130 136t-44 207q0 101 32.5 183.5t106.5 136.5t179 54q124 0 195 -68t94 -187l-116 -29q-13 94 -54 141.5t-117 47.5q-89 0 -137 -74t-48 -205
t48 -205t137 -74q142 0 173 190l115 -31q-41 -180 -176 -234q-48 -19 -107 -20l-18 -48q16 6 36 6q39 0 65.5 -23.5t26.5 -62.5q0 -46 -35.5 -72t-83.5 -26z" />
    <glyph glyph-name="Egrave" unicode="&#xc8;" horiz-adv-x="615" 
d="M387 779h-93l-105 128h136zM90 0v716h452v-92h-326v-218h254v-93h-254v-221h360v-92h-486z" />
    <glyph glyph-name="Eacute" unicode="&#xc9;" horiz-adv-x="615" 
d="M373 779h-92l62 128h135zM90 0v716h452v-92h-326v-218h254v-93h-254v-221h360v-92h-486z" />
    <glyph glyph-name="Ecircumflex" unicode="&#xca;" horiz-adv-x="615" 
d="M385 779l-59 61l-60 -61h-102l115 122h98l115 -122h-107zM90 0v716h452v-92h-326v-218h254v-93h-254v-221h360v-92h-486z" />
    <glyph glyph-name="Edieresis" unicode="&#xcb;" horiz-adv-x="615" 
d="M90 0v716h452v-92h-326v-218h254v-93h-254v-221h360v-92h-486zM174 793v108h112v-108h-112zM368 793v108h112v-108h-112z" />
    <glyph glyph-name="Igrave" unicode="&#xcc;" horiz-adv-x="306" 
d="M90 0v716h126v-716h-126zM214 779h-93l-105 128h136z" />
    <glyph glyph-name="Iacute" unicode="&#xcd;" horiz-adv-x="306" 
d="M90 0v716h126v-716h-126zM200 779h-92l62 128h135z" />
    <glyph glyph-name="Icircumflex" unicode="&#xce;" horiz-adv-x="306" 
d="M90 0v716h126v-716h-126zM213 779l-59 61l-60 -61h-102l115 122h98l115 -122h-107z" />
    <glyph glyph-name="Idieresis" unicode="&#xcf;" horiz-adv-x="306" 
d="M90 0v716h126v-716h-126zM1 793v108h112v-108h-112zM195 793v108h112v-108h-112z" />
    <glyph glyph-name="Eth" unicode="&#xd0;" horiz-adv-x="753" 
d="M28 319v88h78v309h249q169 0 255 -93.5t86 -264.5t-86 -264.5t-255 -93.5h-249v319h-78zM232 92h119q108 0 159 60.5t51 205.5q0 266 -210 266h-119v-217h156v-88h-156v-227z" />
    <glyph glyph-name="Ntilde" unicode="&#xd1;" horiz-adv-x="729" 
d="M250 777l-50 9q-4 52 20.5 86t68.5 34q30 0 78 -20.5t65 -20.5q35 0 40 45l51 -10q2 -53 -21.5 -86.5t-68.5 -33.5q-30 0 -78 20.5t-64 20.5q-34 0 -41 -44zM90 0v716h124l311 -514h3v514h111v-716h-109l-326 533h-3v-533h-111z" />
    <glyph glyph-name="Ograve" unicode="&#xd2;" horiz-adv-x="769" 
d="M445 779h-93l-105 128h136zM385 -16q-81 0 -145.5 31.5t-103.5 85t-59 119.5t-20 138t20 138t59 119.5t103.5 85t145.5 31.5q65 0 120 -21t92.5 -56.5t64 -83.5t38.5 -102t12 -111t-12 -111t-38.5 -102t-64 -83.5t-92.5 -56.5t-120 -21zM385 79q192 0 192 279
q0 133 -47.5 206t-144.5 73q-96 0 -144.5 -75t-48.5 -204q0 -130 48.5 -204.5t144.5 -74.5z" />
    <glyph glyph-name="Oacute" unicode="&#xd3;" horiz-adv-x="769" 
d="M431 779h-92l62 128h135zM385 -16q-81 0 -145.5 31.5t-103.5 85t-59 119.5t-20 138t20 138t59 119.5t103.5 85t145.5 31.5q65 0 120 -21t92.5 -56.5t64 -83.5t38.5 -102t12 -111t-12 -111t-38.5 -102t-64 -83.5t-92.5 -56.5t-120 -21zM385 79q192 0 192 279
q0 133 -47.5 206t-144.5 73q-96 0 -144.5 -75t-48.5 -204q0 -130 48.5 -204.5t144.5 -74.5z" />
    <glyph glyph-name="Ocircumflex" unicode="&#xd4;" horiz-adv-x="769" 
d="M443 779l-59 61l-60 -61h-102l115 122h98l115 -122h-107zM385 -16q-81 0 -145.5 31.5t-103.5 85t-59 119.5t-20 138t20 138t59 119.5t103.5 85t145.5 31.5q65 0 120 -21t92.5 -56.5t64 -83.5t38.5 -102t12 -111t-12 -111t-38.5 -102t-64 -83.5t-92.5 -56.5t-120 -21z
M385 79q192 0 192 279q0 133 -47.5 206t-144.5 73q-96 0 -144.5 -75t-48.5 -204q0 -130 48.5 -204.5t144.5 -74.5z" />
    <glyph glyph-name="Otilde" unicode="&#xd5;" horiz-adv-x="769" 
d="M271 777l-50 9q-4 52 20.5 86t68.5 34q30 0 78 -20.5t65 -20.5q35 0 40 45l51 -10q2 -53 -21.5 -86.5t-68.5 -33.5q-30 0 -78 20.5t-64 20.5q-34 0 -41 -44zM385 -16q-81 0 -145.5 31.5t-103.5 85t-59 119.5t-20 138t20 138t59 119.5t103.5 85t145.5 31.5q65 0 120 -21
t92.5 -56.5t64 -83.5t38.5 -102t12 -111t-12 -111t-38.5 -102t-64 -83.5t-92.5 -56.5t-120 -21zM385 79q192 0 192 279q0 133 -47.5 206t-144.5 73q-96 0 -144.5 -75t-48.5 -204q0 -130 48.5 -204.5t144.5 -74.5z" />
    <glyph glyph-name="Odieresis" unicode="&#xd6;" horiz-adv-x="769" 
d="M232 793v108h112v-108h-112zM426 793v108h112v-108h-112zM385 -16q-81 0 -145.5 31.5t-103.5 85t-59 119.5t-20 138t20 138t59 119.5t103.5 85t145.5 31.5q65 0 120 -21t92.5 -56.5t64 -83.5t38.5 -102t12 -111t-12 -111t-38.5 -102t-64 -83.5t-92.5 -56.5t-120 -21z
M385 79q192 0 192 279q0 133 -47.5 206t-144.5 73q-96 0 -144.5 -75t-48.5 -204q0 -130 48.5 -204.5t144.5 -74.5z" />
    <glyph glyph-name="multiply" unicode="&#xd7;" horiz-adv-x="553" 
d="M118 87l-65 65l161 160l-155 153l65 65l153 -156l153 156l65 -65l-156 -153l161 -160l-65 -65l-158 161z" />
    <glyph glyph-name="Oslash" unicode="&#xd8;" horiz-adv-x="773" 
d="M188 358q0 -99 23 -162l310 397q-48 50 -135 50q-95 0 -146.5 -78t-51.5 -207zM386 74q97 0 148 75.5t51 208.5q0 102 -23 164l-309 -396q46 -52 133 -52zM387 -16q-113 0 -195 64l-72 -92l-58 49l76 97q-82 105 -82 256q0 72 20.5 138t60 119.5t104.5 85t146 31.5
q112 0 194 -63l68 88l58 -49l-73 -93q82 -105 82 -257q0 -72 -20.5 -138t-59.5 -119.5t-103.5 -85t-145.5 -31.5z" />
    <glyph glyph-name="Ugrave" unicode="&#xd9;" horiz-adv-x="699" 
d="M409 779h-93l-105 128h136zM348 -15q-131 0 -200.5 63.5t-69.5 179.5v488h127v-472q0 -81 35.5 -121.5t116.5 -40.5q82 0 118 40.5t36 121.5v472h110v-486q0 -115 -70 -180t-203 -65z" />
    <glyph glyph-name="Uacute" unicode="&#xda;" horiz-adv-x="699" 
d="M395 779h-92l62 128h135zM348 -15q-131 0 -200.5 63.5t-69.5 179.5v488h127v-472q0 -81 35.5 -121.5t116.5 -40.5q82 0 118 40.5t36 121.5v472h110v-486q0 -115 -70 -180t-203 -65z" />
    <glyph glyph-name="Ucircumflex" unicode="&#xdb;" horiz-adv-x="699" 
d="M407 779l-59 61l-60 -61h-102l115 122h98l115 -122h-107zM348 -15q-131 0 -200.5 63.5t-69.5 179.5v488h127v-472q0 -81 35.5 -121.5t116.5 -40.5q82 0 118 40.5t36 121.5v472h110v-486q0 -115 -70 -180t-203 -65z" />
    <glyph glyph-name="Udieresis" unicode="&#xdc;" horiz-adv-x="699" 
d="M348 -15q-131 0 -200.5 63.5t-69.5 179.5v488h127v-472q0 -81 35.5 -121.5t116.5 -40.5q82 0 118 40.5t36 121.5v472h110v-486q0 -115 -70 -180t-203 -65zM196 793v108h112v-108h-112zM390 793v108h112v-108h-112z" />
    <glyph glyph-name="Yacute" unicode="&#xdd;" horiz-adv-x="615" 
d="M369 0h-127v306l-222 410h136l159 -304h6l160 304h114l-226 -410v-306zM354 779h-92l62 128h135z" />
    <glyph glyph-name="Thorn" unicode="&#xde;" horiz-adv-x="642" 
d="M90 0v716h126v-135h135q126 0 189 -54.5t63 -155.5q0 -103 -64 -156.5t-188 -53.5h-137v-161h-124zM216 252h128q68 0 99.5 29t31.5 89q0 61 -31.5 90.5t-99.5 29.5h-128v-238z" />
    <glyph glyph-name="germandbls" unicode="&#xdf;" horiz-adv-x="610" 
d="M405 -10q-77 0 -119 43t-48 114l79 23q2 -48 26.5 -78t62.5 -30q28 0 46 17.5t18 47.5q0 31 -21 53t-68 55q-56 40 -82 74.5t-26 79.5q0 64 70 127q59 54 59 104q0 36 -26.5 60t-70.5 24q-114 0 -114 -165v-539h-118v548q0 117 62.5 175.5t164.5 58.5q92 0 150.5 -42.5
t58.5 -113.5q0 -63 -54 -120q-8 -9 -25 -26t-25 -25.5t-15 -22t-7 -25.5q0 -24 18 -43t64 -52q56 -40 84 -75.5t28 -88.5q0 -67 -47 -112.5t-125 -45.5z" />
    <glyph glyph-name="agrave" unicode="&#xe0;" horiz-adv-x="563" 
d="M199 -10q-68 0 -107.5 37.5t-39.5 98.5q0 34 12 60t36.5 44t44 28t53.5 23q24 10 75.5 28t70.5 26v37q0 88 -78 88q-45 0 -68 -26t-32 -81l-96 13q11 86 64 127.5t138 41.5q191 0 191 -162v-249q0 -39 25 -53q16 -11 55 -11v-57q-24 -13 -69 -13q-107 0 -116 98h-8
q-42 -98 -151 -98zM241 64q47 0 75 30t28 78v96q-3 -1 -38 -14.5t-62 -25.5q-36 -15 -56 -34.5t-20 -56.5q0 -73 73 -73zM240 590l-87 145h114l54 -145h-81z" />
    <glyph glyph-name="aacute" unicode="&#xe1;" horiz-adv-x="563" 
d="M199 -10q-68 0 -107.5 37.5t-39.5 98.5q0 34 12 60t36.5 44t44 28t53.5 23q24 10 75.5 28t70.5 26v37q0 88 -78 88q-45 0 -68 -26t-32 -81l-96 13q11 86 64 127.5t138 41.5q191 0 191 -162v-249q0 -39 25 -53q16 -11 55 -11v-57q-24 -13 -69 -13q-107 0 -116 98h-8
q-42 -98 -151 -98zM241 64q47 0 75 30t28 78v96q-3 -1 -38 -14.5t-62 -25.5q-36 -15 -56 -34.5t-20 -56.5q0 -73 73 -73zM308 590h-82l53 145h115z" />
    <glyph glyph-name="acircumflex" unicode="&#xe2;" horiz-adv-x="563" 
d="M199 -10q-68 0 -107.5 37.5t-39.5 98.5q0 34 12 60t36.5 44t44 28t53.5 23q24 10 75.5 28t70.5 26v37q0 88 -78 88q-45 0 -68 -26t-32 -81l-96 13q11 86 64 127.5t138 41.5q191 0 191 -162v-249q0 -39 25 -53q16 -11 55 -11v-57q-24 -13 -69 -13q-107 0 -116 98h-8
q-42 -98 -151 -98zM241 64q47 0 75 30t28 78v96q-3 -1 -38 -14.5t-62 -25.5q-36 -15 -56 -34.5t-20 -56.5q0 -73 73 -73zM321 590l-49 76l-49 -76h-90l93 135h94l93 -135h-92z" />
    <glyph glyph-name="atilde" unicode="&#xe3;" horiz-adv-x="563" 
d="M199 -10q-68 0 -107.5 37.5t-39.5 98.5q0 34 12 60t36.5 44t44 28t53.5 23q24 10 75.5 28t70.5 26v37q0 88 -78 88q-45 0 -68 -26t-32 -81l-96 13q11 86 64 127.5t138 41.5q191 0 191 -162v-249q0 -39 25 -53q16 -11 55 -11v-57q-24 -13 -69 -13q-107 0 -116 98h-8
q-42 -98 -151 -98zM241 64q47 0 75 30t28 78v96q-3 -1 -38 -14.5t-62 -25.5q-36 -15 -56 -34.5t-20 -56.5q0 -73 73 -73zM213 636q-30 0 -35 -40l-46 13q-3 47 19.5 78t63.5 31q23 0 61 -19t54 -19q29 0 34 41l46 -14q3 -48 -19 -78.5t-64 -30.5q-23 0 -61 19t-53 19z" />
    <glyph glyph-name="adieresis" unicode="&#xe4;" horiz-adv-x="563" 
d="M199 -10q-68 0 -107.5 37.5t-39.5 98.5q0 34 12 60t36.5 44t44 28t53.5 23q24 10 75.5 28t70.5 26v37q0 88 -78 88q-45 0 -68 -26t-32 -81l-96 13q11 86 64 127.5t138 41.5q191 0 191 -162v-249q0 -39 25 -53q16 -11 55 -11v-57q-24 -13 -69 -13q-107 0 -116 98h-8
q-42 -98 -151 -98zM241 64q47 0 75 30t28 78v96q-3 -1 -38 -14.5t-62 -25.5q-36 -15 -56 -34.5t-20 -56.5q0 -73 73 -73zM135 606v106h103v-106h-103zM304 606v106h103v-106h-103z" />
    <glyph glyph-name="aring" unicode="&#xe5;" horiz-adv-x="563" 
d="M199 -10q-68 0 -107.5 37.5t-39.5 98.5q0 34 12 60t36.5 44t44 28t53.5 23q24 10 75.5 28t70.5 26v37q0 88 -78 88q-45 0 -68 -26t-32 -81l-96 13q11 86 64 127.5t138 41.5q191 0 191 -162v-249q0 -39 25 -53q16 -11 55 -11v-57q-24 -13 -69 -13q-107 0 -116 98h-8
q-42 -98 -151 -98zM241 64q47 0 75 30t28 78v96q-3 -1 -38 -14.5t-62 -25.5q-36 -15 -56 -34.5t-20 -56.5q0 -73 73 -73zM379 679q0 -44 -28.5 -70.5t-75.5 -26.5q-46 0 -75 26.5t-29 70.5q0 45 29 72.5t75 27.5q47 0 75.5 -27.5t28.5 -72.5zM231 680q0 -22 12 -34t32 -12
t32 12t12 34t-12 34t-32 12t-32 -12t-12 -34z" />
    <glyph glyph-name="ae" unicode="&#xe6;" horiz-adv-x="861" 
d="M586 459q-102 0 -114 -147h223q-3 77 -28 112t-81 35zM240 64q48 0 76 30t28 78v96q-3 -1 -38 -14.5t-62 -25.5q-36 -15 -56 -34.5t-20 -55.5q0 -34 18 -54t54 -20zM731 195l84 -32q-45 -173 -219 -173q-159 0 -221 131h-7q-17 -63 -62 -97t-105 -34q-70 0 -109.5 37.5
t-39.5 102.5q0 33 12 58t36.5 43t44 27.5t53.5 22.5q24 10 75.5 28t70.5 26v37q0 88 -78 88q-45 0 -68 -26t-32 -81l-96 13q21 169 199 169q115 0 153 -69q63 69 164 69q114 0 173.5 -77.5t59.5 -207.5h-349q2 -89 33.5 -136t100.5 -47q97 0 127 128z" />
    <glyph glyph-name="ccedilla" unicode="&#xe7;" horiz-adv-x="548" 
d="M299 -242q-70 0 -118 42l28 47q36 -34 80 -34t44 41q0 35 -35 35q-26 0 -39 -24l-53 18l43 109q-34 4 -64 17q-67 30 -102 95.5t-35 158.5q0 123 67.5 198t177.5 75q176 0 212 -166l-87 -33q-14 59 -40.5 90.5t-81.5 31.5q-59 0 -90.5 -51.5t-31.5 -144.5
q0 -196 124 -196q96 0 120 130l88 -34q-31 -121 -131 -159q-27 -10 -64 -13l-21 -55q16 6 36 6q39 0 65.5 -23.5t26.5 -62.5q0 -46 -35.5 -72t-83.5 -26z" />
    <glyph glyph-name="egrave" unicode="&#xe8;" horiz-adv-x="565" 
d="M290 459q-103 0 -114 -147h222q-2 76 -27.5 111.5t-80.5 35.5zM435 195l84 -32q-45 -173 -219 -173q-119 0 -185.5 74t-66.5 199q0 111 65 191.5t176 80.5q114 0 174 -77.5t60 -207.5h-349q5 -183 133 -183q56 0 85 34.5t43 93.5zM259 590l-87 145h114l54 -145h-81z" />
    <glyph glyph-name="eacute" unicode="&#xe9;" horiz-adv-x="565" 
d="M326 590h-82l53 145h115zM290 459q-103 0 -114 -147h222q-2 76 -27.5 111.5t-80.5 35.5zM435 195l84 -32q-45 -173 -219 -173q-119 0 -185.5 74t-66.5 199q0 111 65 191.5t176 80.5q114 0 174 -77.5t60 -207.5h-349q5 -183 133 -183q56 0 85 34.5t43 93.5z" />
    <glyph glyph-name="ecircumflex" unicode="&#xea;" horiz-adv-x="565" 
d="M339 590l-49 76l-49 -76h-90l93 135h94l93 -135h-92zM290 459q-103 0 -114 -147h222q-2 76 -27.5 111.5t-80.5 35.5zM435 195l84 -32q-45 -173 -219 -173q-119 0 -185.5 74t-66.5 199q0 111 65 191.5t176 80.5q114 0 174 -77.5t60 -207.5h-349q5 -183 133 -183
q56 0 85 34.5t43 93.5z" />
    <glyph glyph-name="edieresis" unicode="&#xeb;" horiz-adv-x="565" 
d="M154 606v106h103v-106h-103zM323 606v106h103v-106h-103zM290 459q-103 0 -114 -147h222q-2 76 -27.5 111.5t-80.5 35.5zM435 195l84 -32q-45 -173 -219 -173q-119 0 -185.5 74t-66.5 199q0 111 65 191.5t176 80.5q114 0 174 -77.5t60 -207.5h-349q5 -183 133 -183
q56 0 85 34.5t43 93.5z" />
    <glyph glyph-name="igrave" unicode="&#xec;" horiz-adv-x="266" 
d="M73 0v525h119v-525h-119zM104 590l-87 145h114l54 -145h-81z" />
    <glyph glyph-name="iacute" unicode="&#xed;" horiz-adv-x="266" 
d="M172 590h-82l53 145h115zM73 0v525h119v-525h-119z" />
    <glyph glyph-name="icircumflex" unicode="&#xee;" horiz-adv-x="266" 
d="M184 590l-49 76l-49 -76h-90l93 135h94l93 -135h-92zM73 0v525h119v-525h-119z" />
    <glyph glyph-name="idieresis" unicode="&#xef;" horiz-adv-x="266" 
d="M-1 606v106h103v-106h-103zM168 606v106h103v-106h-103zM73 0v525h119v-525h-119z" />
    <glyph glyph-name="eth" unicode="&#xf0;" horiz-adv-x="581" 
d="M290 -10q-117 0 -179.5 79t-62.5 194q0 114 57.5 193t163.5 79q92 0 139 -79l5 2q-23 121 -102 188l-147 -82l-31 54l120 67q-53 29 -132 42l12 65q121 -13 205 -59l100 56l31 -55l-74 -41q135 -120 135 -372q0 -157 -62 -244t-178 -87zM174 263q0 -101 28 -149t88 -48
t88 48.5t28 148.5q0 196 -116 196t-116 -196z" />
    <glyph glyph-name="ntilde" unicode="&#xf1;" horiz-adv-x="583" 
d="M73 0v525h105l10 -128h2q25 71 73.5 104.5t107.5 33.5q141 0 141 -152v-383h-119v356q0 51 -16.5 72t-55.5 21q-56 0 -92.5 -50.5t-36.5 -127.5v-271h-119zM237 636q-30 0 -35 -40l-46 13q-3 47 19.5 78t63.5 31q23 0 61 -19t54 -19q29 0 34 41l46 -14q3 -48 -19 -78.5
t-64 -30.5q-23 0 -61 19t-53 19z" />
    <glyph glyph-name="ograve" unicode="&#xf2;" horiz-adv-x="580" 
d="M532 263q0 -115 -62.5 -194t-179.5 -79t-179.5 79t-62.5 194t62.5 193.5t179.5 78.5t179.5 -78.5t62.5 -193.5zM174 263q0 -101 28 -149t88 -48t88 48.5t28 148.5t-28 148t-88 48t-88 -48t-28 -148zM258 590l-87 145h114l54 -145h-81z" />
    <glyph glyph-name="oacute" unicode="&#xf3;" horiz-adv-x="580" 
d="M326 590h-82l53 145h115zM532 263q0 -115 -62.5 -194t-179.5 -79t-179.5 79t-62.5 194t62.5 193.5t179.5 78.5t179.5 -78.5t62.5 -193.5zM174 263q0 -101 28 -149t88 -48t88 48.5t28 148.5t-28 148t-88 48t-88 -48t-28 -148z" />
    <glyph glyph-name="ocircumflex" unicode="&#xf4;" horiz-adv-x="580" 
d="M339 590l-49 76l-49 -76h-90l93 135h94l93 -135h-92zM532 263q0 -115 -62.5 -194t-179.5 -79t-179.5 79t-62.5 194t62.5 193.5t179.5 78.5t179.5 -78.5t62.5 -193.5zM174 263q0 -101 28 -149t88 -48t88 48.5t28 148.5t-28 148t-88 48t-88 -48t-28 -148z" />
    <glyph glyph-name="otilde" unicode="&#xf5;" horiz-adv-x="580" 
d="M532 263q0 -115 -62.5 -194t-179.5 -79t-179.5 79t-62.5 194t62.5 193.5t179.5 78.5t179.5 -78.5t62.5 -193.5zM174 263q0 -101 28 -149t88 -48t88 48.5t28 148.5t-28 148t-88 48t-88 -48t-28 -148zM231 636q-30 0 -35 -40l-46 13q-3 47 19.5 78t63.5 31q23 0 61 -19
t54 -19q29 0 34 41l46 -14q3 -48 -19 -78.5t-64 -30.5q-23 0 -61 19t-53 19z" />
    <glyph glyph-name="odieresis" unicode="&#xf6;" horiz-adv-x="580" 
d="M154 606v106h103v-106h-103zM323 606v106h103v-106h-103zM532 263q0 -115 -62.5 -194t-179.5 -79t-179.5 79t-62.5 194t62.5 193.5t179.5 78.5t179.5 -78.5t62.5 -193.5zM174 263q0 -101 28 -149t88 -48t88 48.5t28 148.5t-28 148t-88 48t-88 -48t-28 -148z" />
    <glyph glyph-name="divide" unicode="&#xf7;" horiz-adv-x="544" 
d="M217 449v118h110v-118h-110zM52 276v92h440v-92h-440zM217 77v118h111v-118h-111z" />
    <glyph glyph-name="oslash" unicode="&#xf8;" horiz-adv-x="580" 
d="M167 263q0 -49 8 -92l202 251q-30 41 -87 41q-64 0 -93.5 -49.5t-29.5 -150.5zM290 62q123 0 123 201q0 54 -9 93l-203 -251q31 -43 89 -43zM290 -10q-86 0 -145 46l-59 -73l-46 41l62 76q-54 74 -54 183q0 115 62.5 193.5t179.5 78.5q85 0 143 -44l55 68l47 -42l-57 -71
q54 -73 54 -183q0 -115 -62.5 -194t-179.5 -79z" />
    <glyph glyph-name="ugrave" unicode="&#xf9;" horiz-adv-x="579" 
d="M218 -10q-77 0 -113 42t-36 110v383h119v-356q0 -50 19.5 -71.5t59.5 -21.5q52 0 86 53.5t34 138.5v257h119v-525h-98l-17 123h-3q-47 -133 -170 -133zM256 590l-87 145h114l54 -145h-81z" />
    <glyph glyph-name="uacute" unicode="&#xfa;" horiz-adv-x="579" 
d="M324 590h-82l53 145h115zM218 -10q-77 0 -113 42t-36 110v383h119v-356q0 -50 19.5 -71.5t59.5 -21.5q52 0 86 53.5t34 138.5v257h119v-525h-98l-17 123h-3q-47 -133 -170 -133z" />
    <glyph glyph-name="ucircumflex" unicode="&#xfb;" horiz-adv-x="579" 
d="M337 590l-49 76l-49 -76h-90l93 135h94l93 -135h-92zM218 -10q-77 0 -113 42t-36 110v383h119v-356q0 -50 19.5 -71.5t59.5 -21.5q52 0 86 53.5t34 138.5v257h119v-525h-98l-17 123h-3q-47 -133 -170 -133z" />
    <glyph glyph-name="udieresis" unicode="&#xfc;" horiz-adv-x="579" 
d="M151 606v106h103v-106h-103zM320 606v106h103v-106h-103zM218 -10q-77 0 -113 42t-36 110v383h119v-356q0 -50 19.5 -71.5t59.5 -21.5q52 0 86 53.5t34 138.5v257h119v-525h-98l-17 123h-3q-47 -133 -170 -133z" />
    <glyph glyph-name="yacute" unicode="&#xfd;" horiz-adv-x="504" 
d="M34 -227v84q55 0 88 11q38 14 59 75l19 55l-185 527h128l114 -379h3l124 379h105l-209 -592q-23 -65 -45.5 -97t-69.5 -49q-37 -14 -131 -14zM290 590h-82l53 145h115z" />
    <glyph glyph-name="thorn" unicode="&#xfe;" horiz-adv-x="613" 
d="M322 67q116 0 116 190q0 197 -119 197q-56 0 -89.5 -51t-33.5 -147t37.5 -142.5t88.5 -46.5zM191 406h5q42 129 159 129q100 0 154 -74.5t54 -198.5q0 -129 -58.5 -200.5t-158.5 -71.5q-103 0 -147 97h-8v-314h-118v1009h118v-376z" />
    <glyph glyph-name="ydieresis" unicode="&#xff;" horiz-adv-x="504" 
d="M34 -227v84q55 0 88 11q38 14 59 75l19 55l-185 527h128l114 -379h3l124 379h105l-209 -592q-23 -65 -45.5 -97t-69.5 -49q-37 -14 -131 -14zM118 606v106h103v-106h-103zM287 606v106h103v-106h-103z" />
    <glyph glyph-name="Amacron" unicode="&#x100;" horiz-adv-x="665" 
d="M325 549l-100 -304h205l-98 304h-7zM509 0l-48 150h-267l-49 -150h-120l252 720h116l247 -720h-131zM185 800v88h296v-88h-296z" />
    <glyph glyph-name="amacron" unicode="&#x101;" horiz-adv-x="563" 
d="M199 -10q-68 0 -107.5 37.5t-39.5 98.5q0 34 12 60t36.5 44t44 28t53.5 23q24 10 75.5 28t70.5 26v37q0 88 -78 88q-45 0 -68 -26t-32 -81l-96 13q11 86 64 127.5t138 41.5q191 0 191 -162v-249q0 -39 25 -53q16 -11 55 -11v-57q-24 -13 -69 -13q-107 0 -116 98h-8
q-42 -98 -151 -98zM241 64q47 0 75 30t28 78v96q-3 -1 -38 -14.5t-62 -25.5q-36 -15 -56 -34.5t-20 -56.5q0 -73 73 -73zM146 607v82h250v-82h-250z" />
    <glyph glyph-name="Abreve" unicode="&#x102;" horiz-adv-x="665" 
d="M325 549l-100 -304h205l-98 304h-7zM509 0l-48 150h-267l-49 -150h-120l252 720h116l247 -720h-131zM333 777q-118 0 -153 112l51 27q33 -50 102 -50t102 50l51 -27q-35 -112 -153 -112z" />
    <glyph glyph-name="abreve" unicode="&#x103;" horiz-adv-x="563" 
d="M199 -10q-68 0 -107.5 37.5t-39.5 98.5q0 34 12 60t36.5 44t44 28t53.5 23q24 10 75.5 28t70.5 26v37q0 88 -78 88q-45 0 -68 -26t-32 -81l-96 13q11 86 64 127.5t138 41.5q191 0 191 -162v-249q0 -39 25 -53q16 -11 55 -11v-57q-24 -13 -69 -13q-107 0 -116 98h-8
q-42 -98 -151 -98zM241 64q47 0 75 30t28 78v96q-3 -1 -38 -14.5t-62 -25.5q-36 -15 -56 -34.5t-20 -56.5q0 -73 73 -73zM271 592q-113 0 -136 114l55 21q23 -54 81 -54t81 54l55 -21q-23 -114 -136 -114z" />
    <glyph glyph-name="Aogonek" unicode="&#x104;" horiz-adv-x="665" 
d="M567 -232q-46 0 -74.5 22t-28.5 63q0 80 117 147h-72l-48 150h-267l-49 -150h-120l252 720h116l247 -720q-82 -63 -82 -122q0 -42 40 -42q11 0 27 6l13 -55q-29 -19 -71 -19zM325 549l-100 -304h205l-98 304h-7z" />
    <glyph glyph-name="aogonek" unicode="&#x105;" horiz-adv-x="563" 
d="M471 -229q-46 0 -74.5 22t-28.5 63q0 44 33 81q26 29 62 53q-97 4 -105 98h-8q-42 -98 -151 -98q-68 0 -107.5 37.5t-39.5 98.5q0 34 12 60t36.5 44t44 28t53.5 23q24 10 75.5 28t70.5 26v37q0 88 -78 88q-45 0 -68 -26t-32 -81l-96 13q11 86 64 127.5t138 41.5
q191 0 191 -162v-249q0 -39 25 -53q16 -11 55 -11v-57h1q-82 -63 -82 -122q0 -42 40 -42q11 0 27 6l13 -55q-29 -19 -71 -19zM241 64q47 0 75 30t28 78v96q-3 -1 -38 -14.5t-62 -25.5q-36 -15 -56 -34.5t-20 -56.5q0 -73 73 -73z" />
    <glyph glyph-name="Cacute" unicode="&#x106;" horiz-adv-x="706" 
d="M373 -16q-79 0 -141 30.5t-99.5 83.5t-56.5 119t-19 141q0 101 32.5 183.5t106.5 136.5t179 54q124 0 195 -68t94 -187l-116 -29q-13 94 -54 141.5t-117 47.5q-89 0 -137 -74t-48 -205t48 -205t137 -74q142 0 173 190l115 -31q-58 -254 -292 -254zM417 779h-92l62 128
h135z" />
    <glyph glyph-name="cacute" unicode="&#x107;" horiz-adv-x="548" 
d="M327 590h-82l53 145h115zM288 -10q-115 0 -177.5 74t-62.5 199q0 123 67.5 198t177.5 75q176 0 212 -166l-87 -33q-14 59 -40.5 90.5t-81.5 31.5q-59 0 -90.5 -51.5t-31.5 -144.5q0 -196 124 -196q96 0 120 130l88 -34q-45 -173 -218 -173z" />
    <glyph glyph-name="Ccircumflex" unicode="&#x108;" horiz-adv-x="706" 
d="M429 779l-59 61l-60 -61h-102l115 122h98l115 -122h-107zM373 -16q-79 0 -141 30.5t-99.5 83.5t-56.5 119t-19 141q0 101 32.5 183.5t106.5 136.5t179 54q124 0 195 -68t94 -187l-116 -29q-13 94 -54 141.5t-117 47.5q-89 0 -137 -74t-48 -205t48 -205t137 -74
q142 0 173 190l115 -31q-58 -254 -292 -254z" />
    <glyph glyph-name="ccircumflex" unicode="&#x109;" horiz-adv-x="548" 
d="M340 590l-49 76l-49 -76h-90l93 135h94l93 -135h-92zM288 -10q-115 0 -177.5 74t-62.5 199q0 123 67.5 198t177.5 75q176 0 212 -166l-87 -33q-14 59 -40.5 90.5t-81.5 31.5q-59 0 -90.5 -51.5t-31.5 -144.5q0 -196 124 -196q96 0 120 130l88 -34q-45 -173 -218 -173z
" />
    <glyph glyph-name="Cdotaccent" unicode="&#x10a;" horiz-adv-x="706" 
d="M373 -16q-79 0 -141 30.5t-99.5 83.5t-56.5 119t-19 141q0 101 32.5 183.5t106.5 136.5t179 54q124 0 195 -68t94 -187l-116 -29q-13 94 -54 141.5t-117 47.5q-89 0 -137 -74t-48 -205t48 -205t137 -74q142 0 173 190l115 -31q-58 -254 -292 -254zM309 793v112h123v-112
h-123z" />
    <glyph glyph-name="cdotaccent" unicode="&#x10b;" horiz-adv-x="548" 
d="M288 -10q-115 0 -177.5 74t-62.5 199q0 123 67.5 198t177.5 75q176 0 212 -166l-87 -33q-14 59 -40.5 90.5t-81.5 31.5q-59 0 -90.5 -51.5t-31.5 -144.5q0 -196 124 -196q96 0 120 130l88 -34q-45 -173 -218 -173zM233 605v111h115v-111h-115z" />
    <glyph glyph-name="Ccaron" unicode="&#x10c;" horiz-adv-x="706" 
d="M427 778h-98l-115 122h107l59 -61l60 61h102zM373 -16q-79 0 -141 30.5t-99.5 83.5t-56.5 119t-19 141q0 101 32.5 183.5t106.5 136.5t179 54q124 0 195 -68t94 -187l-116 -29q-13 94 -54 141.5t-117 47.5q-89 0 -137 -74t-48 -205t48 -205t137 -74q142 0 173 190
l115 -31q-58 -254 -292 -254z" />
    <glyph glyph-name="ccaron" unicode="&#x10d;" horiz-adv-x="548" 
d="M248 590l-93 135h92l49 -76l49 76h90l-93 -135h-94zM288 -10q-115 0 -177.5 74t-62.5 199q0 123 67.5 198t177.5 75q176 0 212 -166l-87 -33q-14 59 -40.5 90.5t-81.5 31.5q-59 0 -90.5 -51.5t-31.5 -144.5q0 -196 124 -196q96 0 120 130l88 -34q-45 -173 -218 -173z" />
    <glyph glyph-name="Dcaron" unicode="&#x10e;" horiz-adv-x="737" 
d="M415 778h-98l-115 122h107l59 -61l60 61h102zM90 0v716h249q169 0 255 -93.5t86 -264.5t-86 -264.5t-255 -93.5h-249zM216 92h119q108 0 159 60.5t51 205.5q0 266 -210 266h-119v-532z" />
    <glyph glyph-name="dcaron" unicode="&#x10f;" horiz-adv-x="613" 
d="M611 782h93l-42 -172h-70zM294 65q122 0 122 199q0 95 -32 145t-85 50q-58 0 -91 -49t-33 -146q0 -98 31.5 -148.5t87.5 -50.5zM266 -10q-103 0 -159.5 75t-56.5 198q0 128 61 200t160 72q49 0 88 -25t56 -72h8v344h117v-788h-81l-35 101h-7q-21 -49 -59.5 -77t-91.5 -28
z" />
    <glyph glyph-name="Dcroat" unicode="&#x110;" horiz-adv-x="753" 
d="M28 319v88h360v-88h-360zM106 0v716h249q169 0 255 -93.5t86 -264.5t-86 -264.5t-255 -93.5h-249zM232 92h119q108 0 159 60.5t51 205.5q0 266 -210 266h-119v-532z" />
    <glyph glyph-name="dslash" unicode="&#x111;" horiz-adv-x="613" 
d="M308 613v73h305v-73h-305zM294 65q122 0 122 199q0 95 -32 145t-85 50q-58 0 -91 -49t-33 -146q0 -98 31.5 -148.5t87.5 -50.5zM266 -10q-103 0 -159.5 75t-56.5 198q0 128 61 200t160 72q49 0 88 -25t56 -72h8v344h117v-788h-81l-35 101h-7q-21 -49 -59.5 -77t-91.5 -28
z" />
    <glyph glyph-name="Emacron" unicode="&#x112;" horiz-adv-x="615" 
d="M90 0v716h452v-92h-326v-218h254v-93h-254v-221h360v-92h-486zM179 800v88h296v-88h-296z" />
    <glyph glyph-name="emacron" unicode="&#x113;" horiz-adv-x="565" 
d="M290 459q-103 0 -114 -147h222q-2 76 -27.5 111.5t-80.5 35.5zM435 195l84 -32q-45 -173 -219 -173q-119 0 -185.5 74t-66.5 199q0 111 65 191.5t176 80.5q114 0 174 -77.5t60 -207.5h-349q5 -183 133 -183q56 0 85 34.5t43 93.5zM165 607v82h250v-82h-250z" />
    <glyph glyph-name="Ebreve" unicode="&#x114;" horiz-adv-x="615" 
d="M90 0v716h452v-92h-326v-218h254v-93h-254v-221h360v-92h-486zM327 777q-118 0 -153 112l51 27q33 -50 102 -50t102 50l51 -27q-35 -112 -153 -112z" />
    <glyph glyph-name="ebreve" unicode="&#x115;" horiz-adv-x="565" 
d="M290 459q-103 0 -114 -147h222q-2 76 -27.5 111.5t-80.5 35.5zM435 195l84 -32q-45 -173 -219 -173q-119 0 -185.5 74t-66.5 199q0 111 65 191.5t176 80.5q114 0 174 -77.5t60 -207.5h-349q5 -183 133 -183q56 0 85 34.5t43 93.5zM290 592q-113 0 -136 114l55 21
q23 -54 81 -54t81 54l55 -21q-23 -114 -136 -114z" />
    <glyph glyph-name="Edotaccent" unicode="&#x116;" horiz-adv-x="615" 
d="M265 793v112h123v-112h-123zM90 0v716h452v-92h-326v-218h254v-93h-254v-221h360v-92h-486z" />
    <glyph glyph-name="edotaccent" unicode="&#x117;" horiz-adv-x="565" 
d="M290 459q-103 0 -114 -147h222q-2 76 -27.5 111.5t-80.5 35.5zM435 195l84 -32q-45 -173 -219 -173q-119 0 -185.5 74t-66.5 199q0 111 65 191.5t176 80.5q114 0 174 -77.5t60 -207.5h-349q5 -183 133 -183q56 0 85 34.5t43 93.5zM232 605v111h115v-111h-115z" />
    <glyph glyph-name="Eogonek" unicode="&#x118;" horiz-adv-x="615" 
d="M90 0v716h452v-92h-326v-218h254v-93h-254v-221h360v-92h-61q-82 -63 -82 -122q0 -42 40 -42q11 0 27 6l13 -55q-29 -19 -71 -19q-46 0 -74.5 22t-28.5 63q0 80 117 147h-366z" />
    <glyph glyph-name="eogonek" unicode="&#x119;" horiz-adv-x="565" 
d="M357 -232q-46 0 -74.5 22t-28.5 63q0 71 96 142q-22 -5 -50 -5q-119 0 -185.5 74t-66.5 199q0 111 65 191.5t176 80.5q114 0 174 -77.5t60 -207.5h-349q5 -183 133 -183q56 0 85 34.5t43 93.5l84 -32q-20 -77 -74 -134q-5 -5 -21.5 -22t-21.5 -22.5t-17 -19t-16.5 -21
t-11 -19t-8.5 -22t-2 -21.5q0 -46 41 -46q11 0 27 6l13 -55q-29 -19 -71 -19zM290 459q-103 0 -115 -147h223q-2 76 -27.5 111.5t-80.5 35.5z" />
    <glyph glyph-name="Ecaron" unicode="&#x11a;" horiz-adv-x="615" 
d="M377 778h-98l-115 122h107l59 -61l60 61h102zM90 0v716h452v-92h-326v-218h254v-93h-254v-221h360v-92h-486z" />
    <glyph glyph-name="ecaron" unicode="&#x11b;" horiz-adv-x="565" 
d="M247 590l-93 135h92l49 -76l49 76h90l-93 -135h-94zM290 459q-103 0 -114 -147h222q-2 76 -27.5 111.5t-80.5 35.5zM435 195l84 -32q-45 -173 -219 -173q-119 0 -185.5 74t-66.5 199q0 111 65 191.5t176 80.5q114 0 174 -77.5t60 -207.5h-349q5 -183 133 -183
q56 0 85 34.5t43 93.5z" />
    <glyph glyph-name="Gcircumflex" unicode="&#x11c;" horiz-adv-x="752" 
d="M447 779l-59 61l-60 -61h-102l115 122h98l115 -122h-107zM377 -16q-79 0 -141.5 30.5t-100.5 83.5t-58 119t-20 141q0 101 35.5 184t111.5 136.5t181 53.5q123 0 189 -52.5t94 -154.5l-109 -29q-16 74 -56 107.5t-115 33.5q-90 0 -143 -75t-53 -204t52.5 -204t138.5 -75
q81 0 130 44.5t49 119.5v35h-148v90h260v-368h-70l-13 117h-4q-22 -64 -76 -98.5t-134 -34.5z" />
    <glyph glyph-name="gcircumflex" unicode="&#x11d;" horiz-adv-x="590" 
d="M333 590l-49 76l-49 -76h-90l93 135h94l93 -135h-92zM273 173q101 0 101 144t-101 144q-102 0 -102 -144t102 -144zM278 -273q-243 0 -269 145l100 12q26 -90 169 -90q174 0 174 83q0 30 -18.5 43.5t-60.5 13.5h-187q-132 0 -132 107q0 72 83 100v3q-78 63 -78 173
q0 97 59.5 157.5t154.5 60.5q125 0 182 -105h4q0 57 25.5 81t56.5 24t51 -15l-6 -84q-21 9 -37 9q-36 0 -49.5 -29.5t-13.5 -91.5q0 -102 -58 -163.5t-155 -61.5q-50 0 -93 20q-34 -16 -34 -49q0 -41 51 -41h207q157 0 157 -132q0 -80 -70 -125t-213 -45z" />
    <glyph glyph-name="Gbreve" unicode="&#x11e;" horiz-adv-x="752" 
d="M389 777q-118 0 -153 112l51 27q33 -50 102 -50t102 50l51 -27q-35 -112 -153 -112zM377 -16q-79 0 -141.5 30.5t-100.5 83.5t-58 119t-20 141q0 101 35.5 184t111.5 136.5t181 53.5q123 0 189 -52.5t94 -154.5l-109 -29q-16 74 -56 107.5t-115 33.5q-90 0 -143 -75
t-53 -204t52.5 -204t138.5 -75q81 0 130 44.5t49 119.5v35h-148v90h260v-368h-70l-13 117h-4q-22 -64 -76 -98.5t-134 -34.5z" />
    <glyph glyph-name="gbreve" unicode="&#x11f;" horiz-adv-x="590" 
d="M273 173q101 0 101 144t-101 144q-102 0 -102 -144t102 -144zM278 -273q-243 0 -269 145l100 12q26 -90 169 -90q174 0 174 83q0 30 -18.5 43.5t-60.5 13.5h-187q-132 0 -132 107q0 72 83 100v3q-78 63 -78 173q0 97 59.5 157.5t154.5 60.5q125 0 182 -105h4
q0 57 25.5 81t56.5 24t51 -15l-6 -84q-21 9 -37 9q-36 0 -49.5 -29.5t-13.5 -91.5q0 -102 -58 -163.5t-155 -61.5q-50 0 -93 20q-34 -16 -34 -49q0 -41 51 -41h207q157 0 157 -132q0 -80 -70 -125t-213 -45zM283 592q-113 0 -136 114l55 21q23 -54 81 -54t81 54l55 -21
q-23 -114 -136 -114z" />
    <glyph glyph-name="Gdotaccent" unicode="&#x120;" horiz-adv-x="752" 
d="M327 793v112h123v-112h-123zM377 -16q-79 0 -141.5 30.5t-100.5 83.5t-58 119t-20 141q0 101 35.5 184t111.5 136.5t181 53.5q123 0 189 -52.5t94 -154.5l-109 -29q-16 74 -56 107.5t-115 33.5q-90 0 -143 -75t-53 -204t52.5 -204t138.5 -75q81 0 130 44.5t49 119.5v35
h-148v90h260v-368h-70l-13 117h-4q-22 -64 -76 -98.5t-134 -34.5z" />
    <glyph glyph-name="gdotaccent" unicode="&#x121;" horiz-adv-x="590" 
d="M273 173q101 0 101 144t-101 144q-102 0 -102 -144t102 -144zM278 -273q-243 0 -269 145l100 12q26 -90 169 -90q174 0 174 83q0 30 -18.5 43.5t-60.5 13.5h-187q-132 0 -132 107q0 72 83 100v3q-78 63 -78 173q0 97 59.5 157.5t154.5 60.5q125 0 182 -105h4
q0 57 25.5 81t56.5 24t51 -15l-6 -84q-21 9 -37 9q-36 0 -49.5 -29.5t-13.5 -91.5q0 -102 -58 -163.5t-155 -61.5q-50 0 -93 20q-34 -16 -34 -49q0 -41 51 -41h207q157 0 157 -132q0 -80 -70 -125t-213 -45zM226 605v111h115v-111h-115z" />
    <glyph glyph-name="uni0122" unicode="&#x122;" horiz-adv-x="752" 
d="M311 -190l64 36v11h-65v81h112v-114l-111 -63v49zM377 -16q-79 0 -141.5 30.5t-100.5 83.5t-58 119t-20 141q0 101 35.5 184t111.5 136.5t181 53.5q123 0 189 -52.5t94 -154.5l-109 -29q-16 74 -56 107.5t-115 33.5q-90 0 -143 -75t-53 -204t52.5 -204t138.5 -75
q81 0 130 44.5t49 119.5v35h-148v90h260v-368h-70l-13 117h-4q-22 -64 -76 -98.5t-134 -34.5z" />
    <glyph glyph-name="uni0123" unicode="&#x123;" horiz-adv-x="590" 
d="M338 718l-64 -36v-11h65v-81h-112v114l111 63v-49zM273 173q101 0 101 144t-101 144q-102 0 -102 -144t102 -144zM278 -273q-243 0 -269 145l100 12q26 -90 169 -90q174 0 174 83q0 30 -18.5 43.5t-60.5 13.5h-187q-132 0 -132 107q0 72 83 100v3q-78 63 -78 173
q0 97 59.5 157.5t154.5 60.5q125 0 182 -105h4q0 57 25.5 81t56.5 24t51 -15l-6 -84q-21 9 -37 9q-36 0 -49.5 -29.5t-13.5 -91.5q0 -102 -58 -163.5t-155 -61.5q-50 0 -93 20q-34 -16 -34 -49q0 -41 51 -41h207q157 0 157 -132q0 -80 -70 -125t-213 -45z" />
    <glyph glyph-name="Hcircumflex" unicode="&#x124;" horiz-adv-x="736" 
d="M90 0v716h126v-303h304v303h126v-716h-126v318h-304v-318h-126zM426 779l-59 61l-60 -61h-102l115 122h98l115 -122h-107z" />
    <glyph glyph-name="hcircumflex" unicode="&#x125;" horiz-adv-x="583" 
d="M342 834l-49 76l-49 -76h-90l93 135h94l93 -135h-92zM73 0v782h119v-382h2q24 69 71 102t105 33q142 0 142 -152v-383h-119v356q0 51 -16.5 72t-55.5 21q-55 0 -92 -53.5t-37 -131.5v-264h-119z" />
    <glyph glyph-name="Hbar" unicode="&#x126;" horiz-adv-x="742" 
d="M20 512v86h702v-86h-702zM93 0v716h126v-303h304v303h126v-716h-126v318h-304v-318h-126z" />
    <glyph glyph-name="hbar" unicode="&#x127;" horiz-adv-x="583" 
d="M-1 612v74h305v-74h-305zM73 0v782h119v-382h2q24 69 71 102t105 33q142 0 142 -152v-383h-119v356q0 51 -16.5 72t-55.5 21q-55 0 -92 -53.5t-37 -131.5v-264h-119z" />
    <glyph glyph-name="Itilde" unicode="&#x128;" horiz-adv-x="306" 
d="M90 0v716h126v-716h-126zM40 777l-50 9q-4 52 20.5 86t68.5 34q30 0 78 -20.5t65 -20.5q35 0 40 45l51 -10q2 -53 -21.5 -86.5t-68.5 -33.5q-30 0 -78 20.5t-64 20.5q-34 0 -41 -44z" />
    <glyph glyph-name="itilde" unicode="&#x129;" horiz-adv-x="266" 
d="M73 0v525h119v-525h-119zM77 636q-30 0 -35 -40l-46 13q-3 47 19.5 78t63.5 31q23 0 61 -19t54 -19q29 0 34 41l46 -14q3 -48 -19 -78.5t-64 -30.5q-23 0 -61 19t-53 19z" />
    <glyph glyph-name="Imacron" unicode="&#x12a;" horiz-adv-x="306" 
d="M90 0v716h126v-716h-126zM6 800v88h296v-88h-296z" />
    <glyph glyph-name="imacron" unicode="&#x12b;" horiz-adv-x="266" 
d="M73 0v525h119v-525h-119zM10 607v82h250v-82h-250z" />
    <glyph glyph-name="Ibreve" unicode="&#x12c;" horiz-adv-x="306" 
d="M90 0v716h126v-716h-126zM154 777q-118 0 -153 112l51 27q33 -50 102 -50t102 50l51 -27q-35 -112 -153 -112z" />
    <glyph glyph-name="ibreve" unicode="&#x12d;" horiz-adv-x="266" 
d="M73 0v525h119v-525h-119zM135 592q-113 0 -136 114l55 21q23 -54 81 -54t81 54l55 -21q-23 -114 -136 -114z" />
    <glyph glyph-name="Iogonek" unicode="&#x12e;" horiz-adv-x="306" 
d="M144 -232q-46 0 -74.5 22t-28.5 63q0 80 117 147h-68v716h126v-716h1q-82 -63 -82 -122q0 -42 40 -42q11 0 27 6l13 -55q-29 -19 -71 -19z" />
    <glyph glyph-name="iogonek" unicode="&#x12f;" horiz-adv-x="266" 
d="M120 -232q-46 0 -74.5 22t-28.5 63q0 80 117 147h-61v525h119v-525h1q-82 -63 -82 -122q0 -42 40 -42q11 0 27 6l13 -55q-29 -19 -71 -19zM73 604v113h119v-113h-119z" />
    <glyph glyph-name="Idot" unicode="&#x130;" horiz-adv-x="306" 
d="M90 0v716h126v-716h-126zM93 793v112h123v-112h-123z" />
    <glyph glyph-name="dotlessi" unicode="&#x131;" horiz-adv-x="266" 
d="M73 0v525h119v-525h-119z" />
    <glyph glyph-name="IJ" unicode="&#x132;" horiz-adv-x="653" 
d="M90 0v716h126v-716h-126zM302 0v95q68 0 97 10q24 8 33 29.5t9 69.5v512h127v-546q0 -132 -114 -160q-37 -10 -152 -10z" />
    <glyph glyph-name="ij" unicode="&#x133;" horiz-adv-x="527" 
d="M73 604v113h119v-113h-119zM73 0v525h119v-525h-119zM325 604v113h119v-113h-119zM192 -227v86q64 0 90 9q23 9 33 29t10 65v563h119v-584q0 -72 -30.5 -110t-92.5 -50q-40 -8 -129 -8z" />
    <glyph glyph-name="Jcircumflex" unicode="&#x134;" horiz-adv-x="384" 
d="M294 779l-59 61l-60 -61h-102l115 122h98l115 -122h-107zM33 0v95q68 0 97 10q24 8 33 29.5t9 69.5v512h127v-546q0 -132 -114 -160q-37 -10 -152 -10z" />
    <glyph glyph-name="jcircumflex" unicode="&#x135;" horiz-adv-x="266" 
d="M-60 -227v86q67 0 90 8q23 9 33 29.5t10 65.5v563h119v-584q0 -72 -30.5 -109.5t-92.5 -50.5q-36 -8 -129 -8zM182 590l-49 76l-49 -76h-90l93 135h94l93 -135h-92z" />
    <glyph glyph-name="uni0136" unicode="&#x136;" horiz-adv-x="678" 
d="M299 -190l64 36v11h-65v81h112v-114l-111 -63v49zM498 0l-226 332l-56 -59v-273h-126v716h126v-315l289 315h127l-276 -294l288 -422h-146z" />
    <glyph glyph-name="uni0137" unicode="&#x137;" horiz-adv-x="545" 
d="M239 -190l64 36v11h-65v81h112v-114l-111 -63v49zM192 173v-173h-119v782h119v-488h3l193 231h116l-189 -214l209 -311h-136l-150 225z" />
    <glyph glyph-name="Lacute" unicode="&#x139;" horiz-adv-x="600" 
d="M203 779h-92l62 128h135zM90 0v716h127v-617h356v-99h-483z" />
    <glyph glyph-name="lacute" unicode="&#x13a;" horiz-adv-x="266" 
d="M172 834h-82l53 145h115zM73 0v782h119v-782h-119z" />
    <glyph glyph-name="uni013B" unicode="&#x13b;" horiz-adv-x="600" 
d="M276 -190l64 36v11h-65v81h112v-114l-111 -63v49zM90 0v716h127v-617h356v-99h-483z" />
    <glyph glyph-name="uni013C" unicode="&#x13c;" horiz-adv-x="266" 
d="M79 -190l64 36v11h-65v81h112v-114l-111 -63v49zM73 0v782h119v-782h-119z" />
    <glyph glyph-name="Lcaron" unicode="&#x13d;" horiz-adv-x="600" 
d="M330 742h93l-42 -172h-70zM90 0v716h127v-617h356v-99h-483z" />
    <glyph glyph-name="lcaron" unicode="&#x13e;" horiz-adv-x="266" 
d="M265 782h93l-42 -172h-70zM73 0v782h119v-782h-119z" />
    <glyph glyph-name="Ldot" unicode="&#x13f;" horiz-adv-x="604" 
d="M392 341v123h115v-123h-115zM90 0v716h127v-617h356v-99h-483z" />
    <glyph glyph-name="ldot" unicode="&#x140;" horiz-adv-x="413" 
d="M278 335v115h110v-115h-110zM73 0v782h119v-782h-119z" />
    <glyph glyph-name="Lslash" unicode="&#x141;" horiz-adv-x="600" 
d="M10 202v102l80 39v373h127v-310l210 104v-101l-210 -105v-205h356v-99h-483v241z" />
    <glyph glyph-name="lslash" unicode="&#x142;" horiz-adv-x="309" 
d="M22 225v98l72 56v403h119v-311l74 58v-98l-74 -58v-373h-119v281z" />
    <glyph glyph-name="Nacute" unicode="&#x143;" horiz-adv-x="729" 
d="M411 779h-92l62 128h135zM90 0v716h124l311 -514h3v514h111v-716h-109l-326 533h-3v-533h-111z" />
    <glyph glyph-name="nacute" unicode="&#x144;" horiz-adv-x="583" 
d="M332 590h-82l53 145h115zM73 0v525h105l10 -128h2q25 71 73.5 104.5t107.5 33.5q141 0 141 -152v-383h-119v356q0 51 -16.5 72t-55.5 21q-56 0 -92.5 -50.5t-36.5 -127.5v-271h-119z" />
    <glyph glyph-name="uni0145" unicode="&#x145;" horiz-adv-x="729" 
d="M309 -190l64 36v11h-65v81h112v-114l-111 -63v49zM90 0v716h124l311 -514h3v514h111v-716h-109l-326 533h-3v-533h-111z" />
    <glyph glyph-name="uni0146" unicode="&#x146;" horiz-adv-x="583" 
d="M243 -190l64 36v11h-65v81h112v-114l-111 -63v49zM73 0v525h105l10 -128h2q25 71 73.5 104.5t107.5 33.5q141 0 141 -152v-383h-119v356q0 51 -16.5 72t-55.5 21q-56 0 -92.5 -50.5t-36.5 -127.5v-271h-119z" />
    <glyph glyph-name="Ncaron" unicode="&#x147;" horiz-adv-x="729" 
d="M421 778h-98l-115 122h107l59 -61l60 61h102zM90 0v716h124l311 -514h3v514h111v-716h-109l-326 533h-3v-533h-111z" />
    <glyph glyph-name="ncaron" unicode="&#x148;" horiz-adv-x="583" 
d="M253 590l-93 135h92l49 -76l49 76h90l-93 -135h-94zM73 0v525h105l10 -128h2q25 71 73.5 104.5t107.5 33.5q141 0 141 -152v-383h-119v356q0 51 -16.5 72t-55.5 21q-56 0 -92.5 -50.5t-36.5 -127.5v-271h-119z" />
    <glyph glyph-name="napostrophe" unicode="&#x149;" horiz-adv-x="661" 
d="M116 542l-125 -109v77l70 62v10h-70v134h125v-174zM151 0v525h105l10 -128h2q25 71 73.5 104.5t107.5 33.5q141 0 141 -152v-383h-119v356q0 51 -16.5 72t-55.5 21q-56 0 -92.5 -50.5t-36.5 -127.5v-271h-119z" />
    <glyph glyph-name="Eng" unicode="&#x14a;" horiz-adv-x="729" 
d="M466 -244h-51v100h41q42 0 57 18.5t15 70.5v55l-324 533h-3v-533h-111v716h124l311 -514h3v514h111v-783q0 -95 -38.5 -136t-134.5 -41z" />
    <glyph glyph-name="eng" unicode="&#x14b;" horiz-adv-x="583" 
d="M319 -244v94h25q30 0 39.5 12t9.5 48v109h119v-127q0 -70 -31 -103t-102 -33h-60zM73 0v525h105l10 -128h2q25 71 73.5 104.5t107.5 33.5q141 0 141 -152v-383h-119v356q0 51 -16.5 72t-55.5 21q-56 0 -92.5 -50.5t-36.5 -127.5v-271h-119z" />
    <glyph glyph-name="Omacron" unicode="&#x14c;" horiz-adv-x="769" 
d="M237 800v88h296v-88h-296zM385 -16q-81 0 -145.5 31.5t-103.5 85t-59 119.5t-20 138t20 138t59 119.5t103.5 85t145.5 31.5q65 0 120 -21t92.5 -56.5t64 -83.5t38.5 -102t12 -111t-12 -111t-38.5 -102t-64 -83.5t-92.5 -56.5t-120 -21zM385 79q192 0 192 279
q0 133 -47.5 206t-144.5 73q-96 0 -144.5 -75t-48.5 -204q0 -130 48.5 -204.5t144.5 -74.5z" />
    <glyph glyph-name="omacron" unicode="&#x14d;" horiz-adv-x="580" 
d="M165 607v82h250v-82h-250zM532 263q0 -115 -62.5 -194t-179.5 -79t-179.5 79t-62.5 194t62.5 193.5t179.5 78.5t179.5 -78.5t62.5 -193.5zM174 263q0 -101 28 -149t88 -48t88 48.5t28 148.5t-28 148t-88 48t-88 -48t-28 -148z" />
    <glyph glyph-name="Obreve" unicode="&#x14e;" horiz-adv-x="769" 
d="M385 777q-118 0 -153 112l51 27q33 -50 102 -50t102 50l51 -27q-35 -112 -153 -112zM385 -16q-81 0 -145.5 31.5t-103.5 85t-59 119.5t-20 138t20 138t59 119.5t103.5 85t145.5 31.5q65 0 120 -21t92.5 -56.5t64 -83.5t38.5 -102t12 -111t-12 -111t-38.5 -102t-64 -83.5
t-92.5 -56.5t-120 -21zM385 79q192 0 192 279q0 133 -47.5 206t-144.5 73q-96 0 -144.5 -75t-48.5 -204q0 -130 48.5 -204.5t144.5 -74.5z" />
    <glyph glyph-name="obreve" unicode="&#x14f;" horiz-adv-x="580" 
d="M532 263q0 -115 -62.5 -194t-179.5 -79t-179.5 79t-62.5 194t62.5 193.5t179.5 78.5t179.5 -78.5t62.5 -193.5zM174 263q0 -101 28 -149t88 -48t88 48.5t28 148.5t-28 148t-88 48t-88 -48t-28 -148zM290 592q-113 0 -136 114l55 21q23 -54 81 -54t81 54l55 -21
q-23 -114 -136 -114z" />
    <glyph glyph-name="Ohungarumlaut" unicode="&#x150;" horiz-adv-x="769" 
d="M340 779h-81l54 128h118zM505 779h-81l54 128h118zM385 -16q-81 0 -145.5 31.5t-103.5 85t-59 119.5t-20 138t20 138t59 119.5t103.5 85t145.5 31.5q65 0 120 -21t92.5 -56.5t64 -83.5t38.5 -102t12 -111t-12 -111t-38.5 -102t-64 -83.5t-92.5 -56.5t-120 -21zM385 79
q192 0 192 279q0 133 -47.5 206t-144.5 73q-96 0 -144.5 -75t-48.5 -204q0 -130 48.5 -204.5t144.5 -74.5z" />
    <glyph glyph-name="ohungarumlaut" unicode="&#x151;" horiz-adv-x="580" 
d="M246 590h-70l48 145h99zM395 590h-69l47 145h99zM532 263q0 -115 -62.5 -194t-179.5 -79t-179.5 79t-62.5 194t62.5 193.5t179.5 78.5t179.5 -78.5t62.5 -193.5zM174 263q0 -101 28 -149t88 -48t88 48.5t28 148.5t-28 148t-88 48t-88 -48t-28 -148z" />
    <glyph glyph-name="OE" unicode="&#x152;" horiz-adv-x="977" 
d="M938 0h-537q-162 0 -253 102t-91 256q0 100 37 179.5t116.5 129t190.5 49.5h503v-91h-300v-219h228v-93h-228v-221h334v-92zM405 93h72v531h-72q-103 0 -158 -67.5t-55 -198.5q0 -130 55 -197.5t158 -67.5z" />
    <glyph glyph-name="oe" unicode="&#x153;" horiz-adv-x="923" 
d="M290 66q118 0 118 197q0 196 -118 196q-60 0 -88 -48t-28 -148q0 -101 28 -149t88 -48zM648 459q-104 0 -116 -147h225q-3 77 -28 112t-81 35zM793 195l84 -32q-45 -173 -219 -173q-133 0 -189 100q-53 -100 -179 -100q-117 0 -179.5 79t-62.5 194t62.5 193.5t179.5 78.5
q127 0 181 -106q59 106 180 106q112 0 171 -77.5t59 -207.5h-351q5 -183 136 -183q97 0 127 128z" />
    <glyph glyph-name="Racute" unicode="&#x154;" horiz-adv-x="691" 
d="M384 779h-92l62 128h135zM216 394h160q64 0 90.5 28.5t26.5 86.5q0 59 -26 87t-91 28h-160v-230zM216 0h-126v716h289q247 0 247 -205q0 -147 -151 -180l1 -6q24 -7 50 -56t41 -97q24 -76 35.5 -102t32.5 -52v-18h-148q-16 34 -34 103q-19 80 -38 144q-10 33 -26 45
t-51 12h-122v-304z" />
    <glyph glyph-name="racute" unicode="&#x155;" horiz-adv-x="385" 
d="M256 590h-82l53 145h115zM73 0v525h106l10 -142h2q39 152 130 152q23 0 39 -10v-112q-20 6 -39 6q-56 0 -92.5 -47t-36.5 -130v-242h-119z" />
    <glyph glyph-name="uni0156" unicode="&#x156;" horiz-adv-x="691" 
d="M298 -190l64 36v11h-65v81h112v-114l-111 -63v49zM216 394h160q64 0 90.5 28.5t26.5 86.5q0 59 -26 87t-91 28h-160v-230zM216 0h-126v716h289q247 0 247 -205q0 -147 -151 -180l1 -6q24 -7 50 -56t41 -97q24 -76 35.5 -102t32.5 -52v-18h-148q-16 34 -34 103
q-19 80 -38 144q-10 33 -26 45t-51 12h-122v-304z" />
    <glyph glyph-name="uni0157" unicode="&#x157;" horiz-adv-x="385" 
d="M80 -190l64 36v11h-65v81h112v-114l-111 -63v49zM73 0v525h106l10 -142h2q39 152 130 152q23 0 39 -10v-112q-20 6 -39 6q-56 0 -92.5 -47t-36.5 -130v-242h-119z" />
    <glyph glyph-name="Rcaron" unicode="&#x158;" horiz-adv-x="691" 
d="M394 778h-98l-115 122h107l59 -61l60 61h102zM216 394h160q64 0 90.5 28.5t26.5 86.5q0 59 -26 87t-91 28h-160v-230zM216 0h-126v716h289q247 0 247 -205q0 -147 -151 -180l1 -6q24 -7 50 -56t41 -97q24 -76 35.5 -102t32.5 -52v-18h-148q-16 34 -34 103q-19 80 -38 144
q-10 33 -26 45t-51 12h-122v-304z" />
    <glyph glyph-name="rcaron" unicode="&#x159;" horiz-adv-x="385" 
d="M177 590l-93 135h92l49 -76l49 76h90l-93 -135h-94zM73 0v525h106l10 -142h2q39 152 130 152q23 0 39 -10v-112q-20 6 -39 6q-56 0 -92.5 -47t-36.5 -130v-242h-119z" />
    <glyph glyph-name="Sacute" unicode="&#x15a;" horiz-adv-x="639" 
d="M326 -16q-119 0 -191 69.5t-84 186.5l97 16q7 -89 53.5 -136.5t122.5 -47.5q142 0 142 97q0 52 -30 74t-132 60q-7 3 -10 4q-59 22 -94.5 39t-68 42.5t-47 59t-14.5 79.5q0 91 64 148t180 57q108 0 173.5 -59t74.5 -164l-96 -20q-5 75 -43.5 116t-108.5 41q-66 0 -96 -26
t-30 -69q0 -46 31 -67.5t113 -49.5q8 -3 12 -4q50 -17 82 -29.5t66 -31.5t52.5 -40.5t31 -52.5t12.5 -70q0 -104 -67.5 -163t-194.5 -59zM353 779h-92l62 128h135z" />
    <glyph glyph-name="sacute" unicode="&#x15b;" horiz-adv-x="488" 
d="M279 590h-82l53 145h115zM248 -10q-92 0 -142.5 42.5t-59.5 114.5l84 26q10 -113 114 -113q40 0 64.5 16.5t24.5 48.5t-22 47.5t-100 42.5q-75 26 -113.5 61.5t-38.5 106.5q0 68 48.5 110t128.5 42q162 0 181 -158l-88 -17q-6 57 -28 80.5t-64 23.5q-36 0 -56.5 -16.5
t-20.5 -46.5q0 -17 4.5 -28t22.5 -22t31 -16.5t53 -21.5q8 -3 32.5 -13t32.5 -13.5t27.5 -13t27 -16.5t20 -19t17.5 -24.5t9 -30t4 -37.5q0 -74 -51 -115t-142 -41z" />
    <glyph glyph-name="Scircumflex" unicode="&#x15c;" horiz-adv-x="639" 
d="M365 779l-59 61l-60 -61h-102l115 122h98l115 -122h-107zM326 -16q-119 0 -191 69.5t-84 186.5l97 16q7 -89 53.5 -136.5t122.5 -47.5q142 0 142 97q0 52 -30 74t-132 60q-7 3 -10 4q-59 22 -94.5 39t-68 42.5t-47 59t-14.5 79.5q0 91 64 148t180 57q108 0 173.5 -59
t74.5 -164l-96 -20q-5 75 -43.5 116t-108.5 41q-66 0 -96 -26t-30 -69q0 -46 31 -67.5t113 -49.5q8 -3 12 -4q50 -17 82 -29.5t66 -31.5t52.5 -40.5t31 -52.5t12.5 -70q0 -104 -67.5 -163t-194.5 -59z" />
    <glyph glyph-name="scircumflex" unicode="&#x15d;" horiz-adv-x="488" 
d="M292 590l-49 76l-49 -76h-90l93 135h94l93 -135h-92zM248 -10q-92 0 -142.5 42.5t-59.5 114.5l84 26q10 -113 114 -113q40 0 64.5 16.5t24.5 48.5t-22 47.5t-100 42.5q-75 26 -113.5 61.5t-38.5 106.5q0 68 48.5 110t128.5 42q162 0 181 -158l-88 -17q-6 57 -28 80.5
t-64 23.5q-36 0 -56.5 -16.5t-20.5 -46.5q0 -17 4.5 -28t22.5 -22t31 -16.5t53 -21.5q8 -3 32.5 -13t32.5 -13.5t27.5 -13t27 -16.5t20 -19t17.5 -24.5t9 -30t4 -37.5q0 -74 -51 -115t-142 -41z" />
    <glyph glyph-name="uni015E" unicode="&#x15e;" horiz-adv-x="639" 
d="M324 -242q-70 0 -118 42l28 47q36 -34 80 -34t44 41q0 35 -35 35q-26 0 -39 -24l-53 18l41 105q-28 4 -55 14q-147 58 -166 238l97 16q7 -89 53.5 -136.5t122.5 -47.5q142 0 142 97q0 52 -30 74t-132 60q-7 3 -10 4q-59 22 -94.5 39t-68 42.5t-47 59t-14.5 79.5
q0 91 64 148t180 57q108 0 173.5 -59t74.5 -164l-96 -20q-5 75 -43.5 116t-108.5 41q-66 0 -96 -26t-30 -69q0 -46 31 -67.5t113 -49.5q8 -3 12 -4q50 -17 82 -29.5t66 -31.5t52.5 -40.5t31 -52.5t12.5 -70q0 -103 -67 -163q-65 -58 -188 -59l-18 -48q17 6 36 6
q39 0 65.5 -23.5t26.5 -62.5q0 -46 -35.5 -72t-83.5 -26z" />
    <glyph glyph-name="uni015F" unicode="&#x15f;" horiz-adv-x="488" 
d="M251 -242q-70 0 -118 42l28 47q36 -34 80 -34t44 41q0 35 -35 35q-26 0 -39 -24l-53 18l43 110q-60 7 -98 41q-49 43 -57 113l84 26q10 -113 114 -113q40 0 64.5 16.5t24.5 48.5t-22 47.5t-100 42.5q-75 26 -113.5 61.5t-38.5 106.5q0 68 48.5 110t128.5 42
q162 0 181 -158l-88 -17q-6 57 -28 80.5t-64 23.5q-36 0 -56.5 -16.5t-20.5 -46.5q0 -17 4.5 -28t22.5 -22t31 -16.5t53 -21.5q8 -3 32.5 -13t32.5 -13.5t27.5 -13t27 -16.5t20 -19t17.5 -24.5t9 -30t4 -37.5q0 -74 -51 -115q-45 -36 -127 -41l-21 -54q16 6 36 6
q39 0 65.5 -23.5t26.5 -62.5q0 -46 -35.5 -72t-83.5 -26z" />
    <glyph glyph-name="Scaron" unicode="&#x160;" horiz-adv-x="639" 
d="M359 778h-98l-115 122h107l59 -61l60 61h102zM326 -16q-119 0 -191 69.5t-84 186.5l97 16q7 -89 53.5 -136.5t122.5 -47.5q142 0 142 97q0 52 -30 74t-132 60q-7 3 -10 4q-59 22 -94.5 39t-68 42.5t-47 59t-14.5 79.5q0 91 64 148t180 57q108 0 173.5 -59t74.5 -164
l-96 -20q-5 75 -43.5 116t-108.5 41q-66 0 -96 -26t-30 -69q0 -46 31 -67.5t113 -49.5q8 -3 12 -4q50 -17 82 -29.5t66 -31.5t52.5 -40.5t31 -52.5t12.5 -70q0 -104 -67.5 -163t-194.5 -59z" />
    <glyph glyph-name="scaron" unicode="&#x161;" horiz-adv-x="488" 
d="M200 590l-93 135h92l49 -76l49 76h90l-93 -135h-94zM248 -10q-92 0 -142.5 42.5t-59.5 114.5l84 26q10 -113 114 -113q40 0 64.5 16.5t24.5 48.5t-22 47.5t-100 42.5q-75 26 -113.5 61.5t-38.5 106.5q0 68 48.5 110t128.5 42q162 0 181 -158l-88 -17q-6 57 -28 80.5
t-64 23.5q-36 0 -56.5 -16.5t-20.5 -46.5q0 -17 4.5 -28t22.5 -22t31 -16.5t53 -21.5q8 -3 32.5 -13t32.5 -13.5t27.5 -13t27 -16.5t20 -19t17.5 -24.5t9 -30t4 -37.5q0 -74 -51 -115t-142 -41z" />
    <glyph glyph-name="Tcommaaccent" unicode="&#x162;" horiz-adv-x="593" 
d="M241 -190l64 36v11h-65v81h112v-114l-111 -63v49zM232 0v622h-218v94h565v-94h-218v-622h-129z" />
    <glyph glyph-name="tcommaaccent" unicode="&#x163;" horiz-adv-x="405" 
d="M182 -190l64 36v11h-65v81h112v-114l-111 -63v49zM370 0h-86q-69 0 -100 12q-43 16 -56.5 45.5t-13.5 104.5v280h-97v83h97v200h119v-200h126v-83h-126v-274q0 -39 5 -55.5t24 -24.5q17 -7 50 -7h58v-81z" />
    <glyph glyph-name="Tcaron" unicode="&#x164;" horiz-adv-x="593" 
d="M353 778h-98l-115 122h107l59 -61l60 61h102zM232 0v622h-218v94h565v-94h-218v-622h-129z" />
    <glyph glyph-name="tcaron" unicode="&#x165;" horiz-adv-x="405" 
d="M317 782h93l-42 -172h-70zM370 0h-86q-69 0 -100 12q-43 16 -56.5 45.5t-13.5 104.5v280h-97v83h97v200h119v-200h126v-83h-126v-274q0 -39 5 -55.5t24 -24.5q17 -7 50 -7h58v-81z" />
    <glyph glyph-name="Tbar" unicode="&#x166;" horiz-adv-x="593" 
d="M89 320v86h415v-86h-415zM232 0v622h-218v94h565v-94h-218v-622h-129z" />
    <glyph glyph-name="tbar" unicode="&#x167;" horiz-adv-x="405" 
d="M18 261v75h340v-75h-340zM370 0h-86q-69 0 -100 12q-43 16 -56.5 45.5t-13.5 104.5v280h-97v83h97v200h119v-200h126v-83h-126v-274q0 -39 5 -55.5t24 -24.5q17 -7 50 -7h58v-81z" />
    <glyph glyph-name="Utilde" unicode="&#x168;" horiz-adv-x="699" 
d="M348 -15q-131 0 -200.5 63.5t-69.5 179.5v488h127v-472q0 -81 35.5 -121.5t116.5 -40.5q82 0 118 40.5t36 121.5v472h110v-486q0 -115 -70 -180t-203 -65zM235 777l-50 9q-4 52 20.5 86t68.5 34q30 0 78 -20.5t65 -20.5q35 0 40 45l51 -10q2 -53 -21.5 -86.5t-68.5 -33.5
q-30 0 -78 20.5t-64 20.5q-34 0 -41 -44z" />
    <glyph glyph-name="utilde" unicode="&#x169;" horiz-adv-x="579" 
d="M218 -10q-77 0 -113 42t-36 110v383h119v-356q0 -50 19.5 -71.5t59.5 -21.5q52 0 86 53.5t34 138.5v257h119v-525h-98l-17 123h-3q-47 -133 -170 -133zM229 636q-30 0 -35 -40l-46 13q-3 47 19.5 78t63.5 31q23 0 61 -19t54 -19q29 0 34 41l46 -14q3 -48 -19 -78.5
t-64 -30.5q-23 0 -61 19t-53 19z" />
    <glyph glyph-name="Umacron" unicode="&#x16a;" horiz-adv-x="699" 
d="M348 -15q-131 0 -200.5 63.5t-69.5 179.5v488h127v-472q0 -81 35.5 -121.5t116.5 -40.5q82 0 118 40.5t36 121.5v472h110v-486q0 -115 -70 -180t-203 -65zM201 800v88h296v-88h-296z" />
    <glyph glyph-name="umacron" unicode="&#x16b;" horiz-adv-x="579" 
d="M218 -10q-77 0 -113 42t-36 110v383h119v-356q0 -50 19.5 -71.5t59.5 -21.5q52 0 86 53.5t34 138.5v257h119v-525h-98l-17 123h-3q-47 -133 -170 -133zM162 607v82h250v-82h-250z" />
    <glyph glyph-name="Ubreve" unicode="&#x16c;" horiz-adv-x="699" 
d="M348 -15q-131 0 -200.5 63.5t-69.5 179.5v488h127v-472q0 -81 35.5 -121.5t116.5 -40.5q82 0 118 40.5t36 121.5v472h110v-486q0 -115 -70 -180t-203 -65zM349 777q-118 0 -153 112l51 27q33 -50 102 -50t102 50l51 -27q-35 -112 -153 -112z" />
    <glyph glyph-name="ubreve" unicode="&#x16d;" horiz-adv-x="579" 
d="M218 -10q-77 0 -113 42t-36 110v383h119v-356q0 -50 19.5 -71.5t59.5 -21.5q52 0 86 53.5t34 138.5v257h119v-525h-98l-17 123h-3q-47 -133 -170 -133zM287 592q-113 0 -136 114l55 21q23 -54 81 -54t81 54l55 -21q-23 -114 -136 -114z" />
    <glyph glyph-name="Uring" unicode="&#x16e;" horiz-adv-x="699" 
d="M348 -15q-131 0 -200.5 63.5t-69.5 179.5v488h127v-472q0 -81 35.5 -121.5t116.5 -40.5q82 0 118 40.5t36 121.5v472h110v-486q0 -115 -70 -180t-203 -65zM453 853q0 -45 -29 -72t-76 -27q-46 0 -75 27t-29 72q0 44 29 72t75 28q47 0 76 -28t29 -72zM304 853
q0 -22 12 -34t32 -12t32.5 12t12.5 34t-12.5 34.5t-32.5 12.5t-32 -12t-12 -35z" />
    <glyph glyph-name="uring" unicode="&#x16f;" horiz-adv-x="579" 
d="M391 679q0 -44 -28.5 -70.5t-75.5 -26.5q-46 0 -75 26.5t-29 70.5q0 45 29 72.5t75 27.5q47 0 75.5 -27.5t28.5 -72.5zM243 680q0 -22 12 -34t32 -12t32 12t12 34t-12 34t-32 12t-32 -12t-12 -34zM218 -10q-77 0 -113 42t-36 110v383h119v-356q0 -50 19.5 -71.5
t59.5 -21.5q52 0 86 53.5t34 138.5v257h119v-525h-98l-17 123h-3q-47 -133 -170 -133z" />
    <glyph glyph-name="Uhungarumlaut" unicode="&#x170;" horiz-adv-x="699" 
d="M304 779h-81l54 128h118zM469 779h-81l54 128h118zM348 -15q-131 0 -200.5 63.5t-69.5 179.5v488h127v-472q0 -81 35.5 -121.5t116.5 -40.5q82 0 118 40.5t36 121.5v472h110v-486q0 -115 -70 -180t-203 -65z" />
    <glyph glyph-name="uhungarumlaut" unicode="&#x171;" horiz-adv-x="579" 
d="M218 -10q-77 0 -113 42t-36 110v383h119v-356q0 -50 19.5 -71.5t59.5 -21.5q52 0 86 53.5t34 138.5v257h119v-525h-98l-17 123h-3q-47 -133 -170 -133zM243 590h-70l48 145h99zM392 590h-69l47 145h99z" />
    <glyph glyph-name="Uogonek" unicode="&#x172;" horiz-adv-x="699" 
d="M348 -15q-131 0 -200.5 63.5t-69.5 179.5v488h127v-472q0 -81 35.5 -121.5t116.5 -40.5q82 0 118 40.5t36 121.5v472h110v-486q0 -113 -69 -179q-37 -37 -96 -52q-45 -36 -61 -66q-18 -31 -18 -55q0 -42 40 -42q11 0 27 6l13 -55q-29 -19 -71 -19q-46 0 -74.5 22
t-28.5 63q0 43 33 81q24 27 60 52q-9 -1 -28 -1z" />
    <glyph glyph-name="uogonek" unicode="&#x173;" horiz-adv-x="579" 
d="M218 -10q-77 0 -113 42t-36 110v383h119v-356q0 -50 19.5 -71.5t59.5 -21.5q52 0 86 53.5t34 138.5v257h119v-525q-82 -63 -82 -122q0 -42 40 -42q11 0 27 6l13 -55q-29 -19 -71 -19q-46 0 -74.5 22t-28.5 63q0 80 117 147h-39l-17 123h-3q-47 -133 -170 -133z" />
    <glyph glyph-name="Wcircumflex" unicode="&#x174;" horiz-adv-x="978" 
d="M548 779l-59 61l-60 -61h-102l115 122h98l115 -122h-107zM222 -4l-189 720h128l131 -543h7l147 543h101l143 -543h7l135 543h114l-190 -720h-118l-143 524h-5l-148 -524h-120z" />
    <glyph glyph-name="wcircumflex" unicode="&#x175;" horiz-adv-x="830" 
d="M464 590l-49 76l-49 -76h-90l93 135h94l93 -135h-92zM179 -4l-156 529h120l104 -379h3l118 379h107l106 -378h6l114 378h107l-164 -529h-114l-112 404h-5l-123 -404h-111z" />
    <glyph glyph-name="Ycircumflex" unicode="&#x176;" horiz-adv-x="615" 
d="M369 0h-127v306l-222 410h136l159 -304h6l160 304h114l-226 -410v-306zM366 779l-59 61l-60 -61h-102l115 122h98l115 -122h-107z" />
    <glyph glyph-name="ycircumflex" unicode="&#x177;" horiz-adv-x="504" 
d="M34 -227v84q55 0 88 11q38 14 59 75l19 55l-185 527h128l114 -379h3l124 379h105l-209 -592q-23 -65 -45.5 -97t-69.5 -49q-37 -14 -131 -14zM303 590l-49 76l-49 -76h-90l93 135h94l93 -135h-92z" />
    <glyph glyph-name="Ydieresis" unicode="&#x178;" horiz-adv-x="615" 
d="M369 0h-127v306l-222 410h136l159 -304h6l160 304h114l-226 -410v-306zM155 793v108h112v-108h-112zM349 793v108h112v-108h-112z" />
    <glyph glyph-name="Zacute" unicode="&#x179;" horiz-adv-x="609" 
d="M350 779h-92l62 128h135zM572 0h-537v85l386 540h-359v91h510v-85l-385 -539h385v-92z" />
    <glyph glyph-name="zacute" unicode="&#x17a;" horiz-adv-x="481" 
d="M274 590h-82l53 145h115zM32 0v77l277 365h-262v83h394v-74l-277 -365h286v-86h-418z" />
    <glyph glyph-name="Zdotaccent" unicode="&#x17b;" horiz-adv-x="609" 
d="M572 0h-537v85l386 540h-359v91h510v-85l-385 -539h385v-92zM242 793v112h123v-112h-123z" />
    <glyph glyph-name="zdotaccent" unicode="&#x17c;" horiz-adv-x="481" 
d="M32 0v77l277 365h-262v83h394v-74l-277 -365h286v-86h-418zM180 605v111h115v-111h-115z" />
    <glyph glyph-name="Zcaron" unicode="&#x17d;" horiz-adv-x="609" 
d="M360 778h-98l-115 122h107l59 -61l60 61h102zM572 0h-537v85l386 540h-359v91h510v-85l-385 -539h385v-92z" />
    <glyph glyph-name="zcaron" unicode="&#x17e;" horiz-adv-x="481" 
d="M195 590l-93 135h92l49 -76l49 76h90l-93 -135h-94zM32 0v77l277 365h-262v83h394v-74l-277 -365h286v-86h-418z" />
    <glyph glyph-name="uni0192" unicode="&#x192;" horiz-adv-x="513" 
d="M159 -79q-54 -20 -159 -12l14 86h20h19.5t15 0.5t15 1.5t12 3.5t12.5 6.5q20 11 31.5 36.5t20.5 80.5l31 191h-93v84h106l25 155q11 72 41 110t79 53q54 19 158 12l-14 -85h-15.5h-14.5h-12.5t-12.5 -0.5t-10.5 -1.5t-10.5 -2.5t-9 -3.5t-9 -5q-20 -11 -31 -36.5
t-20 -80.5l-18 -115h114v-84h-128l-37 -230q-21 -133 -120 -164z" />
    <glyph glyph-name="Aringacute" unicode="&#x1fa;" horiz-adv-x="665" 
d="M325 549l-100 -304h205l-98 304h-7zM509 0l-48 150h-267l-49 -150h-120l252 720h116l247 -720h-131zM382 964h-92l62 128h135zM442 841q0 -45 -29 -72t-76 -27q-46 0 -75 27t-29 72q0 44 29 72t75 28q47 0 76 -28t29 -72zM293 841q0 -22 12 -34t32 -12t32.5 12t12.5 34
t-12.5 34.5t-32.5 12.5q-19 0 -31.5 -12t-12.5 -35z" />
    <glyph glyph-name="aringacute" unicode="&#x1fb;" horiz-adv-x="563" 
d="M199 -10q-68 0 -107.5 37.5t-39.5 98.5q0 34 12 60t36.5 44t44 28t53.5 23q24 10 75.5 28t70.5 26v37q0 88 -78 88q-45 0 -68 -26t-32 -81l-96 13q11 86 64 127.5t138 41.5q191 0 191 -162v-249q0 -39 25 -53q16 -11 55 -11v-57q-24 -13 -69 -13q-107 0 -116 98h-8
q-42 -98 -151 -98zM241 64q47 0 75 30t28 78v96q-3 -1 -38 -14.5t-62 -25.5q-36 -15 -56 -34.5t-20 -56.5q0 -73 73 -73zM314 805h-82l53 145h115zM378 666q0 -44 -28.5 -70.5t-75.5 -26.5q-46 0 -75 26.5t-29 70.5q0 45 29 72.5t75 27.5q47 0 75.5 -27.5t28.5 -72.5z
M230 667q0 -22 12 -34t32 -12t32 12t12 34t-12 34t-32 12t-32 -12t-12 -34z" />
    <glyph glyph-name="AEacute" unicode="&#x1fc;" horiz-adv-x="966" 
d="M609 779h-92l62 128h135zM464 610l-201 -365h203v365h-2zM466 0v150h-255l-83 -150h-125l402 716h488v-92h-301v-218h229v-93h-229v-221h335v-92h-461z" />
    <glyph glyph-name="aeacute" unicode="&#x1fd;" horiz-adv-x="861" 
d="M471 590h-82l53 145h115zM586 459q-102 0 -114 -147h223q-3 77 -28 112t-81 35zM240 64q48 0 76 30t28 78v96q-3 -1 -38 -14.5t-62 -25.5q-36 -15 -56 -34.5t-20 -55.5q0 -34 18 -54t54 -20zM731 195l84 -32q-45 -173 -219 -173q-159 0 -221 131h-7q-17 -63 -62 -97
t-105 -34q-70 0 -109.5 37.5t-39.5 102.5q0 33 12 58t36.5 43t44 27.5t53.5 22.5q24 10 75.5 28t70.5 26v37q0 88 -78 88q-45 0 -68 -26t-32 -81l-96 13q21 169 199 169q115 0 153 -69q63 69 164 69q114 0 173.5 -77.5t59.5 -207.5h-349q2 -89 33.5 -136t100.5 -47
q97 0 127 128z" />
    <glyph glyph-name="Oslashacute" unicode="&#x1fe;" horiz-adv-x="773" 
d="M188 358q0 -99 23 -162l310 397q-48 50 -135 50q-95 0 -146.5 -78t-51.5 -207zM386 74q97 0 148 75.5t51 208.5q0 102 -23 164l-309 -396q46 -52 133 -52zM387 -16q-113 0 -195 64l-72 -92l-58 49l76 97q-82 105 -82 256q0 72 20.5 138t60 119.5t104.5 85t146 31.5
q112 0 194 -63l68 88l58 -49l-73 -93q82 -105 82 -257q0 -72 -20.5 -138t-59.5 -119.5t-103.5 -85t-145.5 -31.5zM433 779h-92l62 128h135z" />
    <glyph glyph-name="oslashacute" unicode="&#x1ff;" horiz-adv-x="580" 
d="M167 263q0 -49 8 -92l202 251q-30 41 -87 41q-64 0 -93.5 -49.5t-29.5 -150.5zM290 62q123 0 123 201q0 54 -9 93l-203 -251q31 -43 89 -43zM290 -10q-86 0 -145 46l-59 -73l-46 41l62 76q-54 74 -54 183q0 115 62.5 193.5t179.5 78.5q85 0 143 -44l55 68l47 -42l-57 -71
q54 -73 54 -183q0 -115 -62.5 -194t-179.5 -79zM326 590h-82l53 145h115z" />
    <glyph glyph-name="uni0218" unicode="&#x218;" horiz-adv-x="639" 
d="M265 -190l64 36v11h-65v81h112v-114l-111 -63v49zM326 -16q-119 0 -191 69.5t-84 186.5l97 16q7 -89 53.5 -136.5t122.5 -47.5q142 0 142 97q0 52 -30 74t-132 60q-7 3 -10 4q-59 22 -94.5 39t-68 42.5t-47 59t-14.5 79.5q0 91 64 148t180 57q108 0 173.5 -59t74.5 -164
l-96 -20q-5 75 -43.5 116t-108.5 41q-66 0 -96 -26t-30 -69q0 -46 31 -67.5t113 -49.5q8 -3 12 -4q50 -17 82 -29.5t66 -31.5t52.5 -40.5t31 -52.5t12.5 -70q0 -104 -67.5 -163t-194.5 -59z" />
    <glyph glyph-name="uni0219" unicode="&#x219;" horiz-adv-x="488" 
d="M183 -190l64 36v11h-65v81h112v-114l-111 -63v49zM248 -10q-92 0 -142.5 42.5t-59.5 114.5l84 26q10 -113 114 -113q40 0 64.5 16.5t24.5 48.5t-22 47.5t-100 42.5q-75 26 -113.5 61.5t-38.5 106.5q0 68 48.5 110t128.5 42q162 0 181 -158l-88 -17q-6 57 -28 80.5
t-64 23.5q-36 0 -56.5 -16.5t-20.5 -46.5q0 -17 4.5 -28t22.5 -22t31 -16.5t53 -21.5q8 -3 32.5 -13t32.5 -13.5t27.5 -13t27 -16.5t20 -19t17.5 -24.5t9 -30t4 -37.5q0 -74 -51 -115t-142 -41z" />
    <glyph glyph-name="uni021A" unicode="&#x21a;" horiz-adv-x="593" 
d="M241 -190l64 36v11h-65v81h112v-114l-111 -63v49zM232 0v622h-218v94h565v-94h-218v-622h-129z" />
    <glyph glyph-name="uni021B" unicode="&#x21b;" horiz-adv-x="405" 
d="M182 -190l64 36v11h-65v81h112v-114l-111 -63v49zM370 0h-86q-69 0 -100 12q-43 16 -56.5 45.5t-13.5 104.5v280h-97v83h97v200h119v-200h126v-83h-126v-274q0 -39 5 -55.5t24 -24.5q17 -7 50 -7h58v-81z" />
    <glyph glyph-name="uni0237" unicode="&#x237;" horiz-adv-x="266" 
d="M-60 -227v86q67 0 90 8q23 9 33 29.5t10 65.5v563h119v-584q0 -72 -30.5 -109.5t-92.5 -50.5q-36 -8 -129 -8z" />
    <glyph glyph-name="circumflex" unicode="&#x2c6;" horiz-adv-x="412" 
d="M254 590l-49 76l-49 -76h-90l93 135h94l93 -135h-92z" />
    <glyph glyph-name="caron" unicode="&#x2c7;" horiz-adv-x="410" 
d="M157 590l-93 135h92l49 -76l49 76h90l-93 -135h-94z" />
    <glyph glyph-name="breve" unicode="&#x2d8;" horiz-adv-x="412" 
d="M206 592q-113 0 -136 114l55 21q23 -54 81 -54t81 54l55 -21q-23 -114 -136 -114z" />
    <glyph glyph-name="dotaccent" unicode="&#x2d9;" horiz-adv-x="412" 
d="M149 605v111h115v-111h-115z" />
    <glyph glyph-name="ring" unicode="&#x2da;" horiz-adv-x="412" 
d="M310 679q0 -44 -28.5 -70.5t-75.5 -26.5q-46 0 -75 26.5t-29 70.5q0 45 29 72.5t75 27.5q47 0 75.5 -27.5t28.5 -72.5zM162 680q0 -22 12 -34t32 -12t32 12t12 34t-12 34t-32 12t-32 -12t-12 -34z" />
    <glyph glyph-name="ogonek" unicode="&#x2db;" horiz-adv-x="412" 
d="M218 -232q-46 0 -74.5 22t-28.5 63q0 80 117 147h59q-82 -63 -82 -122q0 -42 40 -42q11 0 27 6l13 -55q-29 -19 -71 -19z" />
    <glyph glyph-name="tilde" unicode="&#x2dc;" horiz-adv-x="412" 
d="M151 636q-30 0 -35 -40l-46 13q-3 47 19.5 78t63.5 31q23 0 61 -19t54 -19q29 0 34 41l46 -14q3 -48 -19 -78.5t-64 -30.5q-23 0 -61 19t-53 19z" />
    <glyph glyph-name="hungarumlaut" unicode="&#x2dd;" horiz-adv-x="412" 
d="M128 590h-70l48 145h99zM277 590h-69l47 145h99z" />
    <glyph glyph-name="Wgrave" unicode="&#x1e80;" horiz-adv-x="978" 
d="M550 779h-93l-105 128h136zM222 -4l-189 720h128l131 -543h7l147 543h101l143 -543h7l135 543h114l-190 -720h-118l-143 524h-5l-148 -524h-120z" />
    <glyph glyph-name="wgrave" unicode="&#x1e81;" horiz-adv-x="830" 
d="M179 -4l-156 529h120l104 -379h3l118 379h107l106 -378h6l114 378h107l-164 -529h-114l-112 404h-5l-123 -404h-111zM384 590l-87 145h114l54 -145h-81z" />
    <glyph glyph-name="Wacute" unicode="&#x1e82;" horiz-adv-x="978" 
d="M536 779h-92l62 128h135zM222 -4l-189 720h128l131 -543h7l147 543h101l143 -543h7l135 543h114l-190 -720h-118l-143 524h-5l-148 -524h-120z" />
    <glyph glyph-name="wacute" unicode="&#x1e83;" horiz-adv-x="830" 
d="M451 590h-82l53 145h115zM179 -4l-156 529h120l104 -379h3l118 379h107l106 -378h6l114 378h107l-164 -529h-114l-112 404h-5l-123 -404h-111z" />
    <glyph glyph-name="Wdieresis" unicode="&#x1e84;" horiz-adv-x="978" 
d="M337 793v108h112v-108h-112zM531 793v108h112v-108h-112zM222 -4l-189 720h128l131 -543h7l147 543h101l143 -543h7l135 543h114l-190 -720h-118l-143 524h-5l-148 -524h-120z" />
    <glyph glyph-name="wdieresis" unicode="&#x1e85;" horiz-adv-x="830" 
d="M279 606v106h103v-106h-103zM448 606v106h103v-106h-103zM179 -4l-156 529h120l104 -379h3l118 379h107l106 -378h6l114 378h107l-164 -529h-114l-112 404h-5l-123 -404h-111z" />
    <glyph glyph-name="Ygrave" unicode="&#x1ef2;" horiz-adv-x="615" 
d="M369 0h-127v306l-222 410h136l159 -304h6l160 304h114l-226 -410v-306zM368 779h-93l-105 128h136z" />
    <glyph glyph-name="ygrave" unicode="&#x1ef3;" horiz-adv-x="504" 
d="M34 -227v84q55 0 88 11q38 14 59 75l19 55l-185 527h128l114 -379h3l124 379h105l-209 -592q-23 -65 -45.5 -97t-69.5 -49q-37 -14 -131 -14zM229 590l-87 145h114l54 -145h-81z" />
    <glyph glyph-name="uni2009" unicode="&#x2009;" horiz-adv-x="100" 
 />
    <glyph glyph-name="endash" unicode="&#x2013;" horiz-adv-x="568" 
d="M52 226v91h464v-91h-464z" />
    <glyph glyph-name="emdash" unicode="&#x2014;" horiz-adv-x="764" 
d="M52 226v91h660v-91h-660z" />
    <glyph glyph-name="quoteleft" unicode="&#x2018;" horiz-adv-x="241" 
d="M55 443v174l125 109v-77l-70 -62v-9h70v-135h-125z" />
    <glyph glyph-name="quoteright" unicode="&#x2019;" horiz-adv-x="241" 
d="M186 542l-125 -109v77l70 62v10h-70v134h125v-174z" />
    <glyph glyph-name="quotesinglbase" unicode="&#x201a;" horiz-adv-x="241" 
d="M186 -20l-125 -110v78l70 61v10h-70v134h125v-173z" />
    <glyph glyph-name="quotedblleft" unicode="&#x201c;" horiz-adv-x="425" 
d="M180 726v-77l-70 -62v-9h70v-135h-125v174zM364 726v-77l-70 -62v-9h70v-135h-125v174z" />
    <glyph glyph-name="quotedblright" unicode="&#x201d;" horiz-adv-x="425" 
d="M245 433v77l70 62v10h-70v134h125v-174zM186 542l-125 -109v77l70 62v10h-70v134h125v-174z" />
    <glyph glyph-name="quotedblbase" unicode="&#x201e;" horiz-adv-x="425" 
d="M245 -130v78l70 61v10h-70v134h125v-173zM186 -20l-125 -110v78l70 61v10h-70v134h125v-173z" />
    <glyph glyph-name="dagger" unicode="&#x2020;" horiz-adv-x="493" 
d="M193 -37v551h-152v91h152v177h104v-177h156v-91h-156v-551h-104z" />
    <glyph glyph-name="daggerdbl" unicode="&#x2021;" horiz-adv-x="493" 
d="M193 -37v177h-152v91h152v283h-152v91h152v177h104v-177h156v-91h-156v-283h156v-91h-156v-177h-104z" />
    <glyph glyph-name="bullet" unicode="&#x2022;" horiz-adv-x="413" 
d="M87 248v240h239v-240h-239z" />
    <glyph glyph-name="ellipsis" unicode="&#x2026;" horiz-adv-x="802" 
d="M591 0v174h129v-174h-129zM337 0v174h129v-174h-129zM83 0v174h129v-174h-129z" />
    <glyph glyph-name="perthousand" unicode="&#x2030;" horiz-adv-x="1165" 
d="M978 -15q-72 0 -118 54.5t-46 138.5q0 85 46 139.5t118 54.5t118 -54.5t46 -139.5q0 -84 -46 -138.5t-118 -54.5zM978 53q66 0 66 125q0 126 -66 126q-68 0 -68 -126q0 -125 68 -125zM225 1h-94l445 734h95zM23 541q0 85 46 139.5t118 54.5t118 -54.5t46 -139.5
q0 -84 -46 -138.5t-118 -54.5t-118 54.5t-46 138.5zM119 541q0 -125 68 -125q67 0 67 125q0 126 -67 126q-68 0 -68 -126zM605 -15q-72 0 -118 54.5t-46 138.5q0 85 46 139.5t118 54.5t118 -54.5t46 -139.5q0 -84 -46 -138.5t-118 -54.5zM605 53q66 0 66 125q0 126 -66 126
q-69 0 -69 -126q0 -125 69 -125z" />
    <glyph glyph-name="uni2032" unicode="&#x2032;" horiz-adv-x="255" 
d="M126 453h-70l27 263h128z" />
    <glyph glyph-name="uni2033" unicode="&#x2033;" horiz-adv-x="433" 
d="M305 453h-70l27 263h128zM126 453h-70l27 263h128z" />
    <glyph glyph-name="guilsinglleft" unicode="&#x2039;" horiz-adv-x="285" 
d="M164 66l-131 187l131 188h97l-113 -188l113 -187h-97z" />
    <glyph glyph-name="guilsinglright" unicode="&#x203a;" horiz-adv-x="285" 
d="M240 253l-131 -187h-97l113 187l-113 188h97z" />
    <glyph glyph-name="fraction" unicode="&#x2044;" horiz-adv-x="138" 
d="M-194 0l457 715h69l-457 -715h-69z" />
    <glyph glyph-name="Euro" unicode="&#x20ac;" horiz-adv-x="673" 
d="M522 264l108 -33q0 -116 -71 -181.5t-171 -65.5q-235 0 -279 263h-84v72h77q-1 13 -1 39q0 23 1 35h-77v72h83q18 120 84.5 193.5t195.5 73.5q102 0 170 -56.5t70 -173.5l-108 -35q4 91 -30.5 136t-100.5 45q-126 0 -153 -183h196v-72h-202q-1 -11 -1 -35q0 -26 1 -39
h201v-72h-195q27 -179 153 -179q67 0 102.5 52t30.5 144z" />
    <glyph glyph-name="trademark" unicode="&#x2122;" horiz-adv-x="661" 
d="M108 427v241h-85v48h238v-48h-84v-241h-69zM422 427l-68 208v-208h-54v289h87l66 -194l65 194h86v-289h-64v208l-69 -208h-49z" />
    <glyph glyph-name="onethird" unicode="&#x2153;" horiz-adv-x="820" 
d="M215 332h-83v286h-77v52l37 3q26 3 39 13.5t22 35.5h62v-390zM613 -8q-69 0 -111.5 35t-36.5 101l76 15q-4 -38 15 -65.5t57 -27.5q29 0 46 16.5t17 46.5q0 63 -78 63h-48v54h48q65 0 65 54q0 25 -16 39t-41 14q-32 0 -48 -20.5t-13 -54.5l-77 9q-4 62 38 93t106 31
q58 0 97.5 -28t39.5 -74q0 -68 -80 -85v-6q40 -7 67 -31.5t27 -64.5q0 -52 -40 -83t-110 -31zM107 0l457 715h69l-457 -715h-69z" />
    <glyph glyph-name="twothirds" unicode="&#x2154;" horiz-adv-x="931" 
d="M64 332v54q111 58 157 102.5t46 106.5q0 35 -16.5 54t-46.5 19q-45 0 -62.5 -41.5t5.5 -107.5l-79 8q-28 81 11.5 140t127.5 59q67 0 107 -35.5t40 -95.5q0 -122 -171 -198v-7h176v-58h-295zM723 -8q-69 0 -111.5 35t-36.5 101l76 15q-4 -38 15 -65.5t57 -27.5
q29 0 46 16.5t17 46.5q0 63 -78 63h-48v54h48q65 0 65 54q0 25 -16 39t-41 14q-32 0 -48 -20.5t-13 -54.5l-77 9q-4 62 38 93t106 31q58 0 97.5 -28t39.5 -74q0 -68 -80 -85v-6q40 -7 67 -31.5t27 -64.5q0 -52 -40 -83t-110 -31zM217 0l457 715h69l-457 -715h-69z" />
    <glyph glyph-name="oneeighth" unicode="&#x215b;" horiz-adv-x="837" 
d="M215 332h-83v286h-77v52l37 3q26 3 39 13.5t22 35.5h62v-390zM625 -8q-73 0 -115 32t-42 79q0 73 89 94v4q-74 23 -74 88q0 48 38 77t104 29q65 0 104 -29t39 -77q0 -64 -76 -88v-4q88 -20 88 -94q0 -47 -41.5 -79t-113.5 -32zM625 227q28 0 44.5 15.5t16.5 39.5
q0 25 -16 40.5t-45 15.5q-30 0 -45.5 -15.5t-15.5 -40.5q0 -24 16.5 -39.5t44.5 -15.5zM625 49q32 0 50.5 17.5t18.5 45.5q0 26 -18.5 42t-50.5 16t-51.5 -16t-19.5 -42q0 -28 19.5 -45.5t51.5 -17.5zM107 0l457 715h69l-457 -715h-69z" />
    <glyph glyph-name="threeeighths" unicode="&#x215c;" horiz-adv-x="918" 
d="M202 323q-69 0 -111.5 35t-36.5 101l76 15q-4 -38 15 -65.5t57 -27.5q29 0 46 16.5t17 46.5q0 63 -78 63h-48v54h48q65 0 65 54q0 25 -16 39t-41 14q-32 0 -48 -20.5t-13 -54.5l-77 9q-4 62 38 93t106 31q58 0 97.5 -28t39.5 -74q0 -68 -80 -85v-6q40 -7 67 -31.5
t27 -64.5q0 -52 -40 -83t-110 -31zM706 -8q-73 0 -115 32t-42 79q0 73 89 94v4q-74 23 -74 88q0 48 38 77t104 29q65 0 104 -29t39 -77q0 -64 -76 -88v-4q88 -20 88 -94q0 -47 -41.5 -79t-113.5 -32zM706 227q28 0 44.5 15.5t16.5 39.5q0 25 -16 40.5t-45 15.5
q-30 0 -45.5 -15.5t-15.5 -40.5q0 -24 16.5 -39.5t44.5 -15.5zM706 49q32 0 50.5 17.5t18.5 45.5q0 26 -18.5 42t-50.5 16t-51.5 -16t-19.5 -42q0 -28 19.5 -45.5t51.5 -17.5zM187 0l457 715h69l-457 -715h-69z" />
    <glyph glyph-name="fiveeighths" unicode="&#x215d;" horiz-adv-x="923" 
d="M208 323q-62 0 -104.5 36t-38.5 93l77 16q-4 -34 14.5 -59.5t51.5 -25.5q30 0 47 22.5t17 64.5q0 38 -17 59t-47 21q-47 0 -71 -50l-61 14l26 204h218v-57h-168l-12 -91q33 36 86 36q60 0 97 -37t37 -99q0 -67 -42 -107t-110 -40zM711 -8q-73 0 -115 32t-42 79
q0 73 89 94v4q-74 23 -74 88q0 48 38 77t104 29q65 0 104 -29t39 -77q0 -64 -76 -88v-4q88 -20 88 -94q0 -47 -41.5 -79t-113.5 -32zM711 227q28 0 44.5 15.5t16.5 39.5q0 25 -16 40.5t-45 15.5q-30 0 -45.5 -15.5t-15.5 -40.5q0 -24 16.5 -39.5t44.5 -15.5zM711 49
q32 0 50.5 17.5t18.5 45.5q0 26 -18.5 42t-50.5 16t-51.5 -16t-19.5 -42q0 -28 19.5 -45.5t51.5 -17.5zM193 0l457 715h69l-457 -715h-69z" />
    <glyph glyph-name="seveneighths" unicode="&#x215e;" horiz-adv-x="818" 
d="M145 332h-84l148 327h-176v59h259v-47zM606 -8q-73 0 -115 32t-42 79q0 73 89 94v4q-74 23 -74 88q0 48 38 77t104 29q65 0 104 -29t39 -77q0 -64 -76 -88v-4q88 -20 88 -94q0 -47 -41.5 -79t-113.5 -32zM606 227q28 0 44.5 15.5t16.5 39.5q0 25 -16 40.5t-45 15.5
q-30 0 -45.5 -15.5t-15.5 -40.5q0 -24 16.5 -39.5t44.5 -15.5zM606 49q32 0 50.5 17.5t18.5 45.5q0 26 -18.5 42t-50.5 16t-51.5 -16t-19.5 -42q0 -28 19.5 -45.5t51.5 -17.5zM88 0l457 715h69l-457 -715h-69z" />
    <glyph glyph-name="minus" unicode="&#x2212;" horiz-adv-x="524" 
d="M55 276v92h414v-92h-414z" />
    <glyph glyph-name="approxequal" unicode="&#x2248;" horiz-adv-x="553" 
d="M194 414q-25 0 -43 -17t-24 -40l-76 30q9 53 46.5 90t94.5 37q42 0 101 -26.5t79 -26.5q23 0 39.5 16.5t22.5 38.5l77 -31q-11 -54 -47.5 -89.5t-94.5 -35.5q-39 0 -96 27t-79 27zM194 208q-25 0 -43 -17t-24 -39l-76 30q9 53 46.5 90t94.5 37q42 0 101 -27t79 -27
q23 0 39.5 16.5t22.5 39.5l77 -31q-11 -54 -47.5 -89.5t-94.5 -35.5q-39 0 -96 26.5t-79 26.5z" />
    <glyph glyph-name="notequal" unicode="&#x2260;" horiz-adv-x="531" 
d="M139 73l169 498h84l-169 -498h-84zM55 369v93h420v-93h-420zM55 178v93h420v-93h-420z" />
    <glyph glyph-name="lessequal" unicode="&#x2264;" horiz-adv-x="507" 
d="M61 0v91h383v-91h-383zM444 138l-383 169v108l383 169v-104l-267 -111v-17l267 -111v-103z" />
    <glyph glyph-name="greaterequal" unicode="&#x2265;" horiz-adv-x="507" 
d="M63 0v91h383v-91h-383zM434 304l-383 -169v103l267 111v17l-267 111v104l383 -169v-108z" />
    <glyph glyph-name="uni24C5" unicode="&#x24c5;" horiz-adv-x="838" 
d="M420 -17q-157 0 -261.5 99.5t-104.5 275.5t104.5 275.5t261.5 99.5q156 0 260 -99.5t104 -275.5q0 -118 -50.5 -204.5t-132 -128.5t-181.5 -42zM420 36q133 0 219 85t86 237t-86 237t-219 85q-134 0 -220.5 -85t-86.5 -237q0 -153 86 -237.5t221 -84.5zM285 170v383h164
q143 0 143 -115q0 -57 -38 -88.5t-105 -31.5h-78v-148h-86zM371 379h74q59 0 59 59q0 56 -59 56h-74v-115z" />
    <glyph glyph-name="zero.tab" unicode="&#xe44f;" 
d="M596 358q0 -75 -14 -138.5t-44 -118t-84.5 -86t-127.5 -31.5t-127.5 31.5t-84.5 86t-44 118t-14 138.5t14 138.5t44 118t84.5 86t127.5 31.5t127.5 -31.5t84.5 -86t44 -118t14 -138.5zM181 358q0 -144 31 -217t114 -73t114 73t31 217t-31 217.5t-114 73.5t-114 -73.5
t-31 -217.5z" />
    <glyph glyph-name="one.tab" unicode="&#xe450;" 
d="M556 0h-450v88h170v479h-161v74l53 3q50 4 79.5 20.5t46.5 58.5h99v-635h163v-88z" />
    <glyph glyph-name="two.tab" unicode="&#xe451;" 
d="M77 0v80q164 100 239 169q66 62 99.5 121.5t33.5 130.5q0 68 -33 108t-95 40q-65 0 -102.5 -47t-37.5 -126q0 -67 23 -133l-110 13q-26 61 -26 125q0 115 67 183t187 68q116 0 185.5 -64t69.5 -167q0 -129 -119 -246q-75 -72 -217 -158v-7h354v-90h-518z" />
    <glyph glyph-name="three.tab" unicode="&#xe452;" 
d="M324 -16q-105 0 -179.5 53t-74.5 156q0 23 6 52l117 28q-9 -33 -9 -66q0 -62 36.5 -101t103.5 -39q65 0 98.5 34t33.5 95q0 67 -35 104t-119 37h-94v81h93q133 0 133 120q0 52 -30.5 81.5t-82.5 29.5q-64 0 -100.5 -41.5t-25.5 -122.5l-110 12q-11 116 58.5 175.5
t182.5 59.5q107 0 170.5 -51.5t63.5 -133.5q0 -66 -41.5 -108.5t-106.5 -52.5v-8q77 -10 124.5 -57t47.5 -128q0 -93 -69.5 -151t-190.5 -58z" />
    <glyph glyph-name="four.tab" unicode="&#xe453;" 
d="M382 0v160h-331v74l320 489h129v-479h115v-84h-115v-160h-118zM164 244h218v335h-4l-214 -329v-6z" />
    <glyph glyph-name="five.tab" unicode="&#xe454;" 
d="M320 -16q-113 0 -183.5 64.5t-61.5 173.5l113 31q-12 -78 24.5 -132t105.5 -54t103.5 50t34.5 140q0 84 -33.5 128.5t-94.5 44.5q-51 0 -86 -33.5t-50 -84.5l-101 28l44 376h391v-91h-311l-22 -182q54 70 161 70q104 0 167 -70.5t63 -185.5q0 -125 -72 -199t-192 -74z
" />
    <glyph glyph-name="six.tab" unicode="&#xe455;" 
d="M595 242q0 -116 -73 -187t-188 -71q-138 0 -209 108q-59 91 -59 242q0 182 70 290t215 108q95 0 156.5 -51t61.5 -150l-106 -16q2 70 -31.5 102t-87.5 32q-57 0 -93.5 -39.5t-50 -93.5t-15.5 -123q63 89 183 89q102 0 164.5 -64.5t62.5 -175.5zM334 66q60 0 97 45t37 125
q0 76 -33.5 120.5t-96.5 44.5q-60 0 -99 -43t-39 -121q0 -69 32 -116q36 -55 102 -55z" />
    <glyph glyph-name="seven.tab" unicode="&#xe456;" 
d="M279 0h-129l295 622h-363v94h486v-86z" />
    <glyph glyph-name="eight.tab" unicode="&#xe457;" 
d="M326 -16q-132 0 -201 59t-69 143q0 131 152 177v3q-62 21 -98.5 66t-36.5 108q0 81 68 136.5t185 55.5t185 -55.5t68 -136.5q0 -62 -38.5 -108.5t-96.5 -65.5v-3q152 -46 152 -177q0 -84 -69 -143t-201 -59zM326 407q61 0 95 34t34 89q0 119 -129 119t-129 -119
q0 -55 34 -89t95 -34zM326 67q68 0 105 34.5t37 94.5t-37.5 94t-104.5 34t-104.5 -34t-37.5 -94t37 -94.5t105 -34.5z" />
    <glyph glyph-name="nine.tab" unicode="&#xe458;" 
d="M318 315q59 0 97 43.5t38 123.5q0 69 -31 115q-37 53 -103 53q-62 0 -98 -45t-36 -125q0 -75 34.5 -120t98.5 -45zM304 -16q-98 0 -160.5 50t-64.5 148l106 16q-2 -69 34 -100t92 -31q147 0 157 254q-64 -87 -181 -87q-101 0 -165 65.5t-64 174.5q0 117 72.5 187.5
t189.5 70.5q125 0 196 -90t71 -260q0 -118 -28 -205t-93 -140t-162 -53z" />
    <glyph glyph-name="cent.tab" unicode="&#xe459;" 
d="M213 260q0 -164 95 -192v383q-95 -30 -95 -191zM470 194l85 -33q-39 -149 -174 -170v-110h-73v107q-104 8 -161 81t-57 191q0 114 59.5 187.5t158.5 83.5v100h73v-101q137 -17 173 -163l-84 -33q-21 96 -89 116v-380q67 22 89 124z" />
    <glyph glyph-name="dollar.tab" unicode="&#xe45a;" 
d="M365 -119h-80v106q-99 14 -158.5 81.5t-69.5 171.5l95 16q12 -152 133 -179v185l80 -9v-179q111 11 111 101q0 46 -40.5 75.5t-128.5 57.5q-61 20 -99 37t-71 42.5t-47.5 60t-14.5 82.5q0 80 54 136t156 65v104h80v-106q88 -12 141.5 -69.5t61.5 -150.5l-94 -20
q-8 126 -109 151v-177l-80 13v167q-49 -6 -72 -31t-23 -61q0 -47 34.5 -71.5t107.5 -48.5q134 -40 198.5 -89t64.5 -136q0 -97 -59.5 -155t-170.5 -66v-104z" />
    <glyph glyph-name="Euro.tab" unicode="&#xe45b;" 
d="M486 260l107 -33q0 -113 -67.5 -178t-159.5 -65q-219 0 -253 263h-67v72h62q-1 13 -1 39v35h-61v72h66q29 267 254 267q96 0 160.5 -56t64.5 -171l-107 -34q3 89 -28 133t-90 44q-60 0 -89 -47t-35 -136h152v-72h-156v-74h155v-72h-152q6 -88 35 -133.5t90 -45.5
t92.5 50.5t27.5 141.5z" />
    <glyph glyph-name="_1" horiz-adv-x="0" 
 />
    <glyph glyph-name="space_uni0326" horiz-adv-x="412" 
d="M151 -190l64 36v11h-65v81h112v-114l-111 -63v49z" />
    <glyph glyph-name="space_uni0326.alt" horiz-adv-x="413" 
d="M261 711l-64 -36v-11h65v-81h-112v114l111 63v-49z" />
    <glyph glyph-name="dollar.old" horiz-adv-x="574" 
d="M165 510q0 -36 23 -58.5t67 -40.5v186q-44 -5 -67 -29t-23 -58zM416 160q0 37 -22.5 60.5t-73.5 44.5v-199q43 6 69.5 29t26.5 65zM320 -122h-68v111q-88 12 -142 74t-60 159l83 15q2 -69 34 -112.5t85 -55.5v222q-92 33 -139.5 76t-47.5 121q0 76 50.5 128.5t139.5 58.5
v104h68v-106q79 -12 125.5 -66t50.5 -140l-84 -19q0 54 -24.5 91.5t-67.5 51.5v-204q99 -38 149.5 -80.5t50.5 -116.5q0 -84 -54 -139.5t-149 -63.5v-109z" />
    <glyph glyph-name="Euro.old" horiz-adv-x="633" 
d="M490 239l98 -31q0 -106 -64 -166.5t-154 -60.5q-114 0 -174 67t-76 178h-76v67h70q-1 12 -1 36q0 23 1 34h-70v67h75q34 250 251 250q91 0 153 -52t64 -160l-98 -32q3 82 -29.5 124t-89.5 42q-59 0 -90 -44t-41 -128h176v-67h-181v-34q0 -24 1 -36h179v-67h-175
q19 -166 131 -166q61 0 93 47.5t27 131.5z" />
    <glyph glyph-name="sterling.old" horiz-adv-x="660" 
d="M480 -12q-30 0 -65 15t-53 27t-60 42q-54 -82 -148 -82q-55 0 -95 28t-40 78q0 51 39 82t98 31q53 0 114 -27v5q0 36 -27 92h-154v65h118q-39 74 -39 137q0 90 62.5 144.5t158.5 54.5q42 0 79 -12.5t68 -39t46 -74t6 -110.5l-96 -14q11 83 -18.5 127.5t-82.5 44.5
q-50 0 -77.5 -34.5t-27.5 -88.5q0 -15 2 -28.5t6.5 -29t7 -24.5t10 -28t9.5 -25h158v-65h-138q5 -27 5 -53q0 -43 -10 -77q4 -2 21 -11t22 -11.5l19 -9.5t21 -9.5t18 -6t20 -5t18 -1.5q78 0 66 99h62q22 -103 -17.5 -154.5t-105.5 -51.5zM156 47q63 0 95 61q-58 37 -101 37
q-29 0 -47.5 -14t-18.5 -35q0 -22 21 -35.5t51 -13.5z" />
    <glyph glyph-name="yen.old" horiz-adv-x="557" 
d="M489 122h-155v-122h-113v122h-156v64h156v68h-156v64h130l-166 351h118l133 -297h7l134 297h108l-173 -351h133v-64h-155v-68h155v-64z" />
    <glyph glyph-name="florin.old" horiz-adv-x="485" 
d="M2 -91l13 83h19.5h18.5t14 0.5t14 1.5t11.5 3.5t12.5 6.5q20 11 31 36t20 79l31 187h-90v84h102l18 114q11 71 38.5 107.5t75.5 51.5q51 20 149 12l-13 -83h-19.5h-18t-14 -0.5t-14.5 -1.5t-11 -3.5t-12 -6.5q-20 -11 -31 -36t-20 -79l-13 -75h111v-84h-123l-36 -225
q-12 -72 -40 -109.5t-74 -50.5q-50 -18 -150 -12z" />
    <glyph glyph-name="zero.old" horiz-adv-x="614" 
d="M306 -10q-117 0 -184 76.5t-67 196.5t67 196t184 76t185 -76t68 -196t-68 -196.5t-185 -76.5zM306 66q128 0 128 197q0 196 -128 196q-68 0 -97 -50.5t-29 -145.5q0 -197 126 -197z" />
    <glyph glyph-name="one.old" horiz-adv-x="292" 
d="M88 0v525h116v-525h-116z" />
    <glyph glyph-name="two.old" horiz-adv-x="546" 
d="M48 0v67q182 91 240 142q74 63 74 142q0 49 -26 78.5t-76 29.5q-68 0 -98.5 -54.5t-12.5 -141.5l-98 13q-23 124 38 191.5t176 67.5q103 0 162.5 -51t59.5 -129q0 -102 -106 -178q-22 -15 -46.5 -28.5t-64.5 -33t-55 -26.5v-5h289v-84h-456z" />
    <glyph glyph-name="three.old" horiz-adv-x="558" 
d="M270 -173q-101 0 -167.5 56.5t-60.5 167.5l103 26q-4 -77 27.5 -125.5t96.5 -48.5q54 0 86.5 29t32.5 89q0 126 -149 126h-67v79h54q143 0 143 121q0 53 -28 82.5t-77 29.5q-56 0 -90 -39t-30 -115l-98 17q-4 108 59.5 160.5t166.5 52.5q100 0 160.5 -48t60.5 -132
q0 -69 -42.5 -109t-113.5 -53v-5q81 -10 128 -54.5t47 -117.5q0 -85 -67.5 -137t-174.5 -52z" />
    <glyph glyph-name="four.old" horiz-adv-x="564" 
d="M318 -133v168h-303v72l285 422h134v-414h110v-80h-110v-168h-116zM114 115h204v299h-3l-201 -297v-2z" />
    <glyph glyph-name="five.old" horiz-adv-x="569" 
d="M284 -173q-101 0 -168 57t-63 155l103 28q-2 -73 32 -118.5t94 -45.5t94.5 45.5t33.5 120.5q0 74 -34 115t-86 41q-43 0 -77 -27t-52 -70l-95 13l41 384h363v-84h-284l-21 -203q54 65 153 65q95 0 156 -62t61 -170q0 -112 -72 -178t-179 -66z" />
    <glyph glyph-name="six.old" horiz-adv-x="608" 
d="M309 -12q-126 0 -189 86q-64 83 -64 237q0 109 26.5 190t87 130t151.5 49t147.5 -47.5t56.5 -139.5l-99 -15q2 65 -28.5 95.5t-79.5 30.5q-140 0 -150 -240h4q56 87 167 87q96 0 155.5 -60t59.5 -165q0 -108 -69.5 -173t-175.5 -65zM307 64q56 0 89 41t33 115
q0 71 -30 112.5t-88 41.5q-56 0 -91 -40.5t-35 -113.5q0 -68 28 -108q31 -48 94 -48z" />
    <glyph glyph-name="seven.old" horiz-adv-x="474" 
d="M57 -130l275 575h-315v80h430v-77l-267 -578h-123z" />
    <glyph glyph-name="eight.old" horiz-adv-x="590" 
d="M295 -12q-122 0 -185.5 54t-63.5 132q0 61 42 104t112 59v4q-56 13 -96.5 56.5t-40.5 102.5q0 75 62.5 127.5t169.5 52.5q108 0 170 -52t62 -128q0 -59 -40 -104t-94 -55v-4q70 -16 110.5 -58.5t40.5 -104.5q0 -78 -63.5 -132t-185.5 -54zM295 377q49 0 80.5 32t31.5 83
q0 52 -29.5 82t-82.5 30q-52 0 -82 -30.5t-30 -81.5t31.5 -83t80.5 -32zM295 64q57 0 90.5 33t33.5 86q0 52 -33.5 85t-90.5 33q-56 0 -90 -33t-34 -85t34 -85.5t90 -33.5z" />
    <glyph glyph-name="nine.old" horiz-adv-x="608" 
d="M297 144q56 0 91 40.5t35 114.5q0 70 -33 116q-33 44 -89 44q-55 0 -88.5 -42.5t-33.5 -116.5q0 -72 30 -114t88 -42zM287 -173q-85 0 -143 42.5t-66 123.5l99 20q2 -57 34.5 -83.5t77.5 -26.5q138 0 148 251h-4q-54 -87 -165 -87q-95 0 -154.5 61t-59.5 166
q0 109 69 175t176 66q114 0 178 -77q74 -87 74 -253q0 -173 -64 -275.5t-200 -102.5z" />
    <glyph glyph-name="space.tab" horiz-adv-x="640" 
 />
    <glyph glyph-name="sterling.tab" 
d="M483 -14q-74 0 -173 78q-53 -78 -148 -78q-61 0 -104 30t-43 87q0 53 39 85.5t106 32.5q56 0 121 -30v8q0 47 -32 103h-169v72h125q-52 84 -52 153q0 91 67.5 148t164.5 57q48 0 88.5 -13t73 -40.5t47 -77.5t4.5 -116l-105 -17q11 89 -17 134.5t-87 45.5
q-49 0 -77.5 -36.5t-28.5 -91.5q0 -10 1 -20.5t2.5 -18.5t5 -19.5t5 -17.5t7 -18.5t7 -16t8 -18.5t7.5 -17h182v-72h-155q8 -34 8 -66q0 -38 -11 -84q34 -20 47.5 -27t38 -16t43.5 -9q78 0 69 106h68q11 -61 5 -103t-28.5 -68t-50 -37.5t-59.5 -11.5zM160 47q62 0 96 59
q-61 47 -106 47q-29 0 -45 -15t-16 -36q0 -26 20 -40.5t51 -14.5z" />
    <glyph glyph-name="yen.tab" 
d="M547 139h-162v-139h-122v139h-162v72h162v74h-162v72h134l-184 359h131l147 -308h7l149 308h116l-186 -359h132v-72h-162v-74h162v-72z" />
    <glyph glyph-name="florin.tab" 
d="M231 -79q-54 -20 -159 -12l15 86h20h19t15 0.5t15 1.5t11.5 3.5t12.5 6.5q20 11 31.5 36.5t20.5 80.5l31 191h-93v84h106l25 155q11 72 41 110t79 53q54 20 159 12l-15 -85h-15.5h-14.5h-12.5t-12 -0.5t-10 -1.5t-10.5 -2.5t-9 -3.5t-9 -5q-20 -11 -31.5 -36.5
t-20.5 -80.5l-18 -115h115v-84h-129l-37 -230q-21 -133 -120 -164z" />
    <glyph glyph-name="percent.tab" 
d="M164 401q-62 0 -97 45t-35 121t35 121.5t97 45.5t97.5 -45.5t35.5 -121.5t-35.5 -121t-97.5 -45zM179 1h-74l376 731h73zM164 468q28 0 40.5 23t12.5 76q0 54 -12.5 77.5t-40.5 23.5q-55 0 -55 -101q0 -99 55 -99zM489 -14q-62 0 -97.5 45t-35.5 121t35.5 121.5
t97.5 45.5t97 -45.5t35 -121.5t-35 -121t-97 -45zM489 53q28 0 40 22.5t12 76.5t-12 77.5t-40 23.5q-56 0 -56 -101q0 -99 56 -99z" />
    <glyph glyph-name="perthousand.tab" horiz-adv-x="972" 
d="M807 -14q-62 0 -98 45t-36 121t36 121.5t98 45.5t98 -45.5t36 -121.5t-35.5 -121t-98.5 -45zM807 53q28 0 40.5 23t12.5 76q0 54 -12.5 77.5t-40.5 23.5q-55 0 -55 -101q0 -99 55 -99zM164 401q-62 0 -97 45t-35 121t35 121.5t97 45.5t97.5 -45.5t35.5 -121.5t-35.5 -121
t-97.5 -45zM179 1h-74l376 731h73zM164 468q28 0 40.5 23t12.5 76q0 54 -12.5 77.5t-40.5 23.5q-55 0 -55 -101q0 -99 55 -99zM489 -14q-62 0 -97.5 45t-35.5 121t35.5 121.5t97.5 45.5t97 -45.5t35 -121.5t-35 -121t-97 -45zM489 53q28 0 40 22.5t12 76.5t-12 77.5
t-40 23.5q-56 0 -56 -101q0 -99 56 -99z" />
    <glyph glyph-name="plus.tab" 
d="M275 102v174h-168v92h168v174h101v-174h168v-92h-168v-174h-101z" />
    <glyph glyph-name="minus.tab" 
d="M119 276v92h414v-92h-414z" />
    <glyph glyph-name="plusminus.tab" 
d="M111 0v91h430v-91h-430zM275 131v174h-168v92h168v174h101v-174h168v-92h-168v-174h-101z" />
    <glyph glyph-name="multiply.tab" horiz-adv-x="653" 
d="M168 87l-65 65l161 160l-155 153l65 65l153 -156l153 156l65 -65l-156 -153l161 -160l-65 -65l-158 161z" />
    <glyph glyph-name="divide.tab" 
d="M271 449v118h110v-118h-110zM106 276v92h440v-92h-440zM271 77v118h111v-118h-111z" />
    <glyph glyph-name="equal.tab" 
d="M116 369v93h420v-93h-420zM116 178v93h420v-93h-420z" />
    <glyph glyph-name="notequal.tab" 
d="M199 73l169 498h83l-169 -498h-83zM116 369v93h420v-93h-420zM116 178v93h420v-93h-420z" />
    <glyph glyph-name="approxequal.tab" horiz-adv-x="653" 
d="M239 414q-25 0 -43 -17t-24 -40l-76 30q9 53 46.5 90t94.5 37q42 0 101 -26.5t79 -26.5q23 0 39.5 16.5t22.5 38.5l77 -31q-11 -54 -47.5 -89.5t-94.5 -35.5q-39 0 -96 27t-79 27zM239 208q-25 0 -43 -17t-24 -39l-76 30q9 53 46.5 90t94.5 37q42 0 101 -27t79 -27
q23 0 39.5 16.5t22.5 39.5l77 -31q-11 -54 -47.5 -89.5t-94.5 -35.5q-39 0 -96 26.5t-79 26.5z" />
    <glyph glyph-name="less.tab" 
d="M514 119l-383 169v108l383 169v-104l-267 -111v-17l267 -111v-103z" />
    <glyph glyph-name="greater.tab" 
d="M509 288l-383 -169v103l267 111v17l-267 111v104l383 -169v-108z" />
    <glyph glyph-name="lessequal.tab" 
d="M135 0v91h382v-91h-382zM518 138l-383 169v108l383 169v-104l-267 -111v-17l267 -111v-103z" />
    <glyph glyph-name="greaterequal.tab" 
d="M135 0v91h382v-91h-382zM505 304l-383 -169v103l267 111v17l-267 111v104l383 -169v-108z" />
    <glyph glyph-name="period.tab" horiz-adv-x="332" 
d="M102 0v174h129v-174h-129z" />
    <glyph glyph-name="comma.tab" horiz-adv-x="332" 
d="M102 -176v106l73 59v28h-73v157h129v-244z" />
    <glyph glyph-name="colon.tab" horiz-adv-x="332" 
d="M102 347v174h129v-174h-129zM102 0v174h129v-174h-129z" />
    <glyph glyph-name="semicolon.tab" horiz-adv-x="332" 
d="M102 347v174h129v-174h-129zM103 -176v106l73 59v28h-73v157h129v-244z" />
    <glyph glyph-name="parenleft.tab" horiz-adv-x="332" 
d="M316 -92l-47 -49q-98 73 -158.5 194.5t-60.5 279.5q0 159 60 279.5t159 193.5l47 -48q-77 -80 -112 -180t-35 -245t35 -245t112 -180z" />
    <glyph glyph-name="parenright.tab" horiz-adv-x="332" 
d="M63 -141l-47 49q77 80 112 180t35 245t-35 245t-112 180l47 48q99 -73 159 -193.5t60 -279.5q0 -158 -60.5 -279.5t-158.5 -194.5z" />
    <glyph glyph-name="bracketleft.tab" horiz-adv-x="332" 
d="M75 -124v913h213v-75h-106v-762h106v-76h-213z" />
    <glyph glyph-name="bracketright.tab" horiz-adv-x="332" 
d="M257 789v-913h-213v76h106v762h-106v75h213z" />
    <glyph glyph-name="braceleft.tab" horiz-adv-x="332" 
d="M301 -131h-41q-85 0 -128 41.5t-43 110.5q0 42 26.5 109t26.5 95q0 62 -61 68l-32 3v71l32 3q61 6 61 68q0 29 -26.5 95t-26.5 108q0 72 42.5 113.5t128.5 41.5h41v-73h-27q-34 0 -53.5 -26t-19.5 -72q0 -30 17.5 -86.5t17.5 -85.5q0 -101 -98 -122q50 -9 74 -42t24 -79
q0 -30 -17.5 -86.5t-17.5 -86.5q0 -45 19.5 -70t53.5 -25h27v-73z" />
    <glyph glyph-name="braceright.tab" horiz-adv-x="332" 
d="M72 -131h-41v73h27q34 0 53.5 25t19.5 70q0 30 -17.5 86.5t-17.5 86.5q0 46 24 79t74 42q-98 21 -98 122q0 29 17.5 85.5t17.5 86.5q0 46 -19.5 72t-53.5 26h-27v73h41q86 0 128.5 -41.5t42.5 -113.5q0 -42 -26.5 -108t-26.5 -95q0 -62 61 -68l32 -3v-71l-32 -3
q-61 -6 -61 -68q0 -28 26.5 -95t26.5 -109q0 -69 -43 -110.5t-128 -41.5z" />
    <glyph glyph-name="dollar.oldtab" horiz-adv-x="612" 
d="M184 510q0 -36 23 -58.5t67 -40.5v186q-44 -5 -67 -29t-23 -58zM435 160q0 37 -22.5 60.5t-73.5 44.5v-199q43 6 69.5 29t26.5 65zM339 -122h-68v111q-88 12 -142 74t-60 159l83 15q2 -69 34 -112.5t85 -55.5v222q-92 33 -139.5 76t-47.5 121q0 76 50.5 128.5t139.5 58.5
v104h68v-106q79 -12 125.5 -66t50.5 -140l-84 -19q0 54 -24.5 91.5t-67.5 51.5v-204q99 -38 149.5 -80.5t50.5 -116.5q0 -84 -54 -139.5t-149 -63.5v-109z" />
    <glyph glyph-name="Euro.oldtab" horiz-adv-x="612" 
d="M460 247l99 -31q4 -107 -58.5 -167.5t-149.5 -60.5q-210 0 -239 249h-60v64h56q-1 11 -1 33q0 23 1 34h-56v65h60q13 116 68 181.5t171 65.5q88 0 147.5 -52.5t59.5 -160.5l-100 -32q6 83 -23.5 126t-83.5 43q-57 0 -85 -44t-35 -127h139v-65h-143v-67h143v-64h-139
q6 -85 34 -129t86 -44q57 0 87 49.5t22 133.5z" />
    <glyph glyph-name="sterling.oldtab" horiz-adv-x="612" 
d="M462 -12q-29 0 -60.5 13.5t-50 27t-52.5 40.5q-52 -79 -143 -79q-55 0 -94 28t-39 78q0 51 38 81.5t97 30.5q51 0 108 -26v5q0 37 -30 92h-151v65h110q-44 77 -44 137q0 90 62.5 144.5t158.5 54.5q92 0 153 -57.5t45 -178.5l-96 -14q11 83 -18.5 127.5t-83.5 44.5
q-50 0 -76 -34t-26 -87q0 -15 2 -29.5t7.5 -30t9 -24.5t12 -27.5t11.5 -25.5h162v-65h-138q6 -24 6 -53q0 -44 -10 -80q85 -51 126 -51q77 0 66 99h61q22 -103 -17.5 -154.5t-105.5 -51.5zM158 47q59 0 91 61q-55 37 -97 37q-29 0 -46.5 -14t-17.5 -35q0 -22 20.5 -35.5
t49.5 -13.5z" />
    <glyph glyph-name="yen.oldtab" horiz-adv-x="612" 
d="M516 122h-155v-122h-112v122h-156v64h156v68h-156v64h129l-172 351h118l139 -297h7l140 297h108l-178 -351h132v-64h-155v-68h155v-64z" />
    <glyph glyph-name="florin.oldtab" horiz-adv-x="612" 
d="M70 -91l13 83h19.5h18.5t14.5 0.5t14.5 1.5t11.5 3.5t12.5 6.5q36 21 50 115l31 187h-90v84h103l17 114q12 71 39.5 107.5t74.5 51.5q52 19 149 12l-12 -83h-19.5h-18.5t-14 -0.5t-14 -1.5t-11.5 -3.5t-12.5 -6.5q-20 -11 -31 -36t-20 -79l-12 -75h110v-84h-123l-36 -225
q-12 -72 -40 -109.5t-74 -50.5q-50 -18 -150 -12z" />
    <glyph glyph-name="zero.oldtab" horiz-adv-x="612" 
d="M306 -10q-114 0 -181 76.5t-67 196.5t67 196t181 76t181 -76t67 -196t-67 -196.5t-181 -76.5zM306 66q124 0 124 197q0 196 -124 196t-124 -196q0 -197 124 -197z" />
    <glyph glyph-name="one.oldtab" horiz-adv-x="612" 
d="M517 -1h-420v84h157v303h-149v67l48 3q48 4 74.5 18.5t44.5 52.5h97v-444h148v-84z" />
    <glyph glyph-name="two.oldtab" horiz-adv-x="612" 
d="M80 0v67q182 91 240 142q74 63 74 142q0 49 -26 78.5t-76 29.5q-68 0 -98.5 -54.5t-12.5 -141.5l-98 13q-23 124 38 191.5t176 67.5q103 0 162.5 -51t59.5 -129q0 -102 -106 -178q-22 -15 -46.5 -28.5t-64.5 -33t-55 -26.5v-5h289v-84h-456z" />
    <glyph glyph-name="three.oldtab" horiz-adv-x="612" 
d="M301 -173q-101 0 -167.5 56.5t-60.5 167.5l103 26q-4 -77 27.5 -125.5t96.5 -48.5q54 0 86.5 29t32.5 89q0 126 -149 126h-67v79h54q143 0 143 121q0 53 -28 82.5t-77 29.5q-56 0 -90 -39t-30 -115l-98 17q-4 108 59.5 160.5t166.5 52.5q100 0 160.5 -48t60.5 -132
q0 -69 -42.5 -109t-113.5 -53v-5q81 -10 128 -54.5t47 -117.5q0 -85 -67.5 -137t-174.5 -52z" />
    <glyph glyph-name="four.oldtab" horiz-adv-x="612" 
d="M346 -133v168h-303v72l285 422h134v-414h110v-80h-110v-168h-116zM142 115h204v299h-3l-201 -297v-2z" />
    <glyph glyph-name="five.oldtab" horiz-adv-x="612" 
d="M296 -173q-101 0 -168 57t-63 155l103 28q-2 -73 32 -118.5t94 -45.5t94.5 45.5t33.5 120.5q0 74 -34 115t-86 41q-43 0 -77 -27t-52 -70l-95 13l41 384h363v-84h-284l-21 -203q54 65 153 65q95 0 156 -62t61 -170q0 -112 -72 -178t-179 -66z" />
    <glyph glyph-name="six.oldtab" horiz-adv-x="612" 
d="M310 -12q-126 0 -189 86q-64 83 -64 237q0 109 26.5 190t87 130t151.5 49t147.5 -47.5t56.5 -139.5l-99 -15q2 65 -28.5 95.5t-79.5 30.5q-140 0 -150 -240h4q56 87 167 87q96 0 155.5 -60t59.5 -165q0 -108 -69.5 -173t-175.5 -65zM308 64q56 0 89 41t33 115
q0 71 -30 112.5t-88 41.5q-56 0 -91 -40.5t-35 -113.5q0 -68 28 -108q31 -48 94 -48z" />
    <glyph glyph-name="seven.oldtab" horiz-adv-x="612" 
d="M135 -112l271 557h-324v80h439v-77l-264 -560h-122z" />
    <glyph glyph-name="eight.oldtab" horiz-adv-x="612" 
d="M306 -12q-121 0 -184 54t-63 132q0 60 42.5 103t108.5 60v4q-52 13 -92.5 56.5t-40.5 102.5q0 76 61 128t168 52q106 0 167.5 -52t61.5 -128q0 -58 -40.5 -103.5t-90.5 -55.5v-4q66 -16 107.5 -59.5t41.5 -103.5q0 -78 -63 -132t-184 -54zM306 377q47 0 79 32t32 83
t-30 82t-81 31t-81 -31t-30 -82t32 -83t79 -32zM306 64q56 0 89.5 33.5t33.5 85.5t-34 85.5t-89 33.5t-89.5 -33.5t-34.5 -85.5t34 -85.5t90 -33.5z" />
    <glyph glyph-name="nine.oldtab" horiz-adv-x="612" 
d="M301 144q56 0 91 40.5t35 114.5q0 70 -33 116q-33 44 -89 44q-55 0 -88.5 -42.5t-33.5 -116.5q0 -72 30 -114t88 -42zM291 -173q-85 0 -143 42.5t-66 123.5l99 20q2 -57 34.5 -83.5t77.5 -26.5q138 0 148 251h-4q-54 -87 -165 -87q-95 0 -154.5 61t-59.5 166
q0 109 69 175t176 66q114 0 178 -77q74 -87 74 -253q0 -173 -64 -275.5t-200 -102.5z" />
    <glyph glyph-name="zero.num" horiz-adv-x="420" 
d="M210 323q-80 0 -122 57t-42 144q0 88 41.5 145t122.5 57t123 -57.5t42 -144.5t-42 -144t-123 -57zM210 382q78 0 78 142q0 144 -78 144q-77 0 -77 -144q0 -142 77 -142z" />
    <glyph glyph-name="one.num" horiz-adv-x="276" 
d="M199 332h-83v286h-77v52l37 3q26 3 39 13.5t22 35.5h62v-390z" />
    <glyph glyph-name="two.num" horiz-adv-x="383" 
d="M48 332v54q111 58 157 102.5t46 106.5q0 35 -16.5 54t-46.5 19q-45 0 -62.5 -41.5t5.5 -107.5l-79 8q-28 81 11.5 140t127.5 59q67 0 107 -35.5t40 -95.5q0 -122 -171 -198v-7h176v-58h-295z" />
    <glyph glyph-name="three.num" horiz-adv-x="377" 
d="M186 323q-69 0 -111.5 35t-36.5 101l76 15q-4 -38 15 -65.5t57 -27.5q29 0 46 16.5t17 46.5q0 63 -78 63h-48v54h48q65 0 65 54q0 25 -16 39t-41 14q-32 0 -48 -20.5t-13 -54.5l-77 9q-4 62 38 93t106 31q58 0 97.5 -28t39.5 -74q0 -68 -80 -85v-6q40 -7 67 -31.5
t27 -64.5q0 -52 -40 -83t-110 -31z" />
    <glyph glyph-name="four.num" horiz-adv-x="381" 
d="M212 333v76h-188v51l174 261h96v-255h56v-57h-56v-76h-82zM212 466v171h-5l-110 -166v-5h115z" />
    <glyph glyph-name="five.num" horiz-adv-x="382" 
d="M192 323q-62 0 -104.5 36t-38.5 93l77 16q-4 -34 14.5 -59.5t51.5 -25.5q30 0 47 22.5t17 64.5q0 38 -17 59t-47 21q-47 0 -71 -50l-61 14l26 204h218v-57h-168l-12 -91q33 36 86 36q60 0 97 -37t37 -99q0 -67 -42 -107t-110 -40z" />
    <glyph glyph-name="six.num" horiz-adv-x="390" 
d="M200 323q-71 0 -114 52q-40 51 -40 140q0 95 41 153t119 58q53 0 88 -25t41 -77l-73 -12q0 26 -16 41t-42 15q-42 0 -62 -36t-20 -88l3 -2q33 51 99 51q54 0 89.5 -35t35.5 -94q0 -62 -42.5 -101.5t-106.5 -39.5zM199 382q30 0 48 21t18 59q0 36 -16.5 57t-45.5 21
q-30 0 -49.5 -21t-19.5 -58t18.5 -58t46.5 -21z" />
    <glyph glyph-name="seven.num" horiz-adv-x="300" 
d="M129 332h-84l148 327h-176v59h259v-47z" />
    <glyph glyph-name="eight.num" horiz-adv-x="394" 
d="M198 323q-73 0 -115 32t-42 79q0 73 89 94v4q-74 23 -74 88q0 48 38 77t104 29q65 0 104 -29t39 -77q0 -64 -76 -88v-4q88 -20 88 -94q0 -47 -41.5 -79t-113.5 -32zM198 558q28 0 44.5 15.5t16.5 39.5q0 25 -16 40.5t-45 15.5q-30 0 -45.5 -15.5t-15.5 -40.5
q0 -24 16.5 -39.5t44.5 -15.5zM198 380q32 0 50.5 17.5t18.5 45.5q0 26 -18.5 42t-50.5 16t-51.5 -16t-19.5 -42q0 -28 19.5 -45.5t51.5 -17.5z" />
    <glyph glyph-name="nine.num" horiz-adv-x="389" 
d="M192 668q-31 0 -49.5 -21.5t-18.5 -58.5q0 -78 64 -78q30 0 49 20.5t19 57.5t-18 58.5t-46 21.5zM189 726q72 0 113 -50q42 -48 42 -142q0 -95 -41.5 -153t-119.5 -58q-50 0 -88 25.5t-41 76.5l74 12q1 -25 16.5 -40.5t41.5 -15.5q41 0 61.5 37.5t18.5 87.5l-2 2
q-33 -51 -98 -51q-54 0 -89.5 35t-35.5 94q0 62 42 101t106 39z" />
    <glyph glyph-name="zero.den" horiz-adv-x="420" 
d="M210 -8q-80 0 -122 57t-42 144q0 88 41.5 145t122.5 57t123 -57.5t42 -144.5t-42 -144t-123 -57zM210 51q78 0 78 142q0 144 -78 144q-77 0 -77 -144q0 -142 77 -142z" />
    <glyph glyph-name="one.den" horiz-adv-x="276" 
d="M199 1h-83v286h-77v52l37 3q26 3 39 13.5t22 35.5h62v-390z" />
    <glyph glyph-name="two.den" horiz-adv-x="383" 
d="M48 1v54q111 58 157 102.5t46 106.5q0 35 -16.5 54t-46.5 19q-45 0 -62.5 -41.5t5.5 -107.5l-79 8q-28 81 11.5 140t127.5 59q67 0 107 -35.5t40 -95.5q0 -122 -171 -198v-7h176v-58h-295z" />
    <glyph glyph-name="three.den" horiz-adv-x="377" 
d="M186 -8q-69 0 -111.5 35t-36.5 101l76 15q-4 -38 15 -65.5t57 -27.5q29 0 46 16.5t17 46.5q0 63 -78 63h-48v54h48q65 0 65 54q0 25 -16 39t-41 14q-32 0 -48 -20.5t-13 -54.5l-77 9q-4 62 38 93t106 31q58 0 97.5 -28t39.5 -74q0 -68 -80 -85v-6q40 -7 67 -31.5
t27 -64.5q0 -52 -40 -83t-110 -31z" />
    <glyph glyph-name="four.den" horiz-adv-x="381" 
d="M212 1v76h-188v51l174 261h96v-255h56v-57h-56v-76h-82zM212 134v171h-5l-110 -166v-5h115z" />
    <glyph glyph-name="five.den" horiz-adv-x="382" 
d="M192 -8q-62 0 -104.5 36t-38.5 93l77 16q-4 -34 14.5 -59.5t51.5 -25.5q30 0 47 22.5t17 64.5q0 38 -17 59t-47 21q-47 0 -71 -50l-61 14l26 204h218v-57h-168l-12 -91q33 36 86 36q60 0 97 -37t37 -99q0 -67 -42 -107t-110 -40z" />
    <glyph glyph-name="six.den" horiz-adv-x="390" 
d="M200 -8q-71 0 -114 52q-40 51 -40 140q0 95 41 153t119 58q53 0 88 -25t41 -77l-73 -12q0 26 -16 41t-42 15q-42 0 -62 -36t-20 -88l3 -2q33 51 99 51q54 0 89.5 -35t35.5 -94q0 -62 -42.5 -101.5t-106.5 -39.5zM199 51q30 0 48 21t18 59q0 36 -16.5 57t-45.5 21
q-30 0 -49.5 -21t-19.5 -58t18.5 -58t46.5 -21z" />
    <glyph glyph-name="seven.den" horiz-adv-x="300" 
d="M129 1h-84l148 327h-176v59h259v-47z" />
    <glyph glyph-name="eight.den" horiz-adv-x="394" 
d="M198 -8q-73 0 -115 32t-42 79q0 73 89 94v4q-74 23 -74 88q0 48 38 77t104 29q65 0 104 -29t39 -77q0 -64 -76 -88v-4q88 -20 88 -94q0 -47 -41.5 -79t-113.5 -32zM198 227q28 0 44.5 15.5t16.5 39.5q0 25 -16 40.5t-45 15.5q-30 0 -45.5 -15.5t-15.5 -40.5
q0 -24 16.5 -39.5t44.5 -15.5zM198 49q32 0 50.5 17.5t18.5 45.5q0 26 -18.5 42t-50.5 16t-51.5 -16t-19.5 -42q0 -28 19.5 -45.5t51.5 -17.5z" />
    <glyph glyph-name="nine.den" horiz-adv-x="389" 
d="M192 337q-31 0 -49.5 -21.5t-18.5 -58.5q0 -78 64 -78q30 0 49 20.5t19 57.5t-18 58.5t-46 21.5zM189 395q72 0 113 -50q42 -48 42 -142q0 -95 -41.5 -153t-119.5 -58q-50 0 -88 25.5t-41 76.5l74 12q1 -25 16.5 -40.5t41.5 -15.5q41 0 61.5 37.5t18.5 87.5l-2 2
q-33 -51 -98 -51q-54 0 -89.5 35t-35.5 94q0 62 42 101t106 39z" />
    <glyph glyph-name="zero.sub" horiz-adv-x="420" 
d="M210 -127q-80 0 -122 57t-42 144q0 88 41.5 145t122.5 57t123 -57.5t42 -144.5t-42 -144t-123 -57zM210 -68q78 0 78 142q0 144 -78 144q-77 0 -77 -144q0 -142 77 -142z" />
    <glyph glyph-name="one.sub" horiz-adv-x="276" 
d="M199 -118h-83v286h-77v52l37 3q26 3 39 13.5t22 35.5h62v-390z" />
    <glyph glyph-name="two.sub" horiz-adv-x="383" 
d="M48 -118v54q111 58 157 102.5t46 106.5q0 35 -16.5 54t-46.5 19q-45 0 -62.5 -41.5t5.5 -107.5l-79 8q-28 81 11.5 140t127.5 59q67 0 107 -35.5t40 -95.5q0 -122 -171 -198v-7h176v-58h-295z" />
    <glyph glyph-name="three.sub" horiz-adv-x="377" 
d="M186 -127q-69 0 -111.5 35t-36.5 101l76 15q-4 -38 15 -65.5t57 -27.5q29 0 46 16.5t17 46.5q0 63 -78 63h-48v54h48q65 0 65 54q0 25 -16 39t-41 14q-32 0 -48 -20.5t-13 -54.5l-77 9q-4 62 38 93t106 31q58 0 97.5 -28t39.5 -74q0 -68 -80 -85v-6q40 -7 67 -31.5
t27 -64.5q0 -52 -40 -83t-110 -31z" />
    <glyph glyph-name="four.sub" horiz-adv-x="381" 
d="M212 -118v76h-188v51l174 261h96v-255h56v-57h-56v-76h-82zM212 15v171h-5l-110 -166v-5h115z" />
    <glyph glyph-name="five.sub" horiz-adv-x="382" 
d="M192 -127q-62 0 -104.5 36t-38.5 93l77 16q-4 -34 14.5 -59.5t51.5 -25.5q30 0 47 22.5t17 64.5q0 38 -17 59t-47 21q-47 0 -71 -50l-61 14l26 204h218v-57h-168l-12 -91q33 36 86 36q60 0 97 -37t37 -99q0 -67 -42 -107t-110 -40z" />
    <glyph glyph-name="six.sub" horiz-adv-x="390" 
d="M200 -127q-71 0 -114 52q-40 51 -40 140q0 95 41 153t119 58q53 0 88 -25t41 -77l-73 -12q0 26 -16 41t-42 15q-42 0 -62 -36t-20 -88l3 -2q33 51 99 51q54 0 89.5 -35t35.5 -94q0 -62 -42.5 -101.5t-106.5 -39.5zM199 -68q30 0 48 21t18 59q0 36 -16.5 57t-45.5 21
q-30 0 -49.5 -21t-19.5 -58t18.5 -58t46.5 -21z" />
    <glyph glyph-name="seven.sub" horiz-adv-x="300" 
d="M129 -118h-84l148 327h-176v59h259v-47z" />
    <glyph glyph-name="eight.sub" horiz-adv-x="394" 
d="M198 -127q-73 0 -115 32t-42 79q0 73 89 94v4q-74 23 -74 88q0 48 38 77t104 29q65 0 104 -29t39 -77q0 -64 -76 -88v-4q88 -20 88 -94q0 -47 -41.5 -79t-113.5 -32zM198 108q28 0 44.5 15.5t16.5 39.5q0 25 -16 40.5t-45 15.5q-30 0 -45.5 -15.5t-15.5 -40.5
q0 -24 16.5 -39.5t44.5 -15.5zM198 -70q32 0 50.5 17.5t18.5 45.5q0 26 -18.5 42t-50.5 16t-51.5 -16t-19.5 -42q0 -28 19.5 -45.5t51.5 -17.5z" />
    <glyph glyph-name="nine.sub" horiz-adv-x="389" 
d="M192 218q-31 0 -49.5 -21.5t-18.5 -58.5q0 -78 64 -78q30 0 49 20.5t19 57.5t-18 58.5t-46 21.5zM189 276q72 0 113 -50q42 -48 42 -142q0 -95 -41.5 -153t-119.5 -58q-50 0 -88 25.5t-41 76.5l74 12q1 -25 16.5 -40.5t41.5 -15.5q41 0 61.5 37.5t18.5 87.5l-2 2
q-33 -51 -98 -51q-54 0 -89.5 35t-35.5 94q0 62 42 101t106 39z" />
    <glyph glyph-name="plus.sub" horiz-adv-x="326" 
d="M132 -84v98h-93v55h93v98h62v-98h93v-55h-93v-98h-62z" />
    <glyph glyph-name="minus.sub" horiz-adv-x="326" 
d="M287 14h-248v55h248v-55z" />
    <glyph glyph-name="zero.sup" horiz-adv-x="420" 
d="M210 389q-80 0 -122 57t-42 144q0 88 41.5 145t122.5 57t123 -57.5t42 -144.5t-42 -144t-123 -57zM210 448q78 0 78 142q0 144 -78 144q-77 0 -77 -144q0 -142 77 -142z" />
    <glyph glyph-name="one.sup" horiz-adv-x="276" 
d="M199 398h-83v286h-77v52l37 3q26 3 39 13.5t22 35.5h62v-390z" />
    <glyph glyph-name="two.sup" horiz-adv-x="384" 
d="M48 398v54q111 58 157 102.5t46 106.5q0 35 -16.5 54t-46.5 19q-45 0 -62.5 -41.5t5.5 -107.5l-79 8q-28 81 11.5 140t127.5 59q67 0 107 -35.5t40 -95.5q0 -122 -171 -198v-7h176v-58h-295z" />
    <glyph glyph-name="three.sup" horiz-adv-x="377" 
d="M186 389q-69 0 -111.5 35t-36.5 101l76 15q-4 -38 15 -65.5t57 -27.5q29 0 46 16.5t17 46.5q0 63 -78 63h-48v54h48q65 0 65 54q0 25 -16 39t-41 14q-32 0 -48 -20.5t-13 -54.5l-77 9q-4 62 38 93t106 31q58 0 97.5 -28t39.5 -74q0 -68 -80 -85v-6q40 -7 67 -31.5
t27 -64.5q0 -52 -40 -83t-110 -31z" />
    <glyph glyph-name="four.sup" horiz-adv-x="380" 
d="M212 398v76h-188v51l174 261h96v-255h56v-57h-56v-76h-82zM212 531v171h-5l-110 -166v-5h115z" />
    <glyph glyph-name="five.sup" horiz-adv-x="382" 
d="M192 389q-62 0 -104.5 36t-38.5 93l77 16q-4 -34 14.5 -59.5t51.5 -25.5q30 0 47 22.5t17 64.5q0 38 -17 59t-47 21q-47 0 -71 -50l-61 14l26 204h218v-57h-168l-12 -91q33 36 86 36q60 0 97 -37t37 -99q0 -67 -42 -107t-110 -40z" />
    <glyph glyph-name="six.sup" horiz-adv-x="390" 
d="M200 389q-71 0 -114 52q-40 51 -40 140q0 95 41 153t119 58q53 0 88 -25t41 -77l-73 -12q0 26 -16 41t-42 15q-42 0 -62 -36t-20 -88l3 -2q33 51 99 51q54 0 89.5 -35t35.5 -94q0 -62 -42.5 -101.5t-106.5 -39.5zM199 448q30 0 48 21t18 59q0 36 -16.5 57t-45.5 21
q-30 0 -49.5 -21t-19.5 -58t18.5 -58t46.5 -21z" />
    <glyph glyph-name="seven.sup" horiz-adv-x="300" 
d="M129 398h-84l148 327h-176v59h259v-47z" />
    <glyph glyph-name="eight.sup" horiz-adv-x="394" 
d="M198 389q-73 0 -115 32t-42 79q0 73 89 94v4q-74 23 -74 88q0 48 38 77t104 29q65 0 104 -29t39 -77q0 -64 -76 -88v-4q88 -20 88 -94q0 -47 -41.5 -79t-113.5 -32zM198 624q28 0 44.5 15.5t16.5 39.5q0 25 -16 40.5t-45 15.5q-30 0 -45.5 -15.5t-15.5 -40.5
q0 -24 16.5 -39.5t44.5 -15.5zM198 446q32 0 50.5 17.5t18.5 45.5q0 26 -18.5 42t-50.5 16t-51.5 -16t-19.5 -42q0 -28 19.5 -45.5t51.5 -17.5z" />
    <glyph glyph-name="nine.sup" horiz-adv-x="389" 
d="M192 734q-31 0 -49.5 -21.5t-18.5 -58.5q0 -78 64 -78q30 0 49 20.5t19 57.5t-18 58.5t-46 21.5zM189 792q72 0 113 -50q42 -48 42 -142q0 -95 -41.5 -153t-119.5 -58q-50 0 -88 25.5t-41 76.5l74 12q1 -25 16.5 -40.5t41.5 -15.5q41 0 61.5 37.5t18.5 87.5l-2 2
q-33 -51 -98 -51q-54 0 -89.5 35t-35.5 94q0 62 42 101t106 39z" />
    <glyph glyph-name="plus.sup" horiz-adv-x="326" 
d="M132 436v98h-93v55h93v98h62v-98h93v-55h-93v-98h-62z" />
    <glyph glyph-name="minus.sup" horiz-adv-x="326" 
d="M287 534h-248v55h248v-55z" />
    <glyph glyph-name="registered.alt" horiz-adv-x="838" 
d="M420 -17q-157 0 -261.5 99.5t-104.5 275.5t104.5 275.5t261.5 99.5q156 0 260 -99.5t104 -275.5q0 -118 -50.5 -204.5t-132 -128.5t-181.5 -42zM420 36q133 0 219 85t86 237t-86 237t-219 85q-134 0 -220.5 -85t-86.5 -237q0 -153 86 -237.5t221 -84.5zM497 346v-4
q13 -5 24 -19t16 -24.5t15 -36.5q18 -59 34 -78v-14h-93q-4 9 -15 49.5t-18 61.5q-8 25 -18.5 32.5t-36.5 7.5h-47v-150h-85v381h167q69 0 104.5 -29t35.5 -82q0 -71 -83 -95zM358 380h76q59 0 59 58q0 54 -59 54h-76v-112z" />
    <glyph glyph-name="caron.alt" horiz-adv-x="412" 
d="M169 782h93l-42 -172h-70z" />
    <glyph glyph-name="questiondown.uc" horiz-adv-x="509" 
d="M335 489l8 -179h-69q-61 0 -94.5 -31.5t-33.5 -93.5q0 -56 27.5 -88t82.5 -32q56 0 85 33t27 88l111 -26q-6 -77 -63 -126.5t-160 -49.5q-110 0 -171 57.5t-61 143.5q0 90 57.5 142.5t145.5 61.5l6 100h102zM219 716h129v-164h-129v164z" />
    <glyph glyph-name="exclamdown.uc" horiz-adv-x="297" 
d="M175 489l24 -298v-191h-125v191l25 298h76zM201 716v-164h-129v164h129z" />
    <glyph glyph-name="hyphen.uc" horiz-adv-x="311" 
d="M49 296v91h213v-91h-213z" />
    <glyph glyph-name="endash.uc" horiz-adv-x="568" 
d="M52 296v91h464v-91h-464z" />
    <glyph glyph-name="emdash.uc" horiz-adv-x="764" 
d="M52 296v91h660v-91h-660z" />
    <glyph glyph-name="guilsinglleft.uc" horiz-adv-x="285" 
d="M164 136l-131 197l131 198h97l-112 -198l112 -197h-97z" />
    <glyph glyph-name="guilsinglright.uc" horiz-adv-x="285" 
d="M240 333l-131 -197h-97l112 197l-112 198h97z" />
    <glyph glyph-name="guillemotleft.uc" horiz-adv-x="483" 
d="M362 136l-131 197l131 198h97l-112 -198l112 -197h-97zM164 136l-131 197l131 198h97l-112 -198l112 -197h-97z" />
    <glyph glyph-name="guillemotright.uc" horiz-adv-x="483" 
d="M438 333l-131 -197h-97l112 197l-112 198h97zM240 333l-131 -197h-97l112 197l-112 198h97z" />
    <glyph glyph-name="parenleft.uc" horiz-adv-x="333" 
d="M307 -21l-44 -45q-84 59 -145.5 170.5t-61.5 252.5t61 252t146 170l44 -46q-134 -149 -134 -377q0 -222 134 -377z" />
    <glyph glyph-name="parenright.uc" horiz-adv-x="333" 
d="M58 -66l-44 45q134 155 134 377q0 228 -134 377l44 46q85 -59 146 -170t61 -252t-61.5 -252.5t-145.5 -170.5z" />
    <glyph glyph-name="bracketleft.uc" horiz-adv-x="340" 
d="M80 -54v821h217v-76h-110v-669h110v-76h-217z" />
    <glyph glyph-name="bracketright.uc" horiz-adv-x="340" 
d="M248 767v-821h-217v76h110v669h-110v76h217z" />
    <glyph glyph-name="braceleft.uc" horiz-adv-x="351" 
d="M308 -56h-51q-82 0 -124 36t-42 96q0 38 27 98t27 84q0 50 -65 60l-30 3v68l30 3q65 10 65 60q0 24 -27 84t-27 100q0 62 42 97.5t124 35.5h51v-73h-26q-34 0 -56.5 -17.5t-22.5 -56.5q0 -25 17 -74.5t17 -75.5q0 -45 -26.5 -76.5t-77.5 -40.5q51 -8 77.5 -40t26.5 -76
q0 -25 -17 -74t-17 -75q0 -74 79 -74h26v-72z" />
    <glyph glyph-name="braceright.uc" horiz-adv-x="351" 
d="M82 -56h-51v72h26q79 0 79 74q0 26 -17 75t-17 74q0 44 26.5 76t77.5 40q-51 9 -77.5 40.5t-26.5 76.5q0 26 17 75.5t17 74.5q0 39 -22.5 56.5t-56.5 17.5h-26v73h51q82 0 124 -35.5t42 -97.5q0 -40 -27 -100t-27 -84q0 -50 65 -60l30 -3v-68l-30 -3q-65 -10 -65 -60
q0 -24 27 -84t27 -98q0 -60 -42 -96t-124 -36z" />
    <glyph glyph-name="slash.uc" horiz-adv-x="385" 
d="M30 -54l228 821h96l-228 -821h-96z" />
    <glyph glyph-name="backslash.uc" horiz-adv-x="384" 
d="M258 -54l-226 821h95l227 -821h-96z" />
    <glyph glyph-name="bar.uc" horiz-adv-x="269" 
d="M180 -54h-91v821h91v-821z" />
    <glyph glyph-name="at.uc" horiz-adv-x="833" 
d="M414 -16q-165 0 -263 98.5t-98 253.5q0 164 111.5 279.5t286.5 115.5q146 0 237.5 -85.5t91.5 -218.5q0 -116 -63.5 -188.5t-136.5 -72.5q-44 0 -72.5 24t-32.5 70q-16 -39 -47.5 -66t-76.5 -27q-56 0 -89 41t-33 110q0 90 51.5 165t132.5 75q47 0 71.5 -27t28.5 -69v2
l36 84h62l-48 -242q-8 -37 2 -56t32 -19q42 0 78.5 57.5t36.5 139.5q0 107 -71.5 175t-187.5 68q-145 0 -237.5 -99t-92.5 -236q0 -133 83.5 -211.5t209.5 -78.5q121 0 217 56l25 -54q-98 -64 -244 -64zM382 231q46 0 75.5 60.5t29.5 125.5q0 80 -51 80q-47 0 -76.5 -60
t-29.5 -124q0 -82 52 -82z" />
    <glyph glyph-name="grave.uc" horiz-adv-x="412" 
d="M300 779h-93l-105 128h136z" />
    <glyph glyph-name="dieresis.uc" horiz-adv-x="412" 
d="M53 793v108h112v-108h-112zM247 793v108h112v-108h-112z" />
    <glyph glyph-name="macron.uc" horiz-adv-x="412" 
d="M58 800v88h296v-88h-296z" />
    <glyph glyph-name="acute.uc" horiz-adv-x="412" 
d="M200 779h-92l62 128h135z" />
    <glyph glyph-name="circumflex.uc" horiz-adv-x="412" 
d="M263 779l-59 61l-60 -61h-102l115 122h98l115 -122h-107z" />
    <glyph glyph-name="caron.uc" horiz-adv-x="424" 
d="M271 778h-98l-115 122h107l59 -61l60 61h102z" />
    <glyph glyph-name="breve.uc" horiz-adv-x="412" 
d="M206 777q-118 0 -153 112l51 27q33 -50 102 -50t102 50l51 -27q-35 -112 -153 -112z" />
    <glyph glyph-name="dotaccent.uc" horiz-adv-x="412" 
d="M145 793v112h123v-112h-123z" />
    <glyph glyph-name="ring.uc" horiz-adv-x="412" 
d="M311 853q0 -45 -29 -72t-76 -27q-46 0 -75 27t-29 72q0 44 29 72t75 28q47 0 76 -28t29 -72zM162 853q0 -22 12 -34t32 -12t32.5 12t12.5 34t-12.5 34.5t-32.5 12.5t-32 -12t-12 -35z" />
    <glyph glyph-name="tilde.uc" horiz-adv-x="412" 
d="M95 777l-50 9q-4 52 20.5 86t68.5 34q30 0 78 -20.5t65 -20.5q35 0 40 45l51 -10q2 -53 -21.5 -86.5t-68.5 -33.5q-30 0 -78 20.5t-64 20.5q-34 0 -41 -44z" />
    <glyph glyph-name="hungarumlaut.uc" horiz-adv-x="412" 
d="M119 779h-81l54 128h118zM284 779h-81l54 128h118z" />
    <glyph glyph-name="cent.oldtab" horiz-adv-x="612" 
d="M193 260q0 -164 95 -192v383q-95 -30 -95 -191zM450 194l85 -33q-39 -149 -174 -170v-110h-73v107q-104 8 -161 81t-57 191q0 114 59.5 187.5t158.5 83.5v100h73v-101q137 -17 173 -163l-84 -33q-21 96 -89 116v-380q67 22 89 124z" />
    <glyph glyph-name="f.short" horiz-adv-x="354" 
d="M113 0v442h-83v83h83v88q0 74 30 110t84 50q40 9 114 9v-88q-53 0 -71 -8q-21 -9 -29.5 -29t-8.5 -60v-72h109v-83h-109v-442h-119z" />
    <glyph glyph-name="f_f.short" horiz-adv-x="657" 
d="M416 0v442h-184v-442h-119v442h-83v83h83v78q0 75 30.5 110.5t83.5 49.5q37 9 133 9v-88q-69 0 -90 -8t-29.5 -28.5t-8.5 -60.5v-62h184v88q0 74 30 110t84 50q40 9 114 9v-88q-53 0 -71 -8q-21 -9 -29.5 -29t-8.5 -60v-72h109v-83h-109v-442h-119z" />
    <glyph glyph-name="idotaccent" horiz-adv-x="266" 
d="M73 604v113h119v-113h-119zM73 0v525h119v-525h-119z" />
    </font>
</defs>
</svg>
