<svg width="22" height="14" viewBox="0 0 22 14" fill="none" xmlns="http://www.w3.org/2000/svg">
<path d="M6.78949 0.47998C7.41234 0.47998 7.97806 0.537123 8.48663 0.645694C8.9952 0.754265 9.4352 0.937123 9.80091 1.18284C10.1666 1.42855 10.4466 1.76569 10.6523 2.17712C10.8581 2.58855 10.9552 3.10284 10.9552 3.70855C10.9552 4.36569 10.8066 4.91427 10.5095 5.35427C10.2123 5.79427 9.76663 6.15427 9.18377 6.43427C9.98949 6.66284 10.5895 7.06855 10.9838 7.64569C11.3781 8.22284 11.5781 8.91998 11.5781 9.73712C11.5781 10.3943 11.4523 10.9657 11.1952 11.4457C10.9381 11.9257 10.5952 12.32 10.1609 12.6228C9.72663 12.9257 9.2352 13.1543 8.68092 13.2971C8.12663 13.4457 7.54949 13.5143 6.97234 13.5143H0.652344V0.47998H6.78949ZM6.42377 5.75998C6.93234 5.75998 7.3552 5.63998 7.68663 5.39427C8.01806 5.14855 8.17806 4.75427 8.17806 4.20569C8.17806 3.90284 8.12092 3.65141 8.01234 3.45712C7.90377 3.26284 7.7552 3.10855 7.57234 2.99998C7.38949 2.89141 7.17806 2.81712 6.94377 2.77141C6.69806 2.73141 6.45234 2.70855 6.20092 2.70855H3.5152V5.75998H6.42377ZM6.58949 11.2914C6.85806 11.2914 7.12663 11.2628 7.3952 11.2114C7.65234 11.1543 7.8752 11.0628 8.06949 10.9371C8.26377 10.8114 8.41806 10.6343 8.53806 10.4171C8.65234 10.2 8.70949 9.91998 8.70949 9.57712C8.70949 8.90855 8.52092 8.42855 8.14377 8.14284C7.76663 7.85712 7.26949 7.71427 6.64663 7.71427H3.52663V11.2914H6.5952H6.58949ZM15.1838 11.0171C15.5723 11.3943 16.1323 11.5828 16.8638 11.5828C17.3895 11.5828 17.8352 11.4514 18.2123 11.1886C18.5895 10.9257 18.8238 10.6514 18.9038 10.36H21.1838C20.8181 11.4914 20.2581 12.3028 19.5038 12.7886C18.7495 13.2743 17.8352 13.52 16.7666 13.52C16.0238 13.52 15.3552 13.4 14.7609 13.1657C14.1666 12.9314 13.6581 12.5886 13.2466 12.1543C12.8352 11.72 12.5095 11.1943 12.2866 10.5828C12.0638 9.97141 11.9495 9.30284 11.9495 8.57712C11.9495 7.85141 12.0638 7.21712 12.2981 6.60569C12.5323 5.99427 12.8581 5.46855 13.2866 5.02855C13.7152 4.58855 14.2238 4.23427 14.8123 3.97712C15.4009 3.71998 16.0581 3.59427 16.7781 3.59427C17.5838 3.59427 18.2809 3.74855 18.8809 4.06284C19.4752 4.37141 19.9666 4.78855 20.3495 5.31427C20.7323 5.83998 21.0123 6.43427 21.1781 7.10284C21.3438 7.77141 21.4066 8.47427 21.3609 9.20569H14.5495C14.5838 10.04 14.8009 10.6514 15.1895 11.0286L15.1838 11.0171ZM18.1152 6.05141C17.8066 5.70855 17.3323 5.54284 16.6981 5.54284C16.2809 5.54284 15.9381 5.61141 15.6695 5.75427C15.3952 5.89712 15.1781 6.06855 15.0123 6.27427C14.8466 6.47998 14.7323 6.70284 14.6638 6.93141C14.5952 7.15998 14.5552 7.37141 14.5438 7.55427H18.7609C18.6352 6.89712 18.4238 6.39998 18.1095 6.05712L18.1152 6.05141ZM14.1038 1.14284H19.3723V2.60569H14.1038V1.14284Z" fill="white"/>
</svg>
