<svg width="24" height="24" viewBox="0 0 24 24" fill="none" xmlns="http://www.w3.org/2000/svg">
<path fill-rule="evenodd" clip-rule="evenodd" d="M12.0003 23.6629C5.56031 23.6629 0.320312 18.4286 0.320312 12C0.320312 5.57144 5.56031 0.337158 12.0003 0.337158C18.4403 0.337158 23.6803 5.57144 23.6803 12C23.6803 18.4286 18.4403 23.6629 12.0003 23.6629ZM21.8517 13.5943C21.5089 13.4857 18.766 12.6686 15.6346 13.1657C16.9375 16.7486 17.4689 19.6629 17.5717 20.2686C19.8117 18.76 21.406 16.3657 21.846 13.5886L21.8517 13.5943ZM15.8975 21.1829C15.7489 20.3086 15.1717 17.2629 13.7717 13.6286C13.7489 13.6343 13.726 13.6457 13.7032 13.6514C8.0746 15.6114 6.05746 19.5086 5.8746 19.8743C7.56603 21.1943 9.69174 21.9772 12.0003 21.9772C13.3832 21.9772 14.6975 21.6972 15.8975 21.1829ZM4.58888 18.6743C4.81746 18.2857 7.5546 13.76 12.6975 12.0972C12.8289 12.0572 12.9603 12.0172 13.0917 11.9772C12.8403 11.4114 12.566 10.8457 12.2803 10.2857C7.29746 11.7772 2.46317 11.7143 2.02888 11.7029C2.02888 11.8057 2.02888 11.9029 2.02888 12.0057C2.02888 14.5657 3.00031 16.9029 4.5946 18.6686L4.58888 18.6743ZM2.2346 9.97144C2.68031 9.97716 6.78888 9.9943 11.4575 8.76002C9.80603 5.82287 8.02317 3.36002 7.76031 3.00002C4.97174 4.3143 2.88031 6.88573 2.2346 9.97716V9.97144ZM9.66317 2.32573C9.93746 2.69716 11.7489 5.16002 13.3832 8.16002C16.9317 6.8343 18.4346 4.81716 18.6117 4.56002C16.8517 3.00002 14.5317 2.05144 12.0003 2.05144C11.1946 2.05144 10.4117 2.14859 9.66317 2.32573ZM19.726 5.7143C19.5146 6.00002 17.846 8.13716 14.1546 9.64002C14.3889 10.1143 14.6117 10.6 14.8175 11.0857C14.8917 11.2572 14.9603 11.4286 15.0346 11.6C18.3546 11.1829 21.6517 11.8514 21.9832 11.92C21.9603 9.56573 21.1203 7.41144 19.7317 5.7143H19.726Z" fill="white"/>
</svg>
