<svg width="24" height="22" viewBox="0 0 24 22" fill="none" xmlns="http://www.w3.org/2000/svg">
<path d="M15.5496 21.8972C14.9839 22.0058 14.8011 21.6572 14.8011 21.3601V18.2858C14.8011 17.2401 14.4354 16.5601 14.0296 16.2115C16.5268 15.9372 19.1439 14.9886 19.1439 10.6858C19.1439 9.46291 18.7096 8.46291 17.9896 7.68006C18.1039 7.39434 18.4868 6.2572 17.8811 4.71434C17.8811 4.71434 16.9439 4.41148 14.8068 5.86291C13.9096 5.6172 12.9554 5.49148 12.0011 5.49148C11.0468 5.49148 10.0925 5.6172 9.19536 5.86863C7.05821 4.42291 6.11536 4.72006 6.11536 4.72006C5.50964 6.26291 5.8925 7.40006 6.00679 7.68006C5.2925 8.46291 4.8525 9.46291 4.8525 10.6858C4.8525 14.9772 7.46393 15.9372 9.95536 16.2172C9.63536 16.4972 9.34393 16.9886 9.24679 17.7143C8.60679 18.0001 6.98964 18.4972 5.98964 16.7829C5.98964 16.7829 5.39536 15.7086 4.27536 15.6286C4.27536 15.6286 3.18393 15.6115 4.20107 16.3086C4.20107 16.3086 4.93821 16.6515 5.44107 17.9486C5.44107 17.9486 6.08679 19.9486 9.20679 19.2686V21.3543C9.20679 21.6515 9.02393 22.0001 8.46964 21.8915C4.01821 20.4115 0.8125 16.2172 0.8125 11.2686C0.8125 5.08577 5.82393 0.0743408 12.0068 0.0743408C18.1896 0.0743408 23.2011 5.08577 23.2011 11.2686C23.2011 16.2115 19.9954 20.4115 15.5554 21.8915L15.5496 21.8972Z" fill="white"/>
</svg>
