<svg width="22" height="19" viewBox="0 0 22 19" fill="none" xmlns="http://www.w3.org/2000/svg">
<path d="M21.9891 4.39919C21.8901 6.53669 20.3941 9.46343 17.5011 13.1794C14.5091 17.0598 11.9791 19 9.91105 19C8.62954 19 7.54603 17.8162 6.65503 15.4539C6.06103 13.289 5.47252 11.1186 4.87852 8.95372C4.21852 6.5915 3.51452 5.40765 2.76101 5.40765C2.59601 5.40765 2.01851 5.75294 1.034 6.44352L0 5.11169C1.0835 4.15803 2.15601 3.20438 3.21201 2.25072C4.65852 1.00658 5.74753 0.348889 6.46803 0.283119C8.17854 0.118696 9.23454 1.2861 9.63054 3.79082C10.0595 6.48737 10.351 8.16997 10.5215 8.82766C11.0165 11.0693 11.5556 12.1874 12.1496 12.1874C12.6116 12.1874 13.2991 11.4584 14.2231 10.0115C15.1471 8.5591 15.6366 7.45199 15.7026 6.69564C15.8346 5.44054 15.3396 4.81573 14.2231 4.81573C13.6951 4.81573 13.1561 4.93631 12.5951 5.17746C13.6786 1.62591 15.7466 -0.0895739 18.7936 0.00359941C21.0541 0.0693688 22.1211 1.53274 21.9891 4.39371V4.39919Z" fill="white"/>
</svg>
